<svg xmlns="http://www.w3.org/2000/svg" width="128.71" height="101.38" viewBox="0 0 128.71 101.38">
  <g>
    <text/>    <g>
      <path d="M16.82,17V69.34q0,6.48-3.12,9.9T4.54,82.65A13.05,13.05,0,0,1,0,81.84l.09-4.25A13.42,13.42,0,0,0,4,78.16q7.69,0,7.69-8.87V17ZM14.27,0A3.44,3.44,0,0,1,16.9,1a3.44,3.44,0,0,1,1,2.47,3.38,3.38,0,0,1-1,2.45,3.47,3.47,0,0,1-2.63,1,3.37,3.37,0,0,1-2.58-1,3.45,3.45,0,0,1-.93-2.45A3.51,3.51,0,0,1,11.69,1,3.34,3.34,0,0,1,14.27,0Z" style="fill: #898a8d"/>
      <path d="M31.12,3.48A3.49,3.49,0,0,1,32.07,1a3.42,3.42,0,0,1,2.6-1,3.46,3.46,0,0,1,2.61,1,3.43,3.43,0,0,1,1,2.47,3.36,3.36,0,0,1-1,2.45,3.48,3.48,0,0,1-2.61,1,3.44,3.44,0,0,1-2.6-1A3.42,3.42,0,0,1,31.12,3.48Zm6.1,60.28H32V17h5.19Z" style="fill: #898a8d"/>
      <path d="M59.31,5V17H69v4.24H59.31v31.2c0,2.59.47,4.53,1.4,5.8s2.5,1.9,4.69,1.9a31.73,31.73,0,0,0,4.2-.43l.21,4.2a17,17,0,0,1-5.53.73c-3.55,0-6.12-1-7.74-3.1s-2.42-5.09-2.42-9.09V21.23h-8.6V17h8.6V5Z" style="fill: #898a8d"/>
      <path d="M106,51.87a7.38,7.38,0,0,0-3.09-6.18Q99.77,43.37,93.55,42a41.94,41.94,0,0,1-9.66-3,12.88,12.88,0,0,1-5.11-4.17,10.39,10.39,0,0,1-1.66-6,11.13,11.13,0,0,1,4.63-9.15q4.62-3.6,11.84-3.61,7.83,0,12.56,3.87a12.44,12.44,0,0,1,4.73,10.1h-5.19a8.36,8.36,0,0,0-3.43-6.83,13.5,13.5,0,0,0-8.67-2.73A13.54,13.54,0,0,0,85.4,22.8a7,7,0,0,0-3.09,5.9,6.36,6.36,0,0,0,2.57,5.43q2.57,1.92,9.38,3.52a44.18,44.18,0,0,1,10.2,3.42,13.27,13.27,0,0,1,5,4.36,11.21,11.21,0,0,1,1.64,6.18,11.19,11.19,0,0,1-4.78,9.47q-4.77,3.54-12.47,3.55-8.16,0-13.25-4a12.2,12.2,0,0,1-5.08-10h5.19a9,9,0,0,0,3.83,7.07q3.53,2.54,9.31,2.53a14.66,14.66,0,0,0,8.73-2.38A7.13,7.13,0,0,0,106,51.87Z" style="fill: #898a8d"/>
      <path d="M121.58,3.48a3.49,3.49,0,0,1,1-2.47,3.42,3.42,0,0,1,2.6-1,3.47,3.47,0,0,1,2.61,1,3.42,3.42,0,0,1,1,2.47,3.36,3.36,0,0,1-1,2.45,3.5,3.5,0,0,1-2.61,1,3.44,3.44,0,0,1-2.6-1A3.42,3.42,0,0,1,121.58,3.48Zm6.1,60.28h-5.19V17h5.19Z" style="fill: #898a8d"/>
    </g>
    <g>
      <rect x="100.92" y="74.6" width="26.78" height="26.78" style="fill: #cb2033"/>
      <g>
        <path d="M117.25,86.74H115l-.51,1a3.18,3.18,0,0,1-.18.32h0l-.18-.32-.51-1H111.4l1.74,2.69-1.73,2.69h2.18l.58-1.13a2.82,2.82,0,0,0,.14-.3h0a2.82,2.82,0,0,0,.14.3l.59,1.13h2.18l-1.73-2.69Z" style="fill: #fff"/>
        <path d="M107.43,90.75a1.08,1.08,0,0,1-1.1-1.06,1.69,1.69,0,0,1,.48-1.12c.9.41,1.72.72,1.72,1.24s-.42.94-1.1.94m.06-5.52a.84.84,0,0,1,1,.85,2.25,2.25,0,0,1-.32,1.12c-.8-.34-1.47-.65-1.47-1.25,0-.4.26-.72.83-.72M109.74,88a3.88,3.88,0,0,0,.9-2.09c0-1.7-1.39-2.65-3.1-2.65-2.13,0-3.07,1.31-3.07,2.64a2.23,2.23,0,0,0,.83,1.75A3.07,3.07,0,0,0,104,89.88c0,1.46,1.16,2.84,3.39,2.84s3.39-1.4,3.39-2.79A2.22,2.22,0,0,0,109.74,88" style="fill: #fff"/>
        <path d="M121.2,90.75a1.08,1.08,0,0,1-1.1-1.06,1.65,1.65,0,0,1,.49-1.12c.89.41,1.71.72,1.71,1.24s-.42.94-1.1.94m.06-5.52c.61,0,1,.33,1,.85a2.25,2.25,0,0,1-.32,1.12c-.8-.34-1.47-.65-1.47-1.25,0-.4.26-.72.83-.72M123.52,88a3.89,3.89,0,0,0,.89-2.09c0-1.7-1.39-2.65-3.09-2.65-2.14,0-3.08,1.31-3.08,2.64a2.21,2.21,0,0,0,.84,1.75,3.08,3.08,0,0,0-1.27,2.23c0,1.46,1.16,2.84,3.39,2.84s3.39-1.4,3.39-2.79A2.23,2.23,0,0,0,123.52,88" style="fill: #fff"/>
      </g>
    </g>
    <path d="M89.71,86h-.8l2.48,6.51-.32.88a2.1,2.1,0,0,1-.57.91,1.32,1.32,0,0,1-.86.26l-.38,0v.6a2.29,2.29,0,0,0,.56.08A1.77,1.77,0,0,0,91.5,94l.14-.34L94.44,86h-.78l-1.92,5.52Zm-2.88,5.34a1.65,1.65,0,0,1-1.41.71,2,2,0,0,1-1.93-1.24v-3a2.08,2.08,0,0,1,.74-1,2,2,0,0,1,1.18-.35,1.65,1.65,0,0,1,1.42.71,3.39,3.39,0,0,1,.5,2,3.71,3.71,0,0,1-.5,2.12m1.23-2.1a4,4,0,0,0-.68-2.48,2.19,2.19,0,0,0-1.84-.89A2.28,2.28,0,0,0,83.49,87V83.24h-.72v9.32h.68l0-.9a2.36,2.36,0,0,0,2.08,1,2.16,2.16,0,0,0,1.82-.9,4,4,0,0,0,.68-2.44Zm-14.26-2a1.66,1.66,0,0,1,1.43-.72,1.94,1.94,0,0,1,1.89,1.29v3.08a2,2,0,0,1-1.9,1.18,1.62,1.62,0,0,1-1.42-.72,3.43,3.43,0,0,1-.51-2,3.67,3.67,0,0,1,.51-2.12M72.56,89.3a4,4,0,0,0,.69,2.47,2.2,2.2,0,0,0,1.83.91,2.34,2.34,0,0,0,2-1l0,.87h.68V83.24h-.72v3.68a2.28,2.28,0,0,0-2-1,2.21,2.21,0,0,0-1.85.91,4,4,0,0,0-.68,2.44Zm-2.39-2.21a2.39,2.39,0,0,1,.54,1.54v.08H66.77a2.81,2.81,0,0,1,.69-1.62,1.8,1.8,0,0,1,1.38-.6,1.66,1.66,0,0,1,1.33.6m1.13,4.43-.46-.34a2.24,2.24,0,0,1-.81.68,2.4,2.4,0,0,1-1,.21,2,2,0,0,1-1.61-.74,2.75,2.75,0,0,1-.64-1.86v-.14h4.68v-.41a3.29,3.29,0,0,0-.7-2.23,2.37,2.37,0,0,0-1.89-.82,2.51,2.51,0,0,0-1.42.44,2.83,2.83,0,0,0-1,1.19A3.8,3.8,0,0,0,66,89.21v.26a3.58,3.58,0,0,0,.37,1.65,2.94,2.94,0,0,0,1.06,1.15,2.87,2.87,0,0,0,1.51.41,2.65,2.65,0,0,0,2.33-1.16M65.3,86a1.26,1.26,0,0,0-.48-.08A1.92,1.92,0,0,0,63,87V86h-.71v6.56H63V88.05a2.07,2.07,0,0,1,.67-1.1,1.79,1.79,0,0,1,1.15-.38,3.74,3.74,0,0,1,.49,0Zm-5.73,1.14a2.39,2.39,0,0,1,.54,1.54v.08H56.17a2.81,2.81,0,0,1,.69-1.62,1.8,1.8,0,0,1,1.38-.6,1.66,1.66,0,0,1,1.33.6m1.12,4.43-.45-.34a2.24,2.24,0,0,1-.81.68,2.4,2.4,0,0,1-1,.21,2,2,0,0,1-1.61-.74,2.75,2.75,0,0,1-.64-1.86v-.14h4.68v-.41a3.29,3.29,0,0,0-.7-2.23,2.37,2.37,0,0,0-1.89-.82,2.51,2.51,0,0,0-1.42.44,2.92,2.92,0,0,0-1,1.19,3.94,3.94,0,0,0-.36,1.71v.26a3.58,3.58,0,0,0,.37,1.65,2.83,2.83,0,0,0,2.57,1.56,2.62,2.62,0,0,0,2.32-1.16M46.64,86h-.75l1.91,6.56h.62l1.66-5.2.07-.36.08.35,1.69,5.21h.62L54.45,86H53.7l-1.35,5-.14.64L52,91l-1.56-5h-.62l-1.57,5-.15.59L48,91.05Zm-6.81,3.25a3.1,3.1,0,0,1,.61-2A2,2,0,0,1,42,86.49a2,2,0,0,1,1.16.35,2.27,2.27,0,0,1,.78,1,3.31,3.31,0,0,1,.28,1.38v.14a3.09,3.09,0,0,1-.61,2,2.05,2.05,0,0,1-3.19,0,2.94,2.94,0,0,1-.61-1.93Zm-.73.08a3.53,3.53,0,0,0,.81,2.43,2.71,2.71,0,0,0,2.13.92,2.88,2.88,0,0,0,1.52-.41,2.8,2.8,0,0,0,1-1.17A3.84,3.84,0,0,0,45,89.38v-.15a3.58,3.58,0,0,0-.81-2.44,2.92,2.92,0,0,0-3.65-.49,2.76,2.76,0,0,0-1,1.18,3.76,3.76,0,0,0-.37,1.7Zm-2.45,2a1.64,1.64,0,0,1-1.43.73,2.17,2.17,0,0,1-1.15-.3,1.9,1.9,0,0,1-.74-.86V87.76a1.93,1.93,0,0,1,1.88-1.26,1.69,1.69,0,0,1,1.44.73,3.43,3.43,0,0,1,.51,2,3.71,3.71,0,0,1-.51,2.12m1.24-2.1a4,4,0,0,0-.67-2.47,2.18,2.18,0,0,0-1.85-.9,2.31,2.31,0,0,0-2,1l0-.92h-.67v9.09h.72V91.74a2.42,2.42,0,0,0,2.06.94,2.16,2.16,0,0,0,1.82-.9,4,4,0,0,0,.68-2.44Z" style="fill: #898a8d"/>
  </g>
</svg>
