<?xml version="1.0" encoding="UTF-8" standalone="no"?>
<svg
   xmlns:dc="http://purl.org/dc/elements/1.1/"
   xmlns:cc="http://creativecommons.org/ns#"
   xmlns:rdf="http://www.w3.org/1999/02/22-rdf-syntax-ns#"
   xmlns:svg="http://www.w3.org/2000/svg"
   xmlns="http://www.w3.org/2000/svg"
   viewBox="0 0 793.70081 1122.5197"
   height="1122.5197"
   width="793.70081"
   xml:space="preserve"
   id="svg2"
   version="1.1"><metadata
     id="metadata8"><rdf:RDF><cc:Work
         rdf:about=""><dc:format>image/svg+xml</dc:format><dc:type
           rdf:resource="http://purl.org/dc/dcmitype/StillImage" /></cc:Work></rdf:RDF></metadata><defs
     id="defs6"><clipPath
       id="clipPath20"
       clipPathUnits="userSpaceOnUse"><path
         id="path18"
         d="M 0,218.2979 H 595.1261 V 621.2311 H 0 Z" /></clipPath><clipPath
       id="clipPath34"
       clipPathUnits="userSpaceOnUse"><path
         id="path32"
         d="m 0,218.2979 h 595.2756 v 405.294 H 0 Z" /></clipPath></defs><g
     transform="matrix(1.3333333,0,0,-1.3333333,0,1122.5197)"
     id="g10"><g
       id="g12" /><g
       id="g14"><g
         clip-path="url(#clipPath20)"
         id="g16"><path
           id="path22"
           style="fill:#84868b;fill-opacity:1;fill-rule:nonzero;stroke:none"
           d="m 592.5905,550.3654 -8.3491,-19.8999 -8.3161,19.8999 h -2.5255 v -22.547 h 1.9074 v 9.879 l -0.1595,9.9247 8.3693,-19.8037 h 1.4692 l 8.3946,19.8822 -0.157,-10.064 v -9.8182 h 1.9023 v 22.547 z m -40.0152,0 v -1.611 h 7.7133 v -20.936 h 1.9023 v 20.936 h 7.7285 v 1.611 h -17.3441" /><path
           id="path24"
           style="fill:#84868b;fill-opacity:1;fill-rule:nonzero;stroke:none"
           d="m 562.2517,476.4702 c -4.3797,9.1596 -10.3325,13.7648 -15.0339,16.7513 -7.7892,4.9496 -17.5264,5.9907 -24.3125,5.9907 -2.8954,0 -5.2891,-0.19 -6.8368,-0.3521 h -0.1723 c 0.1241,0.9347 0.3597,2.1481 0.5649,3.1309 0.3318,1.7225 0.7245,3.6806 0.9423,5.7197 0.9018,8.7443 -2.2114,20.5054 -7.9362,29.9639 -0.9144,1.4996 -0.8789,2.0214 -0.884,2.0214 0.076,0.2077 0.6333,0.7828 1.0056,1.1678 0.1672,0.1722 0.342,0.3546 0.5218,0.5471 13.5445,14.4741 17.6455,30.4553 12.1513,47.4954 -10.4085,32.3248 -13.1898,32.3248 -15.2239,32.3248 -0.9094,0 -1.7808,-0.38 -2.3912,-1.0563 -0.684,-0.7549 -0.9601,-1.7529 -0.8461,-2.9764 1.0791,-10.715 -1.4084,-26.0604 -2.9713,-31.8992 -1.9783,-7.3535 -8.8962,-18.3092 -30.6326,-28.7353 -0.9829,-0.4763 -2.6978,-1.0487 -4.671,-1.7099 -7.1003,-2.3785 -18.9551,-6.3479 -25.5488,-15.4265 -4.9775,-5.8261 -6.1706,-11.6623 -8.3237,-22.1974 -1.9226,-9.3623 -3.4678,-20.7663 -0.4357,-34.374 0.304,-1.3451 0.5953,-2.4748 0.8587,-3.4805 0.185,-0.7194 0.3496,-1.3425 0.4712,-1.8745 l 0.2584,0.0558 -0.2635,-0.0735 c 0.1925,-0.7903 0.071,-1.0082 -0.2229,-1.2058 -0.6763,-0.2938 -1.7098,-0.6079 -3.2373,-0.9929 -3.255,-0.5117 -6.4593,-1.0816 -9.5168,-1.6896 -9.8056,-1.6845 -39.4275,-6.7912 -53.0707,-28.5074 -8.4174,-13.3924 -9.6156,-30.8935 -3.559,-52.0574 6.2745,-20.936 18.7347,-35.3594 27.2586,-38.2953 l 0.1393,-0.0456 c 0.613,-0.2685 1.2057,-0.5015 1.7732,-0.6991 -0.0203,-0.5877 -0.0558,-1.3045 -0.1318,-2.11 -0.0532,-0.3572 -0.1114,-0.7397 -0.1672,-1.1577 -0.9397,-6.8342 -4.1593,-14.203 -7.4447,-14.398 -1.7301,0.3343 -8.5948,4.2302 -13.4532,7.4194 -1.5604,1.0259 -3.0347,1.9935 -4.438,2.9206 -13.5571,8.9722 -21.0322,13.9143 -32.4539,15.196 -0.385,0.0355 -0.7777,0.0608 -1.1728,0.0608 -12.0601,0 -33.8345,-20.3559 -34.3082,-60.9233 -0.233,-20.3255 1.8973,-38.9031 6.3404,-55.2188 3.1815,-11.7053 6.5581,-18.3699 7.5486,-20.176 l 3.9034,-7.3054 1.7859,8.0983 c 9.4307,42.7331 21.0702,53.0023 40.4356,65.3106 14.1929,-13.2861 32.8314,-20.3027 54.0587,-20.3027 17.8886,0 36.6081,5.2004 52.6983,14.6437 15.7989,9.2661 27.9957,21.7466 35.4252,36.1903 1.2337,-0.8081 2.7332,-1.8593 3.7262,-2.5407 3.5463,-2.49 4.2987,-3.0093 5.5601,-3.0093 h 0.1115 c 1.3881,0.0557 14.4614,4.4379 27.8488,20.7865 7.774,9.5041 14.1878,21.2577 19.0564,34.9439 6.0262,16.9337 9.7017,36.9172 10.9151,59.3832 1.3628,18.874 -0.5472,33.9079 -5.6995,44.6685 M 512.089,585.1118 c 1.4742,-6.5937 0.9778,-10.1324 0.4458,-13.8307 -1.2564,-8.9291 -5.0408,-16.8881 -11.5078,-24.2163 5.935,12.9238 9.1115,25.1611 11.062,38.047 m -9.3294,-55.4215 c 1.4008,-2.0746 3.6021,-6.2263 4.4532,-9.7017 1.0968,-4.4709 0.8891,-9.4332 -0.5624,-13.6103 -2.3076,-5.5044 -5.4157,-8.2882 -9.2229,-8.2882 -0.1697,0 -0.342,0.0101 -0.5066,0.0202 -1.2134,0.1571 -2.4875,0.6257 -3.7895,1.3856 -4.9041,2.865 -7.5512,10.4617 -5.6235,16.0497 0.0735,0.1621 0.1494,0.3318 0.2229,0.5117 0.3141,0.8435 1.2108,2.3557 3.6907,4.747 3.5438,3.1359 8.729,7.0901 11.3381,8.886 m -56.7538,1.5224 0.0431,0.0861 0.0329,0.0811 c 1.0436,2.5711 8.268,6.7507 13.0454,9.5193 0.5978,0.3496 1.2007,0.6941 1.7909,1.0335 1.4008,0.8182 3.7413,1.8112 6.4568,2.9739 7.8779,3.3513 20.1533,8.5745 30.2552,18.3015 -2.9409,-10.2843 -9.9955,-27.5979 -21.6047,-38.0799 -2.5711,-2.3405 -7.7867,-4.3974 -13.8154,-6.776 -6.5025,-2.5711 -14.3221,-5.6614 -21.9087,-10.297 0.5902,5.9351 2.4393,16.2751 5.7045,23.1575 M 441.0004,497.7 c 3.9086,3.2347 11.0519,7.5866 34.4399,15.3429 0.1596,-0.727 0.347,-1.6643 0.5294,-2.5888 0.1368,-0.7042 0.2964,-1.4946 0.4711,-2.3735 1.53,-7.5512 3.2601,-16.0446 18.9627,-20.7562 -1.4666,-3.2524 -4.481,-8.6783 -5.5297,-9.7118 l -0.342,-0.2989 -0.2507,-0.3977 c -3.0575,-4.9142 -19.6112,-15.6444 -27.0256,-15.6444 -0.3571,0 -0.6788,0.0304 -0.9473,0.0811 -4.4659,0.8562 -14.7173,9.9652 -17.6886,16.6956 -5.8235,13.1999 -4.6355,17.9672 -2.6192,19.6517 M 382.7546,376.5019 c -8.6252,12.7237 -15.1175,35.0072 -10.8416,52.9719 l 0.0253,0.081 c 2.0467,9.7575 8.8481,15.4924 11.6725,17.5012 0.2128,0.157 0.3571,0.2634 0.4002,0.3039 4.1771,3.6375 12.7262,7.4853 24.0694,10.8442 1.5984,0.4205 2.4976,0.6028 2.5356,0.6079 2.0873,0.4306 4.3696,0.9575 6.5835,1.4641 4.59,1.0614 9.342,2.1582 12.7288,2.4901 1.0715,0.1139 2.148,0.3115 3.1866,0.5142 1.4312,0.2685 2.9131,0.5471 4.2303,0.5471 1.3146,0 2.3051,-0.2634 3.1841,-0.8511 4.2049,-5.0003 14.4791,-14.8642 21.2602,-15.4442 l 0.2077,-0.0203 0.2178,0.0152 c 7.6905,0.4053 19.7378,7.9134 35.8204,22.3089 2.7332,2.447 5.2739,4.5342 7.7589,6.3809 l 0.3166,0.2279 c 4.9826,3.6679 9.7194,6.31 14.355,8.0173 -1.682,-5.507 -3.027,-14.925 2.4444,-28.211 2.832,-6.8723 8.2655,-22.3444 12.7643,-37.4999 7.7563,-26.0908 6.6746,-30.6807 6.5277,-31.1139 -0.5573,-1.6414 -0.9347,-2.2646 -1.1171,-2.4875 -0.2381,0.0254 -0.7447,0.1545 -1.7275,0.6181 -3.8453,1.7782 -8.2655,5.0206 -13.3899,8.7797 -9.5067,6.9634 -21.3286,15.6393 -38.6296,22.395 -12.7085,4.9598 -25.341,7.4853 -37.5429,7.4853 -5.2384,0 -10.2945,-0.4838 -15.0238,-1.4059 -27.2458,-5.3752 -41.6135,-17.3947 -49.3217,-23.8566 l -0.0684,-0.0507 c -1.0436,-0.8865 -1.4337,-2.2493 -0.9879,-3.4982 0.456,-1.2336 1.6136,-2.0391 2.9612,-2.0391 0.7042,0 1.3906,0.1925 3.6578,0.841 4.4683,1.2741 13.78,3.9364 24.9509,5.2106 3.255,0.3698 6.2491,0.5395 9.1216,0.5395 13.1974,0 25.3334,-4.0504 38.1812,-12.7592 2.9359,-2.4571 4.742,-4.0858 5.8186,-5.1573 -0.3521,-0.0912 -0.7194,-0.1875 -1.107,-0.2939 -2.376,-0.6586 -4.9877,-1.4058 -7.7969,-2.1936 -19.2869,-5.4538 -48.4478,-13.6939 -62.2556,-13.6939 -1.2134,0 -2.2798,0.0608 -3.1639,0.1875 -3.5792,0.5268 -7.9488,4.2581 -12.0068,10.2438 m -56.9514,-97.9064 c -6.391,-8.3263 -9.6865,-16.4144 -11.7763,-23.7604 -2.5965,12.4375 -5.6488,32.8922 -3.9086,48.8101 3.6071,32.9884 19.9531,44.0403 22.3798,44.6229 0.0431,0 0.0963,0.005 0.1495,0.005 0.1342,0 0.2989,0 0.6206,-0.3445 1.3096,-1.4185 4.1264,-7.4016 2.0746,-32.1676 -0.4889,-5.0966 0.7397,-9.4181 3.6552,-12.8403 2.0949,-2.4875 4.78,-4.0833 7.2827,-5.1244 -8.0477,-5.3549 -14.5324,-11.4546 -20.4775,-19.2008 m 27.7702,32.3627 c -0.9777,-0.4154 -1.9125,-0.6282 -2.6977,-0.6282 -1.0082,0 -1.4869,0.3597 -1.7706,0.6738 -0.5269,0.5522 -1.7048,2.4596 -1.3324,7.9362 0.2735,2.718 0.6484,5.4233 1.0031,8.04 0.6763,4.8483 1.3526,9.8132 1.421,14.9959 9.5194,-6.201 20.057,-12.8073 26.909,-15.8546 -4.4633,-3.9542 -13.7496,-11.0645 -23.5324,-15.1631 m 124.3062,0.8967 c -15.5607,-16.1053 -36.2459,-25.8476 -58.2559,-27.4054 -2.6268,-0.1926 -5.241,-0.2888 -7.7614,-0.2888 -29.1533,0 -43.9617,12.3691 -50.7605,19.2616 32.9301,14.2055 39.6175,34.5209 42.533,43.3968 0.2787,0.8562 0.537,1.6415 0.765,2.252 1.2514,0.6332 5.2461,2.4469 17.5847,7.0445 9.6865,3.4728 21.2628,7.3789 31.4863,10.8264 8.5162,2.8649 15.8799,5.3524 19.8974,6.8317 l 0.3293,0.1014 c 0.7903,0.2279 1.2919,0.3394 1.6034,0.39 0.0659,-0.0962 0.1394,-0.1925 0.2154,-0.2938 3.7489,-4.8838 9.9297,-7.8551 9.993,-7.8931 5.4056,-2.5584 11.2469,-3.4222 14.6919,-3.7084 -0.1267,-17.5999 -8.1667,-35.8686 -22.3216,-50.5149 m 25.5057,60.2799 c -12.1918,0 -16.4752,3.9314 -20.4699,8.6784 -19.791,23.6008 -41.687,27.4738 -50.1855,28.0387 -2.7231,0.1773 -5.3904,0.2711 -7.9488,0.2711 -2.1456,0 -4.2328,-0.0583 -6.2872,-0.19 8.2478,2.7914 18.6689,5.0915 30.6327,5.0915 21.8377,0 42.8623,-7.7335 62.4659,-22.9827 7.9919,-6.2111 13.8737,-10.6187 18.9551,-14.1549 -2.4647,-0.7346 -5.816,-1.6718 -10.026,-2.8193 -0.694,-0.1925 -1.2615,-0.3496 -1.6363,-0.4509 -6.0719,-1.0006 -11.1482,-1.4819 -15.5,-1.4819 m 7.5663,-44.638 c -1.2767,1.1348 -3.2499,2.9307 -5.2283,4.7571 1.1121,2.7965 3.0144,8.1591 4.1644,14.4893 0.9423,5.2282 1.5401,12.0904 1.8213,15.7279 3.5235,0.5319 10.2464,1.682 17.1566,3.6502 6.8014,1.9479 12.0499,4.1644 15.7812,6.6899 -11.6548,-29.1204 -28.5479,-41.9429 -33.6952,-45.3144 m 40.347,66.572 c -1.7225,14.3626 -7.5334,32.1018 -9.8081,39.002 -0.2406,0.7726 -0.4433,1.3881 -0.575,1.8137 -0.1773,0.542 -0.7017,2.0036 -1.7757,4.9901 -2.7965,7.7994 -8.6378,24.034 -9.6561,28.8367 -1.492,7.0597 1.8745,16.7716 3.9997,17.6126 0.6561,0.2482 1.3552,0.3825 2.0848,0.3825 3.9668,0 8.8506,-3.749 12.7414,-9.7904 4.6887,-7.2826 7.4701,-16.8653 7.8348,-26.9901 0.7954,-22.086 -1.2437,-40.542 -4.8458,-55.8571" /><path
           id="path26"
           style="fill:#84868b;fill-opacity:1;fill-rule:nonzero;stroke:none"
           d="m 36.13449,550.4946 c 2.84719,0 5.07125,-0.8537 6.67976,-2.5584 1.60597,-1.7048 2.40896,-3.7895 2.40896,-6.2568 0,-2.4672 -0.80299,-4.5342 -2.40896,-6.2035 -1.60851,-1.6693 -3.83257,-2.5002 -6.67976,-2.5002 -2.77626,0 -4.94712,0.8309 -6.5151,2.5002 -1.57051,1.6693 -2.35324,3.7363 -2.35324,6.2035 0,2.4673 0.78273,4.552 2.35324,6.2568 1.56798,1.7047 3.73884,2.5584 6.5151,2.5584 z M 42.5964,507.46 V 374.8554 c 0,-10.9506 -2.62934,-19.3072 -7.8855,-25.0751 -5.25616,-5.7628 -12.99474,-8.6505 -23.21322,-8.6505 -3.944013,0 -7.774041,0.6865 -11.49768,2.0594 l 0.2178455,10.7505 c 3.2119555,-0.9474 6.4999025,-1.4211 9.8537145,-1.4211 12.99474,0 19.49464,7.4878 19.49464,22.4609 V 507.46 h 13.0302" /></g></g><g
       id="g28"><g
         clip-path="url(#clipPath34)"
         id="g30"><path
           id="path36"
           style="fill:#84868b;fill-opacity:1;fill-rule:nonzero;stroke:none"
           d="M 81.13986,507.46 H 94.27899 V 388.9824 H 81.13986 Z m -2.30004,34.2194 c 0,2.4673 0.80045,4.552 2.40643,6.2568 1.60598,1.7047 3.7971,2.5584 6.57083,2.5584 2.77373,0 4.98258,-0.8537 6.62656,-2.5584 1.64144,-1.7048 2.46216,-3.7895 2.46216,-6.2568 0,-2.4672 -0.82072,-4.5342 -2.46216,-6.2035 -1.64398,-1.6693 -3.85283,-2.5002 -6.62656,-2.5002 -2.77373,0 -4.96485,0.8309 -6.57083,2.5002 -1.60598,1.6693 -2.40643,3.7363 -2.40643,6.2035" /><path
           id="path38"
           style="fill:#84868b;fill-opacity:1;fill-rule:nonzero;stroke:none"
           d="M 150.2324,537.7937 V 507.46 h 24.5304 v -10.7302 h -24.5304 v -79.0374 c 0,-6.5784 1.188,-11.4749 3.5589,-14.6894 2.371,-3.217 6.3328,-4.8255 11.8802,-4.8255 2.1911,0 5.7299,0.3673 10.6213,1.0968 l 0.5496,-10.6364 c -3.4323,-1.2311 -8.1033,-1.8466 -14.0155,-1.8466 -8.9798,0 -15.5152,2.609 -19.6011,7.8297 -4.0909,5.2182 -6.1326,12.9036 -6.1326,23.0511 v 79.0577 H 115.3011 V 507.46 h 21.7921 v 30.3337 h 13.1392" /><path
           id="path40"
           style="fill:#84868b;fill-opacity:1;fill-rule:nonzero;stroke:none"
           d="m 268.3882,419.0932 c 0,6.4974 -2.6116,11.7181 -7.8297,15.6595 -5.2207,3.9415 -13.0834,7.0243 -23.5958,9.2534 -10.5123,2.2266 -18.6688,4.78 -24.4747,7.6626 -5.8033,2.8852 -10.112,6.4062 -12.9187,10.568 -2.8143,4.1619 -4.2176,9.1977 -4.2176,15.1124 0,9.3421 3.9035,17.0629 11.7155,23.1575 7.8096,6.0946 17.8127,9.1445 30.0045,9.1445 13.21,0 23.8161,-3.2677 31.8105,-9.8005 7.9919,-6.5354 11.9891,-15.0567 11.9891,-25.569 h -13.1391 c 0,6.9356 -2.903,12.7034 -8.7063,17.301 -5.8033,4.6001 -13.1239,6.8976 -21.9542,6.8976 -8.6151,0 -15.5329,-1.9151 -20.7511,-5.7476 -5.2207,-3.8326 -7.8298,-8.8152 -7.8298,-14.9452 0,-5.9123 2.1709,-10.4971 6.5151,-13.7446 4.3443,-3.2474 12.2652,-6.2238 23.7629,-8.9215 11.4977,-2.7028 20.1102,-5.5855 25.8426,-8.653 5.7273,-3.0651 9.9804,-6.7532 12.7541,-11.0595 2.7763,-4.3088 4.1619,-9.5244 4.1619,-15.657 0,-10.0006 -4.0327,-17.9976 -12.0981,-23.9807 -8.0679,-5.9857 -18.6004,-8.9798 -31.5926,-8.9798 -13.7952,0 -24.9839,3.3411 -33.5609,10.0183 -8.5771,6.6798 -12.8656,15.1302 -12.8656,25.3512 h 13.1392 c 0.5091,-7.6652 3.7413,-13.6331 9.6915,-17.9039 5.9477,-4.2708 13.8155,-6.4062 23.5958,-6.4062 9.1241,0 16.498,2.0062 22.1189,6.0212 5.6234,4.0149 8.4326,9.0887 8.4326,15.2213" /><path
           id="path42"
           style="fill:#84868b;fill-opacity:1;fill-rule:nonzero;stroke:none"
           d="m 310.2754,507.46 h 13.1391 V 388.9824 h -13.1391 z m -2.3001,34.2194 c 0,2.4673 0.803,4.552 2.409,6.2568 1.6034,1.7047 3.7945,2.5584 6.5708,2.5584 2.7737,0 4.9826,-0.8537 6.624,-2.5584 1.6415,-1.7048 2.4647,-3.7895 2.4647,-6.2568 0,-2.4672 -0.8232,-4.5342 -2.4647,-6.2035 -1.6414,-1.6693 -3.8503,-2.5002 -6.624,-2.5002 -2.7763,0 -4.9674,0.8309 -6.5708,2.5002 -1.606,1.6693 -2.409,3.7363 -2.409,6.2035" /></g></g></g></svg>