<svg id="Layer_1" data-name="Layer 1" xmlns="http://www.w3.org/2000/svg" viewBox="0 0 149.07 147.97">
  <defs>
    <style>
      .cls-1 {
        fill: #fff;
      }

      .cls-2 {
        fill: #0973b9;
      }
    </style>
  </defs>
  <title>bubbleNoTag</title>
  <path class="cls-1" d="M78.7,152a73.25,73.25,0,0,1-44.2-14.8A49.65,49.65,0,0,0,17,142.7C11.9,145.6,4.2,152,4.2,152S0,134.5,15.1,115.8A74.15,74.15,0,1,1,78.7,152" transform="translate(-3.66 -4.03)"/>
  <path class="cls-2" d="M34.4,67a3.66,3.66,0,0,0-3.6-2.3h-.4A3.71,3.71,0,0,0,26.8,67L17.2,88a2.77,2.77,0,0,0-.3,1.3A3.06,3.06,0,0,0,20,92.1a3.43,3.43,0,0,0,3.1-1.9l7.4-17.6c.4,1,.7,1.8.7,1.8l6.6,15.7a3.38,3.38,0,0,0,3.3,2,3,3,0,0,0,3.2-2.8v-.1a2.3,2.3,0,0,0-.4-1.4L34.4,67Z" transform="translate(-3.66 -4.03)"/>
  <path class="cls-2" d="M65.6,64.8a3.43,3.43,0,0,0-3.1,1.9L55.1,84.3c-.4-1-.7-1.8-.7-1.8h0L47.8,66.9a3.43,3.43,0,0,0-3.3-2.1,3,3,0,0,0-3.2,2.8v.1a3.26,3.26,0,0,0,.4,1.4l9.5,20.8a3.66,3.66,0,0,0,3.6,2.3h.4a3.71,3.71,0,0,0,3.6-2.3l9.6-21a2.77,2.77,0,0,0,.3-1.3,2.93,2.93,0,0,0-3.1-2.8Z" transform="translate(-3.66 -4.03)"/>
  <path class="cls-2" d="M121.9,87l-7.2-8.8,6.8-8.3a3.17,3.17,0,0,0,.9-2.3,2.69,2.69,0,0,0-2.7-2.7h0a3.36,3.36,0,0,0-2.9,1.6l-5.9,7.7c-1.1-1.5-2.1-3-2.1-3h0l-3.7-4.9a3.28,3.28,0,0,0-2.7-1.5,2.8,2.8,0,0,0-2.9,2.7v.2a3.6,3.6,0,0,0,.9,2.2l6.8,8.3L100,87.1a3.1,3.1,0,0,0-.9,2.2,2.69,2.69,0,0,0,2.7,2.7,3.36,3.36,0,0,0,2.9-1.6l6.2-8.1,6.3,8.2a3.28,3.28,0,0,0,2.7,1.5,2.82,2.82,0,0,0,2.9-2.8v-.1a2.72,2.72,0,0,0-.9-2.1Z" transform="translate(-3.66 -4.03)"/>
  <path class="cls-2" d="M131.8,64.8a2.9,2.9,0,0,0-2.9,2.9h0V89a2.9,2.9,0,1,0,5.8,0h0V67.8a2.81,2.81,0,0,0-2.9-3Z" transform="translate(-3.66 -4.03)"/>
  <path class="cls-2" d="M139.3,89.8c.2,0,.4-.1.4-.3s-.1-.3-.4-.3h-.4v.6Zm-1-.8a.27.27,0,0,1,.3-.3h.8c.6,0,1,.2,1,.8a.84.84,0,0,1-.4.7l.3.3c.1.1.1.1.1.2a.32.32,0,0,1-.3.3c-.1,0-.2,0-.2-.1l-.5-.6H139v.4a.3.3,0,1,1-.6,0l-.1-1.7Zm2.8.9h0a2,2,0,0,0-1.9-1.9,1.9,1.9,0,0,0-1.9,1.9h0a1.9,1.9,0,0,0,1.9,1.9,1.78,1.78,0,0,0,1.9-1.9Zm-4,0h0a2.2,2.2,0,0,1,4.4,0h0a2.2,2.2,0,0,1-4.4,0Z" transform="translate(-3.66 -4.03)"/>
  <path class="cls-2" d="M83.8,87.6a8.75,8.75,0,0,1-5.2-1.7,4.79,4.79,0,0,0-2,.7,14.31,14.31,0,0,0-1.5,1.1,5.3,5.3,0,0,1,1.3-4.3,8.7,8.7,0,1,1,11.9,3.1,9.08,9.08,0,0,1-4.5,1.1Zm0-23.1A14.5,14.5,0,1,0,98.3,79,14.51,14.51,0,0,0,83.8,64.5Z" transform="translate(-3.66 -4.03)"/>
</svg>
