<?xml version="1.0" encoding="UTF-8" standalone="no"?>
<svg
   xmlns:dc="http://purl.org/dc/elements/1.1/"
   xmlns:cc="http://creativecommons.org/ns#"
   xmlns:rdf="http://www.w3.org/1999/02/22-rdf-syntax-ns#"
   xmlns:svg="http://www.w3.org/2000/svg"
   xmlns="http://www.w3.org/2000/svg"
   viewBox="0 0 3772.3733 1352.1333"
   height="1352.1333"
   width="3772.3733"
   xml:space="preserve"
   id="svg2"
   version="1.1"><metadata
     id="metadata8"><rdf:RDF><cc:Work
         rdf:about=""><dc:format>image/svg+xml</dc:format><dc:type
           rdf:resource="http://purl.org/dc/dcmitype/StillImage" /></cc:Work></rdf:RDF></metadata><defs
     id="defs6"><clipPath
       id="clipPath18"
       clipPathUnits="userSpaceOnUse"><path
         id="path16"
         d="M 0,1014.101 H 2829.283 V 0 H 0 Z" /></clipPath></defs><g
     transform="matrix(1.3333333,0,0,-1.3333333,0,1352.1333)"
     id="g10"><g
       id="g12"><g
         clip-path="url(#clipPath18)"
         id="g14"><g
           transform="translate(2490.5615,763.6875)"
           id="g20"><path
             id="path22"
             style="fill:#4b7fc9;fill-opacity:1;fill-rule:evenodd;stroke:none"
             d="m 0,0 c 69.708,-124.838 -94.935,-332.658 -94.935,-332.658 -2.819,-3.822 -6.789,-7.254 -11.739,-9.756 -13.62,-6.881 -29.253,-4.236 -34.918,5.909 -2.426,4.344 -2.408,9.329 -0.76,14.175 49.155,89.148 89.663,196.732 46.555,273.929 -43.105,77.197 -159.494,105.507 -264.667,116.683 -5.142,1.413 -9.496,4.192 -11.921,8.534 -5.666,10.146 0.783,23.949 14.404,30.83 4.952,2.502 10.162,3.709 15.071,3.791 0,0 269.766,19.551 342.91,-111.437" /></g><g
           transform="translate(2486.5674,739.8936)"
           id="g24"><path
             id="path26"
             style="fill:#52afe6;fill-opacity:1;fill-rule:evenodd;stroke:none"
             d="m 0,0 c -78.762,116.979 -321.125,94.927 -352.117,91.589 -1.449,0.16 -2.906,0.33 -4.353,0.484 -5.142,1.412 -9.495,4.192 -11.921,8.533 -5.665,10.146 0.784,23.95 14.404,30.831 4.952,2.501 10.163,3.71 15.071,3.791 0,0 269.77,19.551 342.911,-111.437 C 17.204,0.134 21.985,-26.505 21.08,-54.144 17.793,-34.832 11.115,-16.508 0,0" /></g><g
           transform="translate(2428.8135,721.8657)"
           id="g28"><path
             id="path30"
             style="fill:#2d57ae;fill-opacity:1;fill-rule:evenodd;stroke:none"
             d="m 0,0 c 50.063,-67.771 27.596,-168.149 -8.127,-255.776 -14.564,-21.807 -25.061,-35.06 -25.061,-35.06 -2.818,-3.825 -6.789,-7.254 -11.74,-9.758 -13.619,-6.879 -29.252,-4.235 -34.917,5.911 -2.426,4.343 -2.409,9.329 -0.76,14.174 49.154,89.149 89.664,196.733 46.556,273.929 -22.49,40.277 -64.945,67.226 -115.332,85.397 C -86.888,66.151 -31.403,42.513 0,0" /></g><g
           transform="translate(2621.9053,590.7549)"
           id="g32"><path
             id="path34"
             style="fill:#4b7fc9;fill-opacity:1;fill-rule:evenodd;stroke:none"
             d="m 0,0 c 67.829,-154.577 -149.116,-380.222 -149.116,-380.222 -3.744,-4.175 -8.797,-7.757 -14.898,-10.139 -16.783,-6.55 -34.857,-1.676 -40.368,10.886 -2.36,5.378 -1.777,11.236 0.706,16.743 67.83,99.219 127.578,221.078 85.635,316.665 -41.944,95.588 -175.529,141.996 -297.866,167.001 -5.884,2.241 -10.686,5.998 -13.046,11.375 -5.512,12.562 3.625,28.056 20.406,34.605 6.103,2.381 12.362,3.213 18.14,2.753 0,0 319.237,-7.474 390.407,-169.667" /></g><g
           transform="translate(2614.5264,563.2432)"
           id="g36"><path
             id="path38"
             style="fill:#52afe6;fill-opacity:1;fill-rule:evenodd;stroke:none"
             d="m 0,0 c -79.355,146.364 -366.67,147.807 -403.468,147.382 -1.686,0.352 -3.378,0.716 -5.06,1.059 -5.884,2.242 -10.686,5.998 -13.046,11.375 -5.512,12.563 3.625,28.057 20.406,34.606 6.103,2.381 12.362,3.213 18.14,2.753 0,0 319.237,-7.474 390.408,-169.667 C 20.232,-1.784 22.845,-33.63 18.66,-66.008 16.979,-42.942 11.199,-20.655 0,0" /></g><g
           transform="translate(2544.6201,548.5762)"
           id="g40"><path
             id="path42"
             style="fill:#2d57ae;fill-opacity:1;fill-rule:evenodd;stroke:none"
             d="m 0,0 c 51.182,-85.295 13.449,-200.723 -38.426,-299.67 -19.576,-23.982 -33.407,-38.373 -33.407,-38.373 -3.743,-4.176 -8.796,-7.759 -14.897,-10.141 -16.784,-6.548 -34.857,-1.675 -40.369,10.888 -2.36,5.377 -1.777,11.235 0.707,16.742 67.829,99.219 127.578,221.078 85.634,316.665 -21.884,49.871 -68.736,86.334 -125.898,113.376 C -94.645,87.548 -32.107,53.506 0,0" /></g><g
           transform="translate(452.0986,243.3213)"
           id="g44"><path
             id="path46"
             style="fill:#323131;fill-opacity:1;fill-rule:nonzero;stroke:none"
             d="m 0,0 c -48.289,0 -92.733,18.679 -125.146,52.595 -32.074,33.56 -49.737,79.107 -49.737,128.25 v 0.994 c 0,48.702 17.705,94.224 49.854,128.181 32.759,34.601 77.515,53.657 126.023,53.657 62.417,0 99.7,-22.453 136.479,-56.167 l 1.519,-1.392 -21.21,-21.783 -1.433,1.386 c -25.873,25.025 -59.87,50.607 -115.852,50.607 -39.688,0 -76.309,-15.743 -103.116,-44.328 -26.721,-28.494 -41.438,-67.265 -41.438,-109.168 v -0.993 c 0,-42.058 14.871,-81.07 41.872,-109.851 27.007,-28.786 63.65,-44.638 103.179,-44.638 45.445,0 79.725,15.521 118.322,53.573 l 1.394,1.375 20.257,-19.679 -1.454,-1.434 C 118.742,40.695 99.587,26.623 79.231,16.9 55.423,5.528 29.506,0 0,0" /></g><g
           transform="translate(857.833,249.2832)"
           id="g48"><path
             id="path50"
             style="fill:#323131;fill-opacity:1;fill-rule:nonzero;stroke:none"
             d="m 0,0 h -29.833 v 138.974 l -150.907,212.78 h 37.205 l 0.597,-0.857 128.521,-184.442 129.612,185.299 h 35.718 L 0,139.47 Z" /></g><g
           transform="translate(1123.627,374.0039)"
           id="g52"><path
             id="path54"
             style="fill:#323131;fill-opacity:1;fill-rule:nonzero;stroke:none"
             d="M 0,0 H 177.098 L 88.789,194.375 Z M 266.792,-124.721 H 234.059 L 189.844,-27.35 H -12.753 l -44.215,-97.371 H -88.211 L 75.592,229.517 h 27.397 z" /></g><g
           transform="translate(1540.5576,420.7021)"
           id="g56"><path
             id="path58"
             style="fill:#323131;fill-opacity:1;fill-rule:nonzero;stroke:none"
             d="m 0,0 h 115.242 c 28.781,0 53.425,7.098 71.268,20.525 18.369,13.825 28.078,33.521 28.078,56.961 v 0.993 c 0,46.342 -36.581,74.009 -97.856,74.009 H 0 Z m 259.409,-171.419 h -37.846 l -0.599,0.781 L 110.779,-27.35 H 0 v -144.069 h -29.834 v 351.754 h 148.057 c 37.037,0 68.672,-9.709 91.484,-28.076 22.71,-18.285 34.714,-43.454 34.714,-72.785 v -0.995 c 0,-28.477 -9.955,-52.018 -29.589,-69.97 -17.251,-15.775 -41.6,-26.414 -70.576,-30.875 z" /></g><g
           transform="translate(1993.8418,374.0039)"
           id="g60"><path
             id="path62"
             style="fill:#323131;fill-opacity:1;fill-rule:nonzero;stroke:none"
             d="M 0,0 H 177.098 L 88.788,194.375 Z M 266.792,-124.721 H 234.059 L 189.844,-27.35 H -12.754 l -44.215,-97.371 h -31.243 l 1.313,2.84 162.491,351.398 h 27.396 l 0.537,-1.161 z" /></g></g></g></g></svg>