<?xml version="1.0" encoding="UTF-8" standalone="no"?>
<svg
   xmlns:dc="http://purl.org/dc/elements/1.1/"
   xmlns:cc="http://creativecommons.org/ns#"
   xmlns:rdf="http://www.w3.org/1999/02/22-rdf-syntax-ns#"
   xmlns:svg="http://www.w3.org/2000/svg"
   xmlns="http://www.w3.org/2000/svg"
   viewBox="0 0 1056 816"
   height="816"
   width="1056"
   xml:space="preserve"
   id="svg2"
   version="1.1"><metadata
     id="metadata8"><rdf:RDF><cc:Work
         rdf:about=""><dc:format>image/svg+xml</dc:format><dc:type
           rdf:resource="http://purl.org/dc/dcmitype/StillImage" /></cc:Work></rdf:RDF></metadata><defs
     id="defs6"><clipPath
       id="clipPath18"
       clipPathUnits="userSpaceOnUse"><path
         id="path16"
         d="M 0,612 H 792 V 0 H 0 Z" /></clipPath><clipPath
       id="clipPath50"
       clipPathUnits="userSpaceOnUse"><path
         id="path48"
         d="m 230.607,343.075 h 20.14 c 3.882,0 7.215,-1.718 9.142,-4.713 v 0 c 1.08,-1.678 1.626,-3.672 1.659,-5.723 v 0 l 127.394,212.566 141.186,-215.44 c 0.234,8.426 5.35,13.445 13.811,13.445 v 0 h 16.396 l -152.662,233.248 0.134,0.224 -10.561,15.708 -8.892,13.584 -0.113,-0.192 -0.144,0.213 z" /></clipPath><linearGradient
       id="linearGradient66"
       spreadMethod="pad"
       gradientTransform="matrix(329.72729,0,0,-329.72729,230.60736,467.88016)"
       gradientUnits="userSpaceOnUse"
       y2="0"
       x2="1"
       y1="0"
       x1="0"><stop
         id="stop56"
         offset="0"
         style="stop-opacity:1;stop-color:#3bb4e8" /><stop
         id="stop58"
         offset="0.273816"
         style="stop-opacity:1;stop-color:#3eb0e5" /><stop
         id="stop60"
         offset="0.49709"
         style="stop-opacity:1;stop-color:#349fd9" /><stop
         id="stop62"
         offset="0.726602"
         style="stop-opacity:1;stop-color:#3590cf" /><stop
         id="stop64"
         offset="1"
         style="stop-opacity:1;stop-color:#0073a1" /></linearGradient><clipPath
       id="clipPath76"
       clipPathUnits="userSpaceOnUse"><path
         id="path74"
         d="M 94.901,116.522 77.754,87.894 315.825,27.563 388.823,9.064 729.455,84.813 729.454,84.815 657.155,195.28 c -2.185,-3.104 -5.785,-4.932 -9.893,-4.932 v 0 h -24.581 c -0.417,0 -0.814,0.02 -1.213,0.039 v 0 l 55.489,-84.672 -291.218,-63.022 -258.616,65.65 50.857,84.858 c -4.332,1.892 -6.725,5.976 -6.725,11.844 v 0 38.944 z" /></clipPath><linearGradient
       id="linearGradient92"
       spreadMethod="pad"
       gradientTransform="matrix(651.7019,0,0,-651.7019,77.753365,126.52654)"
       gradientUnits="userSpaceOnUse"
       y2="0"
       x2="1"
       y1="0"
       x1="0"><stop
         id="stop82"
         offset="0"
         style="stop-opacity:1;stop-color:#3bb4e8" /><stop
         id="stop84"
         offset="0.273816"
         style="stop-opacity:1;stop-color:#3eb0e5" /><stop
         id="stop86"
         offset="0.49709"
         style="stop-opacity:1;stop-color:#349fd9" /><stop
         id="stop88"
         offset="0.726602"
         style="stop-opacity:1;stop-color:#3590cf" /><stop
         id="stop90"
         offset="1"
         style="stop-opacity:1;stop-color:#0073a1" /></linearGradient></defs><g
     transform="matrix(1.3333333,0,0,-1.3333333,0,816)"
     id="g10"><g
       id="g12"><g
         clip-path="url(#clipPath18)"
         id="g14"><g
           transform="translate(253.7316,330.2534)"
           id="g20"><path
             id="path22"
             style="fill:#2e64ae;fill-opacity:1;fill-rule:nonzero;stroke:none"
             d="m 0,0 -42.912,-79.784 v -45.412 c 0,-4.791 -2.292,-6.041 -6.041,-6.041 h -20.832 c -3.958,0 -6.041,1.25 -6.041,6.041 v 45.412 L -120.405,0 c -1.041,2.291 -0.625,5.833 3.333,5.833 h 23.956 c 4.791,0 6.875,-0.625 9.791,-6.25 l 24.373,-44.787 23.539,44.787 c 2.708,5.625 4.791,6.25 9.582,6.25 H -3.333 C 0.625,5.833 1.042,2.291 0,0" /></g><g
           transform="translate(65.8361,195.8911)"
           id="g24"><path
             id="path26"
             style="fill:#2e64ae;fill-opacity:1;fill-rule:nonzero;stroke:none"
             d="m 0,0 c -24.79,0 -55.828,14.374 -55.828,47.079 v 49.162 c 0,32.705 31.038,47.078 55.828,47.078 25.831,0 51.453,-13.123 54.161,-39.579 0,-5 -1.666,-6.041 -6.457,-6.041 H 27.706 c -4.375,0 -4.583,3.958 -6.25,6.458 -4.374,6.874 -10.207,9.999 -21.456,9.999 -13.749,0 -23.123,-7.708 -23.123,-20.832 V 49.995 c 0,-13.332 9.374,-20.831 23.123,-20.831 11.249,0 20.206,4.166 21.873,14.165 0.625,4.167 1.041,7.5 5.624,7.5 h 20.415 c 4.583,0 6.249,-2.084 6.249,-7.083 C 54.161,16.874 25.831,0 0,0" /></g><g
           transform="translate(323.3058,195.8911)"
           id="g28"><path
             id="path30"
             style="fill:#2e64ae;fill-opacity:1;fill-rule:nonzero;stroke:none"
             d="m 0,0 c -24.79,0 -55.828,14.374 -55.828,47.079 v 49.162 c 0,32.705 31.038,47.078 55.828,47.078 25.831,0 51.453,-13.123 54.161,-39.579 0,-5 -1.666,-6.041 -6.457,-6.041 H 27.706 c -4.375,0 -4.583,3.958 -6.25,6.458 -4.374,6.874 -10.207,9.999 -21.456,9.999 -13.749,0 -23.123,-7.708 -23.123,-20.832 V 49.995 c 0,-13.332 9.374,-20.831 23.123,-20.831 11.249,0 20.206,4.166 21.873,14.165 0.625,4.167 1.041,7.5 5.624,7.5 h 20.415 c 4.583,0 6.249,-2.084 6.249,-7.083 C 54.161,16.874 25.831,0 0,0" /></g><g
           transform="translate(478.4963,289.2154)"
           id="g32"><path
             id="path34"
             style="fill:#2e64ae;fill-opacity:1;fill-rule:nonzero;stroke:none"
             d="m 0,0 c 0,13.332 -9.582,21.04 -23.331,21.04 -13.54,0 -23.123,-7.708 -23.123,-21.04 v -43.329 c 0,-13.332 9.583,-21.039 23.123,-21.039 13.749,0 23.331,7.707 23.331,21.039 z m 32.705,-46.245 c 0,-32.913 -31.247,-47.079 -56.036,-47.079 -24.789,0 -55.62,14.166 -55.62,47.079 V 2.917 c 0,32.913 30.831,47.078 55.62,47.078 24.789,0 56.036,-14.165 56.036,-47.078 z" /></g><g
           transform="translate(647.0192,199.0161)"
           id="g36"><path
             id="path38"
             style="fill:#2e64ae;fill-opacity:1;fill-rule:nonzero;stroke:none"
             d="m 0,0 h -24.581 c -5,0 -7.5,1.875 -10.416,6.249 l -22.498,33.539 c -1.874,2.499 -2.291,4.791 -2.291,10.624 v 16.665 c 0,3.749 1.25,6.041 6.041,6.041 h 4.166 c 10.208,0 19.79,7.082 19.79,16.873 0,10.832 -8.333,17.707 -19.165,17.707 H -76.659 V 6.041 C -76.659,1.25 -78.951,0 -82.7,0 h -20.623 c -3.75,0 -5.833,1.25 -5.833,6.041 V 130.82 c 0,3.75 1.041,6.041 5.833,6.041 h 52.494 c 22.706,0 32.705,-4.583 41.455,-13.332 7.707,-7.499 12.082,-19.373 12.082,-32.705 0,-21.873 -16.04,-37.079 -28.956,-41.454 L 3.125,6.666 C 5,3.75 3.958,0 0,0" /></g><g
           transform="translate(782.0021,222.1392)"
           id="g40"><path
             id="path42"
             style="fill:#2e64ae;fill-opacity:1;fill-rule:nonzero;stroke:none"
             d="m 0,0 v -17.082 c 0,-3.75 -1.25,-6.041 -6.041,-6.041 h -93.324 c -4.791,0 -6.041,2.291 -6.041,6.041 v 124.988 c 0,3.749 1.25,6.041 6.041,6.041 h 89.783 c 4.791,0 6.041,-2.292 6.041,-6.041 v -17.29 c 0,-3.75 -1.25,-6.041 -6.041,-6.041 H -72.493 V 61.868 h 55.828 c 4.791,0 6.041,-2.291 6.041,-6.041 V 39.579 c 0,-3.75 -1.25,-6.041 -6.041,-6.041 H -72.493 V 6.041 H -6.041 C -1.25,6.041 0,3.749 0,0" /></g></g></g><g
       id="g44"><g
         clip-path="url(#clipPath50)"
         id="g46"><g
           id="g52"><g
             id="g54"><path
               id="path68"
               style="fill:url(#linearGradient66);stroke:none"
               d="m 230.607,343.075 h 20.14 c 3.882,0 7.215,-1.718 9.142,-4.713 v 0 c 1.08,-1.678 1.626,-3.672 1.659,-5.723 v 0 l 127.394,212.566 141.186,-215.44 c 0.234,8.426 5.35,13.445 13.811,13.445 v 0 h 16.396 l -152.662,233.248 0.134,0.224 -10.561,15.708 -8.892,13.584 -0.113,-0.192 -0.144,0.213 z" /></g></g></g></g><g
       id="g70"><g
         clip-path="url(#clipPath76)"
         id="g72"><g
           id="g78"><g
             id="g80"><path
               id="path94"
               style="fill:url(#linearGradient92);stroke:none"
               d="M 94.901,116.522 77.754,87.894 315.825,27.563 388.823,9.064 729.455,84.813 729.454,84.815 657.155,195.28 c -2.185,-3.104 -5.785,-4.932 -9.893,-4.932 v 0 h -24.581 c -0.417,0 -0.814,0.02 -1.213,0.039 v 0 l 55.489,-84.672 -291.218,-63.022 -258.616,65.65 50.857,84.858 c -4.332,1.892 -6.725,5.976 -6.725,11.844 v 0 38.944 z" /></g></g></g></g></g></svg>