<?xml version="1.0" encoding="UTF-8" standalone="no"?>
<!DOCTYPE svg PUBLIC "-//W3C//DTD SVG 1.1//EN" "http://www.w3.org/Graphics/SVG/1.1/DTD/svg11.dtd">
<svg xmlns="http://www.w3.org/2000/svg" xmlns:xlink="http://www.w3.org/1999/xlink" version="1.1" width="1254pt" height="220pt" viewBox="0 0 1254 220">
<g enable-background="new">
<g id="Layer-1" data-name="Layer 1">
<clipPath id="cp0">
<path transform="matrix(1,0,0,-1,0,220)" d="M 0 220 L 1254 220 L 1254 0 L 0 0 Z "/>
</clipPath>
<g clip-path="url(#cp0)">
<path transform="matrix(1,0,0,-1,699.7412,43.457994)" d="M 0 0 C -3.556 0 -6.741 -.555 -9.558 -1.665 C -12.373 -2.774 -14.808 -4.37 -16.862 -6.45 C -18.917 -8.531 -20.578 -11.027 -21.849 -13.939 C -23.119 -16.853 -23.96 -20.112 -24.376 -23.718 L 21.05 -23.718 C 21.05 -20.02 20.541 -16.703 19.527 -13.766 C 18.51 -10.831 17.079 -8.347 15.233 -6.311 C 13.387 -4.277 11.171 -2.717 8.585 -1.629 C 5.999 -.544 3.137 0 0 0 M -.103 4.924 C 3.782 4.924 7.375 4.253 10.682 2.912 C 13.987 1.571 16.854 -.382 19.282 -2.947 C 21.709 -5.513 23.604 -8.669 24.968 -12.414 C 26.332 -16.159 27.015 -20.458 27.015 -25.313 C 27.015 -26.331 26.863 -27.024 26.563 -27.394 C 26.263 -27.765 25.79 -27.949 25.145 -27.949 L -24.652 -27.949 L -24.652 -29.266 C -24.652 -34.445 -24.052 -38.999 -22.85 -42.929 C -21.648 -46.858 -19.937 -50.152 -17.717 -52.812 C -15.498 -55.471 -12.817 -57.47 -9.673 -58.811 C -6.528 -60.151 -3.015 -60.821 .868 -60.821 C 4.336 -60.821 7.342 -60.44 9.884 -59.678 C 12.427 -58.914 14.565 -58.059 16.299 -57.11 C 18.033 -56.164 19.408 -55.308 20.427 -54.545 C 21.442 -53.782 22.182 -53.4 22.646 -53.4 C 23.245 -53.4 23.708 -53.633 24.032 -54.094 L 25.835 -56.313 C 24.726 -57.7 23.257 -58.995 21.432 -60.197 C 19.604 -61.4 17.571 -62.429 15.328 -63.283 C 13.085 -64.14 10.682 -64.82 8.116 -65.329 C 5.55 -65.838 2.972 -66.093 .384 -66.093 C -4.333 -66.093 -8.632 -65.271 -12.516 -63.63 C -16.4 -61.99 -19.732 -59.597 -22.514 -56.452 C -25.296 -53.309 -27.445 -49.459 -28.964 -44.905 C -30.482 -40.352 -31.24 -35.139 -31.24 -29.266 C -31.24 -24.319 -30.536 -19.754 -29.126 -15.569 C -27.716 -11.386 -25.682 -7.779 -23.022 -4.75 C -20.365 -1.723 -17.104 .647 -13.244 2.358 C -9.384 4.068 -5.004 4.924 -.103 4.924 " fill="#131f34"/>
<path transform="matrix(1,0,0,-1,914.1758,108.6484)" d="M 0 0 L 0 69.005 L 3.468 69.005 C 4.254 69.005 4.821 68.842 5.168 68.52 C 5.515 68.195 5.711 67.641 5.757 66.855 L 6.312 52.292 C 8.531 57.884 11.489 62.266 15.188 65.433 C 18.888 68.6 23.441 70.183 28.852 70.183 C 30.933 70.183 32.851 69.964 34.607 69.525 C 36.364 69.085 38.028 68.45 39.602 67.618 L 38.699 63.041 C 38.561 62.3 38.098 61.932 37.313 61.932 C 37.034 61.932 36.642 62.023 36.134 62.208 C 35.624 62.392 34.989 62.601 34.227 62.833 C 33.463 63.064 32.526 63.271 31.417 63.457 C 30.308 63.641 29.036 63.734 27.603 63.734 C 22.377 63.734 18.09 62.116 14.737 58.88 C 11.385 55.643 8.669 50.974 6.589 44.87 L 6.589 0 Z " fill="#131f34"/>
<path transform="matrix(1,0,0,-1,1009.3955,104.3496)" d="M 0 0 C 4.114 0 7.708 .705 10.784 2.116 C 13.857 3.526 16.425 5.549 18.482 8.185 C 20.538 10.82 22.077 13.998 23.095 17.721 C 24.11 21.441 24.619 25.614 24.619 30.239 C 24.619 34.816 24.11 38.977 23.095 42.722 C 22.077 46.466 20.538 49.668 18.482 52.327 C 16.425 54.985 13.857 57.031 10.784 58.464 C 7.708 59.897 4.114 60.614 0 60.614 C -4.115 60.614 -7.71 59.897 -10.784 58.464 C -13.859 57.031 -16.426 54.985 -18.482 52.327 C -20.54 49.668 -22.089 46.466 -23.129 42.722 C -24.169 38.977 -24.689 34.816 -24.689 30.239 C -24.689 25.614 -24.169 21.441 -23.129 17.721 C -22.089 13.998 -20.54 10.82 -18.482 8.185 C -16.426 5.549 -13.859 3.526 -10.784 2.116 C -7.71 .705 -4.115 0 0 0 M 0 65.815 C 4.946 65.815 9.373 64.972 13.281 63.284 C 17.187 61.596 20.481 59.204 23.163 56.106 C 25.844 53.008 27.891 49.275 29.301 44.906 C 30.711 40.537 31.417 35.647 31.417 30.239 C 31.417 24.829 30.711 19.95 29.301 15.604 C 27.891 11.259 25.844 7.537 23.163 4.439 C 20.481 1.342 17.187 -1.04 13.281 -2.703 C 9.373 -4.368 4.946 -5.201 0 -5.201 C -4.948 -5.201 -9.375 -4.368 -13.281 -2.703 C -17.187 -1.04 -20.493 1.342 -23.198 4.439 C -25.903 7.537 -27.96 11.259 -29.37 15.604 C -30.782 19.95 -31.486 24.829 -31.486 30.239 C -31.486 35.647 -30.782 40.537 -29.37 44.906 C -27.96 49.275 -25.903 53.008 -23.198 56.106 C -20.493 59.204 -17.187 61.596 -13.281 63.284 C -9.375 64.972 -4.948 65.815 0 65.815 " fill="#131f34"/>
<path transform="matrix(1,0,0,-1,1100.9385,43.804704)" d="M 0 0 C -4.577 0 -8.728 -1.19 -12.45 -3.572 C -16.172 -5.953 -19.466 -9.271 -22.332 -13.523 L -22.332 -49.725 C -19.696 -53.701 -16.773 -56.499 -13.56 -58.117 C -10.347 -59.736 -6.683 -60.545 -2.567 -60.545 C 1.502 -60.545 5.062 -59.805 8.113 -58.324 C 11.165 -56.846 13.72 -54.753 15.777 -52.049 C 17.833 -49.344 19.383 -46.108 20.423 -42.34 C 21.464 -38.571 21.983 -34.423 21.983 -29.891 C 21.983 -19.627 20.1 -12.08 16.331 -7.247 C 12.563 -2.417 7.119 0 0 0 M -28.921 -89.255 L -28.921 4.161 L -25.313 4.161 C -24.714 4.161 -24.229 4.034 -23.857 3.779 C -23.488 3.524 -23.28 3.075 -23.233 2.427 L -22.608 -8.253 C -19.559 -4.092 -15.986 -.787 -11.895 1.665 C -7.803 4.115 -3.215 5.339 1.871 5.339 C 10.378 5.339 16.991 2.403 21.706 -3.468 C 26.422 -9.339 28.78 -18.148 28.78 -29.891 C 28.78 -34.931 28.121 -39.635 26.805 -44.003 C 25.486 -48.373 23.555 -52.164 21.013 -55.377 C 18.47 -58.592 15.337 -61.123 11.616 -62.972 C 7.894 -64.82 3.605 -65.746 -1.249 -65.746 C -5.965 -65.746 -10.033 -64.89 -13.455 -63.179 C -16.876 -61.47 -19.835 -58.926 -22.332 -55.551 L -22.332 -89.255 Z " fill="#131f34"/>
<path transform="matrix(1,0,0,-1,1186.2031,43.457994)" d="M 0 0 C -3.556 0 -6.742 -.555 -9.558 -1.665 C -12.374 -2.774 -14.808 -4.37 -16.863 -6.45 C -18.918 -8.531 -20.578 -11.027 -21.849 -13.939 C -23.119 -16.853 -23.961 -20.112 -24.376 -23.718 L 21.049 -23.718 C 21.049 -20.02 20.541 -16.703 19.526 -13.766 C 18.509 -10.831 17.079 -8.347 15.232 -6.311 C 13.387 -4.277 11.171 -2.717 8.585 -1.629 C 5.999 -.544 3.137 0 0 0 M -.104 4.924 C 3.781 4.924 7.375 4.253 10.682 2.912 C 13.986 1.571 16.854 -.382 19.281 -2.947 C 21.709 -5.513 23.604 -8.669 24.968 -12.414 C 26.332 -16.159 27.015 -20.458 27.015 -25.313 C 27.015 -26.331 26.862 -27.024 26.563 -27.394 C 26.263 -27.765 25.79 -27.949 25.144 -27.949 L -24.652 -27.949 L -24.652 -29.266 C -24.652 -34.445 -24.053 -38.999 -22.85 -42.929 C -21.648 -46.858 -19.937 -50.152 -17.718 -52.812 C -15.499 -55.471 -12.818 -57.47 -9.673 -58.811 C -6.529 -60.151 -3.016 -60.821 .868 -60.821 C 4.336 -60.821 7.341 -60.44 9.884 -59.678 C 12.426 -58.914 14.564 -58.059 16.299 -57.11 C 18.032 -56.164 19.407 -55.308 20.426 -54.545 C 21.441 -53.782 22.182 -53.4 22.645 -53.4 C 23.245 -53.4 23.708 -53.633 24.031 -54.094 L 25.835 -56.313 C 24.726 -57.7 23.257 -58.995 21.431 -60.197 C 19.604 -61.4 17.57 -62.429 15.327 -63.283 C 13.084 -64.14 10.682 -64.82 8.116 -65.329 C 5.549 -65.838 2.972 -66.093 .383 -66.093 C -4.333 -66.093 -8.633 -65.271 -12.517 -63.63 C -16.401 -61.99 -19.733 -59.597 -22.514 -56.452 C -25.296 -53.309 -27.445 -49.459 -28.964 -44.905 C -30.482 -40.352 -31.241 -35.139 -31.241 -29.266 C -31.241 -24.319 -30.537 -19.754 -29.127 -15.569 C -27.717 -11.386 -25.683 -7.779 -23.023 -4.75 C -20.365 -1.723 -17.105 .647 -13.245 2.358 C -9.385 4.068 -5.004 4.924 -.104 4.924 " fill="#131f34"/>
<path transform="matrix(1,0,0,-1,882.2383,69.691898)" d="M 0 0 C 0 -34.473 -27.945 -62.419 -62.419 -62.419 C -96.893 -62.419 -124.838 -34.473 -124.838 0 C -124.838 34.473 -96.893 62.419 -62.419 62.419 C -27.945 62.419 0 34.473 0 0 " fill="#ed7f22"/>
<path transform="matrix(1,0,0,-1,844.3838,41.974596)" d="M 0 0 C 0 1.882 -1.522 3.41 -3.401 3.41 C -5.28 3.41 -6.803 1.882 -6.803 0 L -6.819 0 L -6.819 -40.349 C -6.819 -43.098 -7.238 -45.698 -8.065 -48.076 C -8.874 -50.405 -10.059 -52.462 -11.581 -54.184 C -13.09 -55.88 -14.961 -57.239 -17.145 -58.224 C -19.311 -59.203 -21.849 -59.699 -24.689 -59.699 C -27.527 -59.699 -30.076 -59.202 -32.262 -58.223 C -34.455 -57.238 -36.329 -55.874 -37.831 -54.172 C -39.358 -52.432 -40.545 -50.361 -41.354 -48.015 C -42.182 -45.622 -42.603 -43.015 -42.603 -40.264 L -42.603 -.259 C -42.595 -.172 -42.576 -.089 -42.576 0 C -42.576 1.882 -44.1 3.41 -45.979 3.41 C -47.855 3.41 -49.379 1.882 -49.379 0 L -49.379 -.002 L -49.379 -40.349 C -49.379 -43.895 -48.81 -47.269 -47.686 -50.379 C -46.547 -53.523 -44.894 -56.304 -42.773 -58.646 C -40.638 -61.003 -38.008 -62.884 -34.961 -64.235 C -31.919 -65.59 -28.463 -66.276 -24.689 -66.276 C -20.912 -66.276 -17.463 -65.589 -14.439 -64.235 C -11.405 -62.883 -8.778 -61.005 -6.632 -58.652 C -4.495 -56.31 -2.835 -53.525 -1.692 -50.378 C -.569 -47.269 0 -43.895 0 -40.349 Z " fill="#ffffff"/>
<path transform="matrix(1,0,0,-1,844.3838,41.974596)" stroke-width="1.168" stroke-linecap="butt" stroke-miterlimit="10" stroke-linejoin="miter" fill="none" stroke="#ffffff" d="M 0 0 C 0 1.882 -1.522 3.41 -3.401 3.41 C -5.28 3.41 -6.803 1.882 -6.803 0 L -6.819 0 L -6.819 -40.349 C -6.819 -43.098 -7.238 -45.698 -8.065 -48.076 C -8.874 -50.405 -10.059 -52.462 -11.581 -54.184 C -13.09 -55.88 -14.961 -57.239 -17.145 -58.224 C -19.311 -59.203 -21.849 -59.699 -24.689 -59.699 C -27.527 -59.699 -30.076 -59.202 -32.262 -58.223 C -34.455 -57.238 -36.329 -55.874 -37.831 -54.172 C -39.358 -52.432 -40.545 -50.361 -41.354 -48.015 C -42.182 -45.622 -42.603 -43.015 -42.603 -40.264 L -42.603 -.259 C -42.595 -.172 -42.576 -.089 -42.576 0 C -42.576 1.882 -44.1 3.41 -45.979 3.41 C -47.855 3.41 -49.379 1.882 -49.379 0 L -49.379 -.002 L -49.379 -40.349 C -49.379 -43.895 -48.81 -47.269 -47.686 -50.379 C -46.547 -53.523 -44.894 -56.304 -42.773 -58.646 C -40.638 -61.003 -38.008 -62.884 -34.961 -64.235 C -31.919 -65.59 -28.463 -66.276 -24.689 -66.276 C -20.912 -66.276 -17.463 -65.589 -14.439 -64.235 C -11.405 -62.883 -8.778 -61.005 -6.632 -58.652 C -4.495 -56.31 -2.835 -53.525 -1.692 -50.378 C -.569 -47.269 0 -43.895 0 -40.349 L 0 0 Z "/>
<path transform="matrix(1,0,0,-1,51.9077,108.6484)" d="M 0 0 L 0 61.792 L -9.709 62.417 C -11.051 62.509 -11.721 63.085 -11.721 64.15 L -11.721 66.855 L 0 66.855 L 0 72.762 C 0 77.025 .624 80.858 1.872 84.264 C 3.121 87.667 4.935 90.565 7.316 92.95 C 9.697 95.337 12.598 97.166 16.02 98.44 C 19.44 99.715 23.347 100.352 27.74 100.352 C 29.266 100.352 30.849 100.219 32.491 99.952 C 34.131 99.685 35.507 99.31 36.617 98.826 L 36.34 95.497 C 36.293 95.035 35.969 94.803 35.369 94.803 C 34.86 94.803 34.109 94.884 33.115 95.047 C 32.12 95.208 30.861 95.29 29.335 95.29 C 22.03 95.29 16.39 93.416 12.414 89.672 C 8.437 85.927 6.449 80.216 6.449 72.542 L 6.449 66.855 L 46.881 66.855 L 46.881 0 L 40.293 0 L 40.293 61.932 L 6.588 61.932 L 6.588 0 Z " fill="#131f34"/>
<path transform="matrix(1,0,0,-1,137.1392,108.6484)" d="M 0 0 L 0 69.005 L 3.467 69.005 C 4.253 69.005 4.82 68.842 5.167 68.52 C 5.514 68.195 5.709 67.641 5.756 66.855 L 6.311 52.292 C 8.53 57.884 11.488 62.266 15.188 65.433 C 18.886 68.6 23.44 70.183 28.85 70.183 C 30.931 70.183 32.849 69.964 34.606 69.525 C 36.363 69.085 38.027 68.45 39.6 67.618 L 38.698 63.041 C 38.559 62.3 38.097 61.932 37.311 61.932 C 37.033 61.932 36.641 62.023 36.132 62.208 C 35.623 62.392 34.988 62.601 34.225 62.833 C 33.462 63.064 32.525 63.271 31.416 63.457 C 30.307 63.641 29.034 63.734 27.602 63.734 C 22.376 63.734 18.089 62.116 14.737 58.88 C 11.384 55.643 8.669 50.974 6.588 44.87 L 6.588 0 Z " fill="#131f34"/>
<path transform="matrix(1,0,0,-1,244.0776,48.2437)" d="M 0 0 C -.324 -.647 -.833 -.971 -1.526 -.971 C -2.035 -.971 -2.694 -.683 -3.502 -.104 C -4.312 .474 -5.375 1.121 -6.693 1.838 C -8.01 2.555 -9.629 3.201 -11.547 3.781 C -13.466 4.358 -15.812 4.647 -18.586 4.647 C -21.083 4.647 -23.361 4.29 -25.418 3.575 C -27.476 2.86 -29.232 1.902 -30.688 .703 C -32.145 -.494 -33.278 -1.889 -34.087 -3.479 C -34.896 -5.071 -35.3 -6.743 -35.3 -8.496 C -35.3 -10.663 -34.745 -12.461 -33.636 -13.891 C -32.526 -15.319 -31.07 -16.541 -29.267 -17.556 C -27.463 -18.569 -25.418 -19.447 -23.129 -20.184 C -20.84 -20.922 -18.494 -21.661 -16.09 -22.4 C -13.687 -23.14 -11.339 -23.96 -9.05 -24.862 C -6.762 -25.764 -4.716 -26.886 -2.913 -28.225 C -1.109 -29.568 .347 -31.208 1.456 -33.149 C 2.566 -35.091 3.121 -37.45 3.121 -40.224 C 3.121 -43.229 2.577 -46.027 1.491 -48.615 C .404 -51.205 -1.168 -53.447 -3.225 -55.341 C -5.283 -57.238 -7.814 -58.74 -10.819 -59.849 C -13.825 -60.96 -17.246 -61.514 -21.083 -61.514 C -25.938 -61.514 -30.123 -60.74 -33.636 -59.191 C -37.15 -57.643 -40.293 -55.62 -43.067 -53.123 L -41.472 -50.765 C -41.241 -50.395 -40.987 -50.119 -40.71 -49.933 C -40.432 -49.749 -40.04 -49.656 -39.531 -49.656 C -38.931 -49.656 -38.19 -50.027 -37.311 -50.765 C -36.434 -51.505 -35.29 -52.302 -33.878 -53.158 C -32.469 -54.014 -30.712 -54.811 -28.608 -55.55 C -26.504 -56.29 -23.903 -56.66 -20.806 -56.66 C -17.893 -56.66 -15.327 -56.256 -13.108 -55.446 C -10.889 -54.637 -9.04 -53.539 -7.56 -52.152 C -6.081 -50.765 -4.959 -49.135 -4.196 -47.263 C -3.433 -45.39 -3.052 -43.414 -3.052 -41.333 C -3.052 -39.022 -3.606 -37.103 -4.716 -35.577 C -5.826 -34.051 -7.282 -32.757 -9.085 -31.693 C -10.889 -30.629 -12.935 -29.729 -15.223 -28.988 C -17.512 -28.25 -19.87 -27.509 -22.297 -26.769 C -24.724 -26.03 -27.082 -25.221 -29.37 -24.342 C -31.66 -23.464 -33.705 -22.355 -35.508 -21.013 C -37.311 -19.673 -38.768 -18.043 -39.877 -16.124 C -40.987 -14.206 -41.542 -11.813 -41.542 -8.946 C -41.542 -6.496 -41.011 -4.138 -39.946 -1.872 C -38.884 .393 -37.37 2.381 -35.404 4.092 C -33.439 5.802 -31.047 7.167 -28.227 8.184 C -25.407 9.2 -22.239 9.709 -18.725 9.709 C -14.519 9.709 -10.784 9.1 -7.524 7.882 C -4.266 6.663 -1.272 4.799 1.456 2.29 Z " fill="#131f34"/>
<path transform="matrix(1,0,0,-1,298.3789,109.7578)" d="M 0 0 C -4.67 0 -8.299 1.294 -10.888 3.884 C -13.478 6.472 -14.771 10.472 -14.771 15.882 L -14.771 63.041 L -24.689 63.041 C -25.198 63.041 -25.615 63.179 -25.937 63.457 C -26.261 63.734 -26.422 64.126 -26.422 64.635 L -26.422 67.202 L -14.633 68.034 L -12.986 92.723 C -12.94 93.139 -12.769 93.508 -12.472 93.832 C -12.175 94.156 -11.774 94.318 -11.27 94.318 L -8.183 94.318 L -8.183 67.965 L 13.524 67.965 L 13.524 63.041 L -8.183 63.041 L -8.183 16.229 C -8.183 14.332 -7.941 12.701 -7.455 11.339 C -6.97 9.975 -6.3 8.854 -5.444 7.976 C -4.589 7.097 -3.583 6.449 -2.427 6.033 C -1.272 5.617 -.023 5.408 1.318 5.408 C 2.982 5.408 4.415 5.652 5.618 6.138 C 6.819 6.622 7.86 7.153 8.739 7.733 C 9.617 8.31 10.334 8.843 10.889 9.327 C 11.443 9.813 11.882 10.056 12.207 10.056 C 12.576 10.056 12.945 9.824 13.316 9.362 L 15.119 6.449 C 13.361 4.508 11.131 2.947 8.427 1.768 C 5.722 .589 2.913 0 0 0 " fill="#131f34"/>
<path transform="matrix(1,0,0,-1,388.3271,48.867708)" d="M 0 0 C -.232 -.232 -.451 -.428 -.659 -.589 C -.867 -.752 -1.156 -.832 -1.526 -.832 C -1.989 -.832 -2.625 -.521 -3.433 .104 C -4.243 .729 -5.317 1.41 -6.658 2.151 C -8 2.889 -9.675 3.572 -11.687 4.196 C -13.697 4.821 -16.137 5.132 -19.003 5.132 C -22.979 5.132 -26.505 4.426 -29.579 3.018 C -32.654 1.606 -35.243 -.416 -37.347 -3.051 C -39.451 -5.687 -41.057 -8.876 -42.166 -12.622 C -43.276 -16.367 -43.831 -20.574 -43.831 -25.243 C -43.831 -30.098 -43.265 -34.398 -42.131 -38.144 C -40.999 -41.887 -39.392 -45.043 -37.311 -47.609 C -35.23 -50.176 -32.711 -52.129 -29.752 -53.47 C -26.794 -54.811 -23.511 -55.482 -19.904 -55.482 C -16.576 -55.482 -13.791 -55.088 -11.547 -54.302 C -9.305 -53.516 -7.456 -52.662 -6 -51.736 C -4.542 -50.811 -3.388 -49.957 -2.532 -49.169 C -1.676 -48.384 -.995 -47.991 -.486 -47.991 C .114 -47.991 .578 -48.223 .901 -48.684 L 2.704 -50.903 C 1.64 -52.291 .3 -53.585 -1.318 -54.788 C -2.937 -55.991 -4.763 -57.031 -6.796 -57.909 C -8.832 -58.787 -11.039 -59.469 -13.42 -59.955 C -15.801 -60.439 -18.286 -60.683 -20.875 -60.683 C -25.268 -60.683 -29.279 -59.885 -32.908 -58.29 C -36.538 -56.695 -39.659 -54.383 -42.27 -51.354 C -44.883 -48.327 -46.917 -44.617 -48.373 -40.224 C -49.83 -35.832 -50.558 -30.838 -50.558 -25.243 C -50.558 -19.973 -49.864 -15.166 -48.477 -10.819 C -47.09 -6.474 -45.068 -2.728 -42.409 .417 C -39.751 3.56 -36.491 5.999 -32.63 7.733 C -28.771 9.467 -24.343 10.333 -19.35 10.333 C -14.865 10.333 -10.877 9.617 -7.386 8.184 C -3.896 6.751 -.856 4.809 1.734 2.358 Z " fill="#131f34"/>
<path transform="matrix(1,0,0,-1,446.1641,104.3496)" d="M 0 0 C 4.115 0 7.709 .705 10.785 2.116 C 13.859 3.526 16.425 5.549 18.482 8.185 C 20.539 10.82 22.077 13.998 23.095 17.721 C 24.11 21.441 24.62 25.614 24.62 30.239 C 24.62 34.816 24.11 38.977 23.095 42.722 C 22.077 46.466 20.539 49.668 18.482 52.327 C 16.425 54.985 13.859 57.031 10.785 58.464 C 7.709 59.897 4.115 60.614 0 60.614 C -4.115 60.614 -7.71 59.897 -10.784 58.464 C -13.86 57.031 -16.425 54.985 -18.482 52.327 C -20.54 49.668 -22.088 46.466 -23.129 42.722 C -24.169 38.977 -24.689 34.816 -24.689 30.239 C -24.689 25.614 -24.169 21.441 -23.129 17.721 C -22.088 13.998 -20.54 10.82 -18.482 8.185 C -16.425 5.549 -13.86 3.526 -10.784 2.116 C -7.71 .705 -4.115 0 0 0 M 0 65.815 C 4.947 65.815 9.373 64.972 13.281 63.284 C 17.187 61.596 20.481 59.204 23.164 56.106 C 25.844 53.008 27.89 49.275 29.301 44.906 C 30.711 40.537 31.417 35.647 31.417 30.239 C 31.417 24.829 30.711 19.95 29.301 15.604 C 27.89 11.259 25.844 7.537 23.164 4.439 C 20.481 1.342 17.187 -1.04 13.281 -2.703 C 9.373 -4.368 4.947 -5.201 0 -5.201 C -4.948 -5.201 -9.374 -4.368 -13.281 -2.703 C -17.188 -1.04 -20.494 1.342 -23.198 4.439 C -25.903 7.537 -27.96 11.259 -29.37 15.604 C -30.781 19.95 -31.485 24.829 -31.485 30.239 C -31.485 35.647 -30.781 40.537 -29.37 44.906 C -27.96 49.275 -25.903 53.008 -23.198 56.106 C -20.494 59.204 -17.188 61.596 -13.281 63.284 C -9.374 64.972 -4.948 65.815 0 65.815 " fill="#131f34"/>
<path transform="matrix(1,0,0,-1,508.7861,108.6484)" d="M 0 0 L 0 69.005 L 3.607 69.005 C 4.809 69.005 5.502 68.426 5.688 67.271 L 6.312 57.284 C 7.652 59.179 9.086 60.913 10.611 62.485 C 12.137 64.057 13.768 65.41 15.501 66.542 C 17.235 67.675 19.083 68.554 21.049 69.178 C 23.014 69.803 25.082 70.114 27.256 70.114 C 32.295 70.114 36.318 68.646 39.323 65.71 C 42.328 62.774 44.362 58.694 45.426 53.47 C 46.256 56.336 47.422 58.811 48.923 60.891 C 50.422 62.972 52.143 64.693 54.081 66.058 C 56.02 67.42 58.131 68.438 60.417 69.109 C 62.701 69.778 65.044 70.114 67.445 70.114 C 70.861 70.114 73.93 69.548 76.656 68.416 C 79.378 67.282 81.697 65.606 83.612 63.388 C 85.529 61.167 86.993 58.439 88.011 55.204 C 89.025 51.968 89.534 48.269 89.534 44.107 L 89.534 0 L 82.946 0 L 82.946 44.107 C 82.946 50.857 81.488 56.001 78.576 59.538 C 75.664 63.075 71.503 64.844 66.093 64.844 C 63.688 64.844 61.387 64.403 59.193 63.526 C 56.996 62.647 55.054 61.341 53.367 59.607 C 51.678 57.874 50.338 55.711 49.344 53.123 C 48.35 50.533 47.853 47.529 47.853 44.107 L 47.853 0 L 41.265 0 L 41.265 44.107 C 41.265 50.811 39.923 55.943 37.243 59.504 C 34.561 63.064 30.654 64.844 25.522 64.844 C 21.777 64.844 18.31 63.722 15.12 61.48 C 11.93 59.237 9.086 56.129 6.588 52.152 L 6.588 0 Z " fill="#131f34"/>
</g>
<symbol id="font_1_5c">
<path d="M .1785 .016000003 C .17650001 .011333336 .17383333 .0075000028 .1705 .0045000019 C .1675 .0015000006 .163 0 .157 0 L .123 0 L .2105 .19450002 L 0 .67350009 L .0395 .67350009 C .044500006 .67350009 .048333337 .67216679 .051000004 .66950008 C .054 .6671667 .056166669 .6645 .057500006 .66150006 L .22500001 .2745 C .227 .26950003 .22866667 .26433335 .23 .259 C .23166667 .254 .23316668 .24883335 .2345 .24350003 C .23616667 .24883335 .23783334 .254 .23950002 .259 C .24150002 .26433335 .2435 .26950003 .2455 .2745 L .411 .66150006 C .41266669 .6651667 .415 .66800007 .418 .67 C .421 .6723334 .42433334 .67350009 .428 .67350009 L .4645 .67350009 L .1785 .016000003 Z "/>
</symbol>
<symbol id="font_1_52">
<path d="M .227 .512 C .26266668 .512 .2945 .5058333 .32250003 .49350003 C .35083334 .48150004 .3746667 .4643334 .39400003 .44200004 C .41333334 .41966669 .428 .3926667 .43800003 .36100004 C .44833336 .3296667 .4535 .29450003 .4535 .25550003 C .4535 .2165 .44833336 .18133335 .43800003 .15 C .428 .11866667 .41333334 .09183333 .39400003 .0695 C .3746667 .047166666 .35083334 .030000002 .32250003 .018000002 C .2945 .0060000007 .26266668 0 .227 0 C .19133334 0 .15933334 .0060000007 .131 .018000002 C .10300001 .030000002 .07916667 .047166666 .059500006 .0695 C .040166666 .09183333 .025333332 .11866667 .015000001 .15 C .0050000005 .18133335 0 .2165 0 .25550003 C 0 .29450003 .0050000005 .3296667 .015000001 .36100004 C .025333332 .3926667 .040166666 .41966669 .059500006 .44200004 C .07916667 .4643334 .10300001 .48150004 .131 .49350003 C .15933334 .5058333 .19133334 .512 .227 .512 M .227 .0375 C .2566667 .0375 .28250004 .0425 .3045 .052500003 C .32683335 .06283334 .34533335 .07750001 .36 .0965 C .375 .11550001 .3861667 .13833334 .3935 .165 C .40083335 .19200002 .4045 .2221667 .4045 .25550003 C .4045 .2885 .40083335 .3185 .3935 .34550003 C .3861667 .37250004 .375 .39550004 .36 .41450004 C .34533335 .43383337 .32683335 .4486667 .3045 .45900003 C .28250004 .46933339 .2566667 .47450004 .227 .47450004 C .19733334 .47450004 .17133333 .46933339 .149 .45900003 C .12699999 .4486667 .108500007 .43383337 .0935 .41450004 C .078833337 .39550004 .06766667 .37250004 .060000007 .34550003 C .052666669 .3185 .049 .2885 .049 .25550003 C .049 .2221667 .052666669 .19200002 .060000007 .165 C .06766667 .13833334 .078833337 .11550001 .0935 .0965 C .108500007 .07750001 .12699999 .06283334 .149 .052500003 C .17133333 .0425 .19733334 .0375 .227 .0375 Z "/>
</symbol>
<symbol id="font_1_58">
<path d="M .048 .5055 L .048 .18750002 C .047999998 .14083334 .058666666 .10416668 .080000009 .07750001 C .10133334 .051166674 .13383335 .038000004 .17750001 .038000004 C .20983334 .038000004 .24000001 .04616667 .268 .0625 C .296 .07916667 .32116667 .102166678 .34350003 .1315 L .34350003 .5055 L .3915 .5055 L .3915 .008 L .365 .008 C .35566668 .008 .35083334 .0123333339 .35050003 .021000002 L .34600003 .095000009 C .323 .06633334 .29633335 .043333338 .266 .026 C .23600002 .008666667 .20250003 0 .16550002 0 C .13783334 0 .113666679 .0043333338 .093 .013 C .072333339 .021666667 .055166667 .034166669 .041500004 .0505 C .027833334 .06683334 .017499999 .08650001 .010499999 .109500009 C .0034999997 .13250001 0 .15850002 0 .18750002 L 0 .5055 L .048 .5055 Z "/>
</symbol>
<symbol id="font_1_55">
<path d="M 0 0 L 0 .49750004 L .025000006 .49750004 C .030666674 .49750004 .034666677 .49633337 .037000009 .49400003 C .039666676 .4916667 .041166676 .4876667 .041500004 .48200003 L .04550001 .377 C .061500014 .41733337 .08283334 .44883336 .109500009 .4715 C .13616668 .49450005 .16900002 .50600007 .208 .50600007 C .223 .50600007 .23683334 .5043334 .2495 .50100007 C .2621667 .49800004 .2741667 .4935 .28550003 .4875 L .279 .45450003 C .278 .4491667 .27466668 .44650004 .26900003 .44650004 C .267 .44650004 .26416669 .44716669 .2605 .4485 C .25683335 .44983337 .2521667 .45133338 .24650002 .453 C .2411667 .4546667 .2345 .4561667 .2265 .4575 C .21850002 .45883335 .20933335 .45949999 .199 .4595 C .16133334 .45949999 .13033335 .44783334 .106000009 .42450003 C .08200001 .40116669 .06250001 .36750005 .0475 .3235 L .0475 0 L 0 0 Z "/>
</symbol>
<symbol id="font_1_3">
<path d="M 0 0 Z "/>
</symbol>
<symbol id="font_1_53">
<path d="M 0 0 L 0 .67350009 L .026000008 .67350009 C .03033334 .67350009 .03383334 .6725001 .036500008 .67050006 C .039166675 .66883346 .040666675 .6656667 .04100001 .661 L .04550001 .58400008 C .0675 .614 .09316667 .63783338 .1225 .65550008 C .15216668 .67316678 .18533333 .682 .222 .68200007 C .28333334 .682 .331 .66083338 .365 .61850008 C .39900003 .5761667 .416 .5126667 .416 .42800004 C .416 .39166669 .41116668 .3576667 .40150003 .32600004 C .3921667 .29466669 .37833334 .26733337 .36 .24400002 C .3416667 .22100002 .319 .20283336 .29200004 .18950002 C .26533333 .17616667 .2345 .16950001 .19950003 .16950001 C .16550002 .16950001 .13616668 .17566668 .11150001 .18800001 C .086833339 .20033336 .065500009 .21866669 .0475 .24300002 L .0475 0 L 0 0 M .20850003 .64350005 C .17550002 .64350005 .1455 .63483336 .11850001 .6175 C .09183333 .60050007 .068166669 .57666668 .0475 .546 L .0475 .28500004 C .0665 .25633336 .087500009 .23616667 .11050001 .22450002 C .13383334 .21283335 .16033335 .20700002 .19000003 .20700002 C .21933337 .20700002 .24500002 .21233337 .26700003 .22300002 C .289 .2336667 .30733336 .24866669 .32200004 .268 C .337 .28766669 .34816668 .31100003 .3555 .338 C .3631667 .36533333 .367 .39533339 .367 .42800004 C .367 .50200006 .35333336 .55633339 .326 .591 C .29900003 .626 .25983338 .64350005 .20850003 .64350005 Z "/>
</symbol>
<symbol id="font_1_4f">
<path d="M .047500008 .7275 L .047500008 0 L 0 0 L 0 .7275 L .047500008 .7275 Z "/>
</symbol>
<symbol id="font_1_44">
<path d="M .34500004 .008 C .33500005 .008 .32883335 .012666668 .32650004 .022 L .31950004 .0855 C .30583338 .07216667 .29216669 .06016667 .27850003 .049500005 C .26516668 .038833336 .25116668 .029833334 .23650003 .0225 C .22183335 .015166667 .20600002 .009666667 .18900001 .006 C .172 .002 .15333335 0 .13300002 0 C .11600002 0 .09950001 .0025000002 .083500009 .0075000005 C .0675 .0125 .05333333 .020166668 .041 .030500003 C .028666668 .040833337 .018666668 .054 .011 .07 C .0036666666 .086333338 0 .10583333 0 .1285 C 0 .14950001 .0059999998 .16900002 .018 .187 C .03 .205 .048666669 .22066669 .07400001 .23400001 C .09966668 .24733335 .13250001 .25800003 .17250002 .266 C .21283335 .27400003 .2611667 .27866666 .31750003 .28 L .31750003 .332 C .31750003 .378 .30750004 .41333334 .28750003 .438 C .26783336 .46300004 .23850002 .47550003 .19950003 .47550003 C .17550002 .47550003 .15500002 .4721667 .13800001 .4655 C .12133334 .45883335 .10716667 .45150004 .0955 .4435 C .08383334 .43550004 .07433333 .42816667 .067 .4215 C .059666668 .41483335 .0535 .4115 .0485 .4115 C .041833339 .4115 .036833336 .4145 .0335 .4205 L .024999999 .435 C .051 .461 .07833334 .48066668 .107 .49400003 C .13566667 .50733336 .16816668 .51400008 .20450002 .51400008 C .23116668 .51400008 .2545 .50966677 .2745 .50100007 C .29450003 .4926667 .31100003 .48049999 .32400004 .4645 C .33733336 .44883336 .34733335 .42966668 .35400004 .407 C .36066667 .38466669 .364 .35966669 .36400003 .332 L .36400003 .008 L .34500004 .008 M .14500001 .034500004 C .16433333 .034500004 .182 .036500005 .19800002 .040500005 C .21433336 .044833337 .22933336 .05066667 .24300003 .058000003 C .25700004 .06566667 .27 .07466667 .282 .08500001 C .294 .09533334 .30583335 .10650001 .31750003 .11850001 L .31750003 .24800001 C .27016668 .24666667 .22933334 .24300002 .195 .23700002 C .161 .23133333 .13283333 .22350002 .1105 .21350001 C .0885 .20350002 .072166677 .19150001 .061499999 .17750001 C .05116667 .16383334 .046000005 .14816667 .046000005 .1305 C .046000005 .11383334 .048666669 .09933334 .053999999 .087000008 C .059666665 .07500001 .067 .065000008 .076 .057000005 C .085 .049333335 .0955 .043666673 .10750001 .040000004 C .119500007 .036333339 .132 .034500004 .14500001 .034500004 Z "/>
</symbol>
<symbol id="font_1_46">
<path d="M .36450003 .43750004 C .36283336 .43583337 .3611667 .43433336 .35950003 .43300004 C .3581667 .432 .3561667 .43150006 .3535 .43150003 C .35016669 .43150006 .3455 .4336667 .3395 .43800003 C .33383338 .44266669 .3261667 .44766668 .3165 .45300005 C .30683337 .45833338 .29466669 .4631667 .28 .46750004 C .2656667 .4721667 .24816668 .47450004 .22750002 .47450004 C .19883335 .47450004 .17333335 .46933339 .15100001 .45900003 C .12900001 .44900004 .110333349 .4345 .09500001 .41550002 C .080000009 .39650003 .068500008 .37350003 .0605 .3465 C .0525 .3195 .048499999 .2891667 .048499999 .25550003 C .048499999 .2205 .0525 .18950002 .0605 .16250001 C .06883333 .1355 .0805 .11266667 .09550001 .094000007 C .1105 .075666669 .12866667 .061666669 .15 .052 C .17133336 .042333336 .19500001 .0375 .22100002 .0375 C .24500002 .0375 .26500003 .040333336 .28100003 .046000005 C .29733337 .051666667 .31066669 .057833334 .321 .064500007 C .33166669 .07116667 .34 .07733334 .34600003 .083000008 C .35233335 .08866667 .35733334 .09150001 .36100004 .0915 C .36533336 .09150001 .36866669 .08983334 .37100003 .086500007 L .38400004 .0705 C .37633337 .0605 .3666667 .05116667 .35500003 .042500006 C .34333334 .033833337 .33016668 .026333334 .31550003 .02 C .30083335 .013666667 .28483335 .008833334 .2675 .0055 C .2505 .0018333333 .23266669 0 .21400002 0 C .18233335 0 .15333335 .005666667 .127 .017 C .101 .02866667 .0785 .045333338 .059500006 .067 C .040833337 .08900001 .026166669 .11583334 .015499998 .14750001 C .005166666 .17916668 0 .21516669 0 .25550003 C 0 .29350005 .0050000005 .3281667 .015000001 .35950003 C .024999999 .39083336 .039499999 .41783334 .058500004 .44050003 C .07783334 .4631667 .10133334 .48066674 .12900001 .49300004 C .157 .5056667 .18900001 .512 .22500003 .512 C .25733338 .512 .286 .5068334 .31100003 .49650003 C .33633337 .48616673 .35833336 .4721667 .37700004 .45450003 L .36450003 .43750004 Z "/>
</symbol>
<symbol id="font_1_48">
<path d="M .2245 .512 C .25250004 .512 .27833335 .5071667 .30200003 .49750004 C .326 .48783339 .3466667 .4736667 .36400003 .455 C .38166667 .4366667 .39533339 .41400004 .40500004 .38700003 C .41500006 .36 .42 .32900004 .42000003 .29400004 C .42 .2866667 .41883336 .28166668 .41650004 .279 C .4145 .27633334 .41116668 .275 .4065 .275 L .047000003 .275 L .047000003 .2655 C .047000003 .22816669 .051333336 .19533335 .06 .16700001 C .06866667 .13866668 .081 .11483333 .097 .0955 C .113000009 .0765 .13233334 .062166674 .15500002 .052500003 C .17766668 .04283334 .20300001 .038000004 .231 .038000004 C .256 .038000004 .27766667 .04066667 .296 .046000005 C .31433336 .051666667 .32966668 .057833334 .342 .064500007 C .3546667 .0715 .3646667 .07766667 .372 .083000008 C .37933336 .08866667 .38466669 .09150001 .388 .0915 C .39233337 .09150001 .3956667 .08983334 .39800004 .086500007 L .411 .0705 C .40300004 .0605 .39233337 .05116667 .379 .042500006 C .36600004 .033833337 .35133336 .026333334 .335 .02 C .319 .0139999999 .3016667 .009166666 .28300003 .0055 C .26466669 .0018333333 .24616669 0 .22750002 0 C .1935 0 .16250001 .005833334 .13450001 .017500002 C .10650001 .029500002 .0825 .046833338 .0625 .0695 C .0425 .09216666 .027 .11983334 .015999999 .15250002 C .005333333 .18550003 0 .22316669 0 .2655 C 0 .30116669 .0050000005 .33400003 .015000001 .36400003 C .025333332 .39433337 .040000004 .4203334 .059000005 .44200004 C .07833333 .46400003 .101833339 .4811667 .1295 .49350003 C .15750002 .5058333 .18916667 .512 .2245 .512 M .22500003 .47650004 C .19933336 .47650004 .17633336 .47250007 .156 .46450005 C .13566667 .45650003 .11800001 .44500003 .103 .43000005 C .08833333 .41500006 .07633334 .39700005 .067 .37600003 C .058 .35500003 .052 .33150003 .049 .30550004 L .37700004 .30550004 C .377 .3321667 .37333337 .35600005 .36600004 .37700004 C .3586667 .3983334 .34833337 .41633336 .335 .43100003 C .3216667 .4456667 .3056667 .45683337 .28700004 .46450005 C .26833336 .47250007 .24766667 .47650004 .22500003 .47650004 Z "/>
</symbol>
<symbol id="font_1_4c">
<path d="M .06750001 .49750004 L .06750001 0 L .020000004 0 L .020000004 .49750004 L .06750001 .49750004 M .08850001 .669 C .0885 .66300007 .08716667 .6573334 .0845 .652 C .082166668 .647 .079 .6425 .075 .63850006 C .071 .6345 .06633334 .63133338 .061000006 .629 C .05566667 .6266667 .05 .6255 .044 .6255 C .038000004 .6255 .032333338 .6266667 .027000003 .629 C .021666669 .63133338 .017000003 .6345 .013000004 .63850006 C .009000001 .6425 .005833333 .647 .0034999997 .652 C .0011666665 .6573334 0 .66300007 0 .669 C 0 .675 .0011666665 .6806667 .0034999997 .68600007 C .005833333 .69166669 .009000001 .6965 .013000004 .7005 C .017000003 .7045 .021666669 .7076667 .027000003 .71000006 C .032333338 .7123334 .038000004 .7135 .044 .7135 C .05 .7135 .05566667 .7123334 .061000006 .71000006 C .06633334 .7076667 .071 .7045 .075 .7005 C .079 .6965 .082166668 .69166669 .0845 .68600007 C .08716667 .6806667 .0885 .675 .08850001 .669 Z "/>
</symbol>
<symbol id="font_1_51">
<path d="M 0 0 L 0 .49750004 L .026000008 .49750004 C .034666674 .49750004 .03966667 .49333335 .04100001 .485 L .04550001 .41000004 C .06816667 .43866668 .094500008 .46166668 .12450001 .47900004 C .15483335 .49666668 .1885 .5055 .22550002 .5055 C .25283338 .5055 .27683337 .5011667 .2975 .49250005 C .3185 .48383335 .33583335 .47133336 .34950004 .455 C .3631667 .4386667 .37350003 .41900004 .38050003 .39600004 C .38750006 .37300004 .39100004 .34700004 .39100004 .31800003 L .39100004 0 L .34350003 0 L .34350003 .31800003 C .34350003 .3646667 .33283336 .40116669 .3115 .4275 C .29016669 .45416669 .25750003 .46750007 .21350003 .46750004 C .18083334 .46750007 .15050002 .45900003 .1225 .44200004 C .094500008 .42533336 .06950001 .40233336 .0475 .37300004 L .0475 0 L 0 0 Z "/>
</symbol>
<symbol id="font_1_57">
<path d="M .19100002 0 C .15733335 0 .13100001 .009333334 .11200001 .028 C .09333334 .046666668 .084000017 .075500007 .08400001 .11450001 L .08400001 .45450003 L .012500003 .45450003 C .008833334 .45450006 .0058333335 .4555 .0035000016 .4575 C .0011666672 .45949999 0 .46233336 0 .46600003 L 0 .48450003 L .08500001 .4905 L .097 .66850009 C .097333338 .6715 .098500009 .6741667 .10050001 .6765 C .10283334 .6788334 .105833347 .68000009 .10950001 .68000009 L .132 .68000009 L .132 .49 L .2885 .49 L .2885 .45450003 L .132 .45450003 L .132 .117000009 C .132 .10333333 .13366667 .09150001 .137 .0815 C .14066668 .071833338 .14550002 .06383333 .15150002 .057500006 C .15783336 .051166674 .16516668 .0465 .1735 .043500004 C .18183334 .0405 .19083335 .039 .20050001 .039 C .21250002 .039 .22283335 .04066667 .23150003 .044000005 C .24016668 .04766667 .24766667 .051500005 .254 .055500006 C .26033337 .059833338 .26550005 .06366667 .26950003 .067 C .27350004 .07066667 .27666668 .072500009 .279 .072500009 C .28166668 .072500009 .28433336 .07083333 .28700004 .0675 L .3 .046500006 C .28733335 .032500004 .27116669 .021166668 .2515 .012500001 C .23216667 .004166667 .21200001 0 .19100002 0 Z "/>
</symbol>
<symbol id="font_1_4b">
<path d="M 0 0 L 0 .7275 L .0475 .7275 L .0475 .41250003 C .0705 .44083334 .09666667 .46333338 .12600002 .48000003 C .15566668 .497 .18883336 .5055 .22550002 .5055 C .25283338 .5055 .27683337 .5011667 .2975 .49250005 C .3185 .48383335 .33583335 .47133336 .34950004 .455 C .3631667 .4386667 .37350003 .41900004 .38050003 .39600004 C .38750006 .37300004 .39100004 .34700004 .39100004 .31800003 L .39100004 0 L .34350003 0 L .34350003 .31800003 C .34350003 .3646667 .33283336 .40116669 .3115 .4275 C .29016669 .45416669 .25750003 .46750007 .21350003 .46750004 C .18083334 .46750007 .15050002 .45900003 .1225 .44200004 C .094500008 .42533336 .06950001 .40233336 .0475 .37300004 L .0475 0 L 0 0 Z "/>
</symbol>
<symbol id="font_1_47">
<path d="M .39000003 .0065 C .3816667 .0065 .37683336 .010833333 .37550003 .0195 L .37050004 .098000008 C .3485 .068 .32266668 .04416667 .293 .026500002 C .26366667 .008833334 .23066668 0 .194 0 C .133 0 .08533334 .021166668 .051000004 .0635 C .017 .10583333 0 .16933334 0 .254 C 0 .29033337 .004666666 .3241667 .013999999 .3555 C .023666667 .3871667 .037666669 .41450004 .056000007 .43750004 C .07466667 .46083335 .097333338 .47916673 .124 .49250005 C .15100001 .5058334 .182 .51250007 .21700001 .51250007 C .25066669 .51250007 .27983336 .5061667 .3045 .49350003 C .32916669 .4811667 .35050003 .46300004 .36850003 .43900005 L .36850003 .734 L .4165 .734 L .4165 .0065 L .39000003 .0065 M .20750001 .038500005 C .24050002 .038500005 .27033333 .047000003 .29700003 .064 C .3236667 .081 .3475 .10466667 .36850003 .135 L .36850003 .39750005 C .34916667 .42583338 .32783333 .44583337 .3045 .45750005 C .2815 .46916668 .25533334 .47500003 .22600001 .47500003 C .19666668 .47500003 .171 .4696667 .149 .45900003 C .12699999 .44833336 .108500007 .43316666 .0935 .4135 C .078833337 .3941667 .06766667 .37083338 .060000007 .34350003 C .052666669 .31650005 .049 .2866667 .049 .254 C .049 .18 .06266666 .12550001 .09 .090500008 C .11733333 .05583334 .1565 .038500005 .20750001 .038500005 Z "/>
</symbol>
<use xlink:href="#font_1_5c" transform="matrix(44.3713,0,0,-44,40.675085,155.9989)" fill="#131f34"/>
<use xlink:href="#font_1_52" transform="matrix(44.3713,0,0,-44,69.7161,148.5409)" fill="#131f34"/>
<use xlink:href="#font_1_58" transform="matrix(44.3713,0,0,-44,101.21973,148.6069)" fill="#131f34"/>
<use xlink:href="#font_1_55" transform="matrix(44.3713,0,0,-44,132.1687,148.2549)" fill="#131f34"/>
<use xlink:href="#font_1_3" transform="matrix(44.3713,0,0,-44,152.5795,148.2549)" fill="#131f34"/>
<use xlink:href="#font_1_53" transform="matrix(44.3713,0,0,-44,171.1267,155.9989)" fill="#131f34"/>
<use xlink:href="#font_1_4f" transform="matrix(44.3713,0,0,-44,201.876,148.2549)" fill="#131f34"/>
<use xlink:href="#font_1_44" transform="matrix(44.3713,0,0,-44,216.94008,148.6069)" fill="#131f34"/>
<use xlink:href="#font_1_46" transform="matrix(44.3713,0,0,-44,244.47246,148.5409)" fill="#131f34"/>
<use xlink:href="#font_1_48" transform="matrix(44.3713,0,0,-44,271.05088,148.5409)" fill="#131f34"/>
<use xlink:href="#font_1_3" transform="matrix(44.3713,0,0,-44,298.16175,148.2549)" fill="#131f34"/>
<use xlink:href="#font_1_4c" transform="matrix(44.3713,0,0,-44,316.44273,148.2549)" fill="#131f34"/>
<use xlink:href="#font_1_51" transform="matrix(44.3713,0,0,-44,333.6144,148.2549)" fill="#131f34"/>
<use xlink:href="#font_1_3" transform="matrix(44.3713,0,0,-44,360.41468,148.2549)" fill="#131f34"/>
<use xlink:href="#font_1_57" transform="matrix(44.3713,0,0,-44,376.52146,148.6069)" fill="#131f34"/>
<use xlink:href="#font_1_4b" transform="matrix(44.3713,0,0,-44,401.14753,148.2549)" fill="#131f34"/>
<use xlink:href="#font_1_48" transform="matrix(44.3713,0,0,-44,429.90013,148.5409)" fill="#131f34"/>
<use xlink:href="#font_1_3" transform="matrix(44.3713,0,0,-44,457.011,148.2549)" fill="#131f34"/>
<use xlink:href="#font_1_46" transform="matrix(44.3713,0,0,-44,473.91645,148.5409)" fill="#131f34"/>
<use xlink:href="#font_1_4f" transform="matrix(44.3713,0,0,-44,502.75779,148.2549)" fill="#131f34"/>
<use xlink:href="#font_1_52" transform="matrix(44.3713,0,0,-44,517.3782,148.5409)" fill="#131f34"/>
<use xlink:href="#font_1_58" transform="matrix(44.3713,0,0,-44,548.8818,148.6069)" fill="#131f34"/>
<use xlink:href="#font_1_47" transform="matrix(44.3713,0,0,-44,578.1669,148.5409)" fill="#131f34"/>
</g>
</g>
</svg>
