<svg xmlns="http://www.w3.org/2000/svg" width="209mm" height="210mm" viewBox="0 0 592.44 595.28">
  <g>
    <path d="M271.89,147.56c-27.94,0-39.65,9.82-39.65,26.83,0,12.45,6.42,20,31,33.62l45.32,25.31c41.56,23,52.5,47.21,52.5,77.05,0,38.16-23.78,75.93-99.34,75.93H150.43s-4.18-.19-2.48-3.43l19.2-37.54s1.58-4.19,7.71-4h87.6c33.61,0,43.81-9.05,43.81-31,0-14.71-7.18-22.28-32.1-37L224.3,243.5c-35.12-20.76-44.59-42.67-44.59-69.11,0-41.56,24.2-71.78,94.46-71.78h98.17s4.19.2,2.48,3.43l-19.2,37.54s-1.58,4.22-7.69,4h-76Z" style="fill: #404f5e"/>
    <path d="M437.23,280.07v98.61a7.28,7.28,0,0,1-7.2,7.57H392.26a7.59,7.59,0,0,1-7.55-7.57V114c0-7.55,4.45-11.34,12.08-11.34,7.12,0,46.47-.18,74.06-.18,58.2,0,108.84,20.41,108.84,87.3v3.39c0,66.89-50.64,88.43-108.84,88.43-5.21,0-14.42-.31-21.7-.68,0,0-4.19-.2-2.49-3.42l18.49-35s1.58-4.22,7.71-4c39.34-.49,54.67-15.59,54.67-45.33v-3.39c0-31.75-18.9-42.32-56.68-42.32H437.23Z" style="fill: #404f5e"/>
    <path d="M65.28,280.07v98.61a7.28,7.28,0,0,1-7.18,7.57H20.31a7.59,7.59,0,0,1-7.55-7.57V114c0-7.55,4.44-11.34,12.09-11.34,7.09,0,46.46-.18,74.05-.18,58.18,0,108.83,20.41,108.83,87.3v3.39c0,66.89-50.65,88.43-108.83,88.43-5.21,0-14.4-.31-21.7-.68,0,0-4.19-.2-2.5-3.42l18.5-35s1.58-4.22,7.71-4c39.33-.49,54.67-15.59,54.67-45.33v-3.39c0-31.75-18.89-42.32-56.68-42.32H65.28Z" style="fill: #404f5e"/>
    <path d="M37,476.57H22.64v14.95H13.07V440.73c8,0,16-.07,23.94-.07C61.82,440.66,61.89,476.57,37,476.57Zm-14.37-8.78H37c12.26,0,12.19-18,0-18H22.64Z" style="fill: #404f5e"/>
    <path d="M93.45,453c-1.74-2.9-6.53-5.66-12-5.66-7.11,0-10.52,3-10.52,6.75,0,4.43,5.22,5.66,11.32,6.38,10.59,1.31,20.46,4.07,20.46,16.18,0,11.32-10,16.18-21.33,16.18-10.38,0-18.36-3.19-22.13-12.48l8-4.13c2.25,5.58,8.13,8.05,14.29,8.05s11.68-2.1,11.68-7.62c0-4.79-5-6.74-11.75-7.47-10.37-1.23-19.95-4-19.95-15.38,0-10.45,10.3-14.73,19.66-14.8,7.91,0,16.11,2.25,19.95,10.08Z" style="fill: #404f5e"/>
    <path d="M134,476.57H119.65v14.95h-9.58V440.73c8,0,16-.07,23.94-.07C158.82,440.66,158.9,476.57,134,476.57Zm-14.36-8.78H134c12.26,0,12.19-18,0-18H119.65Z" style="fill: #404f5e"/>
    <path d="M195.17,481.94H168.62l-4.36,9.58H153.89l22.78-50.79h10.45l22.78,50.79H199.45ZM181.89,451.4,172.46,473h18.87Z" style="fill: #404f5e"/>
    <path d="M233.48,491.73h-9.94l-21.11-51h10.74l15.3,39.54,15.38-39.54h10.74Z" style="fill: #404f5e"/>
    <path d="M270.05,486.94c0,6.9-10.45,6.9-10.45,0S270.05,480.05,270.05,486.94Z" style="fill: #404f5e"/>
    <path d="M321.12,485.13a26.77,26.77,0,0,1-19.3,7.55c-18.86,0-26.84-13-26.91-26.19s8.56-26.77,26.91-26.77a26.19,26.19,0,0,1,18.65,7.76l-6.39,6.16a17.44,17.44,0,0,0-12.26-4.78c-12.26,0-17.55,9.14-17.48,17.63s4.93,17.19,17.48,17.19a18.68,18.68,0,0,0,12.77-5.15Z" style="fill: #404f5e"/>
    <path d="M376.4,466.41c-.14,13.13-8.19,26.27-26,26.27s-26.12-12.85-26.12-26.19,8.56-26.77,26.12-26.77S376.55,453.14,376.4,466.41Zm-42.73.22c.22,8.34,4.72,17.27,16.69,17.27s16.47-9,16.61-17.34c.15-8.56-4.64-18.14-16.61-18.14S333.45,458.07,333.67,466.63Z" style="fill: #404f5e"/>
    <path d="M427.7,454.73l-16.54,22.06h-1.89l-16.18-22.13v36.93h-9.57V440.8h11l15.89,21.84,15.89-21.84h10.95v50.79H427.7Z" style="fill: #404f5e"/>
  </g>
</svg>
