<svg id="b933a6c8-a939-467d-a0a0-fa9f7bc12250" data-name="Layer 1" xmlns="http://www.w3.org/2000/svg" width="369.0647mm" height="128.524mm" viewBox="0 0 1046.1676 364.32">
  <title>logo QXIP</title>
  <g>
    <path d="M171.3268,987.1216a4.8253,4.8253,0,0,1-2.0066-4.3243q.0827-5.3977.0825-10.7967.0063-122.2791.002-244.5581c0-6.2692-1.1941-12.2882-4.5373-17.6456-5.5391-8.8766-13.75-13.2822-24.1322-13.7836-.16-.0077-.32-.001-.48-.0012q-73.0748-.0846-146.1494-.1136c-6.3071.0059-12.64-.2544-18.9351.3453-7.2852.694-13.8357,3.1687-19.0622,8.5244a28.7212,28.7212,0,0,0-7.4722,15.0182,42.1824,42.1824,0,0,0-.7417,8.105q-.0021,49.44.0016,98.8792a36.0274,36.0274,0,0,0,1.9451,12.2471c3.7731,10.534,11.4218,16.4385,22.2523,18.4985a39.3987,39.3987,0,0,0,7.4015.5692q78.7194-.0127,157.4388-.0065c2.3979,0,4.8-.0955,7.1928.02,3.1037.15,4.1927,1.2535,4.1921,4.3193-.0008,4.5546-.2015,9.1091-.2172,13.664s.0924,9.1113.1448,13.6671c.0156,1.36.0669,2.72.0311,4.0784-.0665,2.5251-.777,3.2007-3.3623,3.3012-.32.0125-.64.0023-.96.0029q-46.3147.0759-92.63.15-12.84.019-25.68-.0026c-11.7568-.0323-23.5152.0091-35.2692-.1942-5.516-.0954-11.033.0042-16.5475-.1938a65.7888,65.7888,0,0,1-41.628-16.18c-12.8993-11.0812-20.41-25.2034-22.8526-42.0092-.8076-5.5558-.597-11.1693-.6791-16.7638-.0139-.94.2484-1.9206-.2634-2.8194.3669-7.0988-.4365-14.1876-.1839-21.2855.0119-.3345,0,0,.0076-1.0853v-38.43c0-2.1236-.0123-1.61,0-2.1236.1011-4.23.0266-8.4577.219-12.6929.2936-6.4642.22-12.9448.3189-19.4182.2846-18.5482,6.8682-34.5125,20.123-47.4829,13.2854-13,29.4465-19.3749,48.016-19.6332,5.9135-.0822,11.827-.2311,17.7421.1143,2.8583.1669,3.875-.9283,3.9539-3.8281.0153-.5595.0046-1.12.0028-1.68-.0261-8.2372-.0209-16.4748-.1066-24.7113a5.1456,5.1456,0,0,1,1.4677-4.0608h32.16a4.2638,4.2638,0,0,1,1.6654,3.9675c-.0254,1.0354-.1363,2.07-.138,3.1045q-.0182,11.6166-.0061,23.2333a12.56,12.56,0,0,0,.02,1.4359,2.325,2.325,0,0,0,2.4507,2.3911c.6343.0552,1.2765.0245,1.9151.0245q21.6765.0015,43.353,0c.5588,0,1.12.03,1.6761-.0114,1.6844-.1242,2.2432-.6263,2.489-2.3124a15.1039,15.1039,0,0,0,.0987-2.1481c.0078-4.7043.0257-9.4087-.0026-14.1128-.0236-3.9089-.0749-7.8183-.1768-11.7259a3.9681,3.9681,0,0,1,1.8554-3.8467h31.68a4.0238,4.0238,0,0,1,1.8393,3.8671c-.3345,8.7146-.0327,17.4336-.199,26.1489a11.0241,11.0241,0,0,0,.1246,2.14,2.1727,2.1727,0,0,0,2.0963,1.9575,31.992,31.992,0,0,0,3.3448.1417c7.91-.11,15.8265-.4217,23.7048.6787a66.5527,66.5527,0,0,1,32.256,13.739c14.8837,11.6346,23.4708,26.9587,26,45.6574a60.7251,60.7251,0,0,1,.5309,8.13q.0033,56.397.0576,112.7942.0023,47.7573-.0687,95.5147-.0062,24.358.0962,48.7161c.0077,1.9332-.2931,3.6243-1.9423,4.8352Z" transform="translate(91.8277 -622.8016)" style="fill: #ea0101"/>
    <path d="M954.332,832.5626a54.5143,54.5143,0,0,1-1.8425,14.2079c-5.555,19.2493-17.55,33.259-34.98,42.7707-9.1619,5-19.0871,7.11-29.4665,7.4462-5.0383.163-10.0735.1366-15.11.1379q-68.9936.0175-137.987.0135c-4.876.0012-9.7519.128-14.6279.1362-5.0972.0085-6.1119-1.2383-5.8358-6.3464.41-7.589.1943-15.19.1611-22.7857-.0077-1.7557-.18-3.5111-.174-5.2663.0108-3.0044.1353-4.8454,4.5215-4.812,5.8392.0445,11.6789.0142,17.5183.0142q65.2739,0,130.5477.0069c5.5162.0016,11.0325.1388,16.5487.1319,4.8282-.0061,9.6194-.5107,14.0377-2.5915,10.9215-5.1432,16.9663-13.7058,17.6689-25.857.1246-2.1532.09-4.3171.09-6.476q.0075-47.3955.0116-94.7911a39.9838,39.9838,0,0,0-1.7339-12.7679c-3.8682-11.6369-13.1539-18.2005-24.6549-19.4781a53.1194,53.1194,0,0,0-5.505-.2358c-45.2722-.2978-90.545-.1834-135.8174-.1365q-11.9916.0125-23.9873.1419a31.88,31.88,0,0,0-13.4768,2.9324c-8.9407,4.2449-13.812,11.5333-15.7028,21.0441a34.3314,34.3314,0,0,0-.5747,6.6782c-.0414,30.634-.22,61.2684-.12,91.9019.1723,53.0316.0853,106.0632.1284,159.0948.0013,1.5186-.0052,3.0384.0517,4.5555a6.24,6.24,0,0,1-1.8944,4.8891h-36c-1.46-1.4515-1.7038-3.303-1.68-5.2235.0331-2.7171.1518-5.4336.1526-8.15q.0154-58.7958.007-117.5918c0-18.2365.11-36.4738-.0369-54.7091q-.1571-19.5549-.1121-39.1083c.0316-13.114.0493-26.2311.3468-39.3406a64.9,64.9,0,0,1,17.97-44.2768A67.546,67.546,0,0,1,714.6606,657.49a116.3635,116.3635,0,0,1,20.3574-.4487c.3192.0152.6377.0636.9566.0637,2.4727,0,3.5317-.96,3.65-3.4173.0694-1.4366.0233-2.8792.0188-4.319-.0239-7.5986-.0208-15.1975-.1024-22.7956a4.4447,4.4447,0,0,1,1.5453-3.771h32.16a5.1216,5.1216,0,0,1,1.5432,4.2791c-.0782,8.7136-.0768,17.428-.1017,26.1421a12.4359,12.4359,0,0,0,.023,1.4379,2.2225,2.2225,0,0,0,2.2962,2.2683,18.962,18.962,0,0,0,1.9174.0293q15.2314.0018,30.4631.0008c4.7174,0,9.4349.0217,14.1521-.0108,2.3583-.0163,2.9565-.6412,3.06-2.9838.0247-.5586.0071-1.1192.0054-1.6789-.0261-8.3923-.0233-16.7848-.1042-25.1766a5.3116,5.3116,0,0,1,1.4653-4.3074h32.16a4.3234,4.3234,0,0,1,1.683,3.94c-.0406,1.2767-.1523,2.5525-.1548,3.8289q-.0226,11.2779-.007,22.5558a13.6875,13.6875,0,0,0,.0173,1.4388,2.24,2.24,0,0,0,2.4432,2.3744c1.3525.1046,2.7123.17,4.0683.1631,5.5156-.0289,11.0329-.2075,16.5458-.1127,6.3132.1085,12.6323.4571,18.7686,2.1184,18.779,5.0842,32.8485,16.356,42.654,32.9944a54.811,54.811,0,0,1,8.0864,28.9545c-.0575,4.2368.048,8.4762.1038,12.714.01.7785,0,0,0,3.1v81.2143c0,.9146,0,.5857,0,.9146Q954.3339,825.7812,954.332,832.5626Z" transform="translate(91.8277 -622.8016)" style="fill: #ea0101"/>
    <path d="M388.5169,756.9513q39.3555,0,78.7108-.0011a37.0214,37.0214,0,0,0,13.1706-2.1822c10.3556-3.8989,16.132-11.5935,18.2743-22.2458a42.1506,42.1506,0,0,0,.7291-8.3427q-.0047-29.1567.0114-58.3132c.0021-1.9134-.3694-3.8171-.0367-5.7413.4179-2.4171,1.1737-3.2257,3.6253-3.223,4.2354.0047,8.4708.1963,12.7061.1935q8.7534-.0059,17.5063-.1972c5.0108-.1154,5.559.3439,5.5591,5.2969.0007,18.5578.1013,37.1165-.06,55.673-.0493,5.6632.1783,11.3447-.49,17.008a72.5141,72.5141,0,0,1-9.461,27.4466,102.24,102.24,0,0,1-5.7011,8.8743c-.5564.7806-1.1082,1.5665-1.62,2.3767a6.0485,6.0485,0,0,0-.0681,6.7888c.4937.8208,1.0532,1.6036,1.61,2.3842a82.54,82.54,0,0,1,14.7982,34.7488,80.1827,80.1827,0,0,1,1.035,17.43c-.2271,4.2278-.2714,8.4691-.2758,12.7044q-.018,17.3961.0735,34.7923c.012,3.1966.1051,6.3929.158,9.5893.008.48.0176.9607-.0039,1.44-.1256,2.8-1.0051,3.7506-3.8026,3.799-2.3138.04-4.631-.1052-6.9464-.1759q-8.9922-.2751-17.9843,0c-2.3158.0709-4.6327.186-6.9483.1693-2.7813-.02-3.6458-.9462-3.6783-3.8423-.035-3.1193-.0084-6.2392-.0084-9.3588q0-27.3569-.0028-54.7136a36.7128,36.7128,0,0,0-2.3362-13.3828,28.7357,28.7357,0,0,0-27.4624-18.8192q-36.1143-.0657-72.2286-.082-39.4754-.02-78.9506.03a131.6709,131.6709,0,0,0-14.1353.3743,28.8378,28.8378,0,0,0-25.9666,25.4621,56.5822,56.5822,0,0,0-.4371,7.173q.0181,31.1964.0066,62.3927c0,4.2-.7541,4.7975-4.8981,4.7067-7.99-.175-15.9831-.451-23.9775-.0718-2.3142.11-4.6348.1445-6.9516.124-2.6788-.0237-3.5114-.8978-3.525-3.6975-.0283-5.8392-.0086-11.6786-.0086-17.5179,0-13.0385-.0707-26.0775.0349-39.1152.042-5.191-.137-10.386.3094-15.58a69.71,69.71,0,0,1,8.1164-26.6335,94.3432,94.3432,0,0,1,6.5376-10.6055c.1846-.261.3728-.52.5555-.7821,3.52-5.06,3.54-7.6392-.0554-12.6074a81.5707,81.5707,0,0,1-12.3361-24.4968,79.6448,79.6448,0,0,1-3.2153-24.6129c.2339-11.8322.3715-23.6664.2829-35.5016q-.0934-12.4722-.23-24.9441c-.0022-.24-.0078-.48.0028-.72.1125-2.5425.9859-3.4906,3.5138-3.5226,3.3578-.0426,6.7231-.0834,10.0745.0858,6.5571.331,13.1042-.1159,19.6559-.0819,1.04.0054,2.0837-.067,3.1177.0081,2.02.1466,2.8518,1.0138,2.9847,3.0211.0422.6372.0113,1.2794.0113,1.9193q0,31.6764.0066,63.3526a35.0417,35.0417,0,0,0,3.7678,16.4309c4.3474,8.34,11.477,12.841,20.5181,14.6162a41.9443,41.9443,0,0,0,8.1063.7005Q349.4015,756.95,388.5169,756.9513Z" transform="translate(91.8277 -622.8016)" style="fill: #ea0101"/>
    <path d="M573.8,779.6254c0-36.8231.006-70.4226-.0068-104.0221-.0018-4.7166-.0962-9.4331-.1467-14.15-.0042-.4-.0085-.8.0009-1.2.0768-3.2538,1.0828-4.2518,4.403-4.2447,2.3171.0049,0,0,7.5627,0,6.8123,0,18.5607.0147,18.5607.0147,4.8389-.2192,5.793.5769,5.7933,5.4634.0011,18.32.0686,36.64-.037,54.9586-.0364,6.3162-.1858,12.6348-.0962,18.95.2862,20.1563.193,40.3137.0866,60.4689-.0857,16.2367-.1863,32.4741-.0636,48.7089.1192,15.7572.043,31.5135.1069,47.27.0186,4.57-1.2157,5.6646-5.7356,5.409a244.9176,244.9176,0,0,0-25.405-.0171,10.9289,10.9289,0,0,1-1.675.0007c-2.3627-.2535-3.2467-1.139-3.4762-3.484-.062-.6344-.0254-1.2789-.0254-1.9187-.0008-22-.1338-44,.0431-65.9984C573.8221,809.3563,573.6759,792.879,573.8,779.6254Z" transform="translate(91.8277 -622.8016)" style="fill: #ea0101"/>
  </g>
</svg>
