<?xml version="1.0" encoding="utf-8"?>
<!-- Generator: Adobe Illustrator 22.1.0, SVG Export Plug-In . SVG Version: 6.00 Build 0)  -->
<svg version="1.1" id="Layer_1" xmlns="http://www.w3.org/2000/svg" xmlns:xlink="http://www.w3.org/1999/xlink" x="0px" y="0px"
	 viewBox="0 0 1000 164" style="enable-background:new 0 0 1000 164;" xml:space="preserve">
<style type="text/css">
	.st0{fill:#005CA5;}
	.st1{fill-rule:evenodd;clip-rule:evenodd;fill:#F6772F;}
</style>
<g>
	<g>
		<path class="st0" d="M12.2,100.2l26.5-0.1v1.8c0,3.8,0.8,6.3,2.4,7.6c1.6,1.3,5,1.9,10.2,1.9H85c3.3,0,5.7-0.6,7.1-1.9
			c1.4-1.3,2.1-3.3,2.1-6.2c0-2.9-0.8-5-2.5-6.3c-0.9-0.7-2.3-1.4-4-1.8c-1.7-0.5-3.9-0.7-6.5-0.7l-42.2-1c-5.2,0-9.6-0.6-13.2-1.8
			c-3.6-1.2-6.3-2.8-8.3-5c-3.7-4.2-5.6-11.7-5.6-22.7c0-5.7,0.5-10.4,1.4-14.1c1-3.7,2.5-6.7,4.8-9.1c2.5-2.7,5.9-4.6,10.1-5.8
			c4.2-1.2,10.9-1.8,20.2-1.8h41c10.2,0,17.5,2.1,22,6.2c4.5,4.1,6.7,10.9,6.7,20.2l-0.1,2l-0.2,3.4H92.1v-0.4
			c0-3.3-0.7-5.7-2.2-7.4c-1.5-1.6-3.7-2.5-6.6-2.5h-31c-5.2,0-8.6,0.6-10.2,1.7c-1.7,1.2-2.5,3.2-2.5,6c0,2.8,0.7,4.9,2.2,6.2
			c1.5,1.2,4.3,2,8.3,2.4l44.2,0.8c4.9,0,9.2,0.7,12.8,2c3.6,1.3,6.4,3.2,8.5,5.7c4.1,4.8,6.2,12.9,6.2,24.5
			c0,6.8-0.8,12.1-2.2,15.8c-1.5,3.7-4.1,7-7.7,9.7c-2.4,1.7-5.6,2.9-9.7,3.6c-4.1,0.7-9.9,1.1-17.6,1.1H48.8
			c-14.7,0-24.5-1.8-29.5-5.5c-5-3.7-7.4-10.6-7.4-20.7l0.1-2.9L12.2,100.2z"/>
		<path class="st0" d="M157.8,133h-29.3l48.1-98.8h34.3L258,133h-29.5l-8.5-16.5h-53.6L157.8,133z M176.5,92.7h33.8l-17.1-34.7
			L176.5,92.7z"/>
		<polygon class="st0" points="386.1,133 346.7,133 293.9,61.2 293.9,133 267.1,133 267.1,34.3 306.9,34.3 359.3,106.6 359.3,34.3 
			386.1,34.3 		"/>
		<path class="st0" d="M486.8,69.8v-0.3c0-4.5-1.2-7.6-3.7-9.3c-2.4-1.7-8-2.5-16.5-2.5h-15.7c-9.2,0-15.1,1.2-17.6,3.7
			c-2.6,2.5-3.9,7.7-3.9,15.7v13.7c0,7.1,1.5,11.9,4.4,14.6c2.9,2.7,8.7,4,17.3,4h15.5c7.8,0,13.1-0.8,16-2.4
			c2.9-1.6,4.3-4.3,4.3-8.1l-0.2-2.7v-0.3H455V76.2h59.6v32.4c0,9.2-3.1,15.8-9.2,19.8c-6.1,3.9-16.8,5.9-32,5.9h-29.9
			c-9.2,0-16-0.5-20.3-1.6c-4.3-1.1-8-3-11.1-5.7c-3.5-3-6.1-6.9-7.7-11.5c-1.6-4.6-2.4-10.4-2.4-17.4V71.1c0-14.1,3-24,9-29.6
			c6-5.6,16.8-8.4,32.5-8.4h30c5,0,9.3,0.1,12.7,0.3c3.4,0.2,6.3,0.6,8.8,1.1c4.7,0.9,8.3,2.6,11,4.9c2.7,2.4,4.7,5.6,6,9.7
			c1.3,4.1,2,9.1,2,15.2l-0.1,3.4l-0.1,2.2H486.8z"/>
		<polygon class="st0" points="733.4,133 707.3,133 707.3,34.3 746.9,34.3 778.3,96 810.2,34.3 849.3,34.3 849.3,133 823.3,133 
			823.3,62.6 787,133 769.4,133 733.4,62.6 		"/>
		<path class="st0" d="M888,133h-29.3l48.1-98.8H941l47.2,98.8h-29.5l-8.5-16.5h-53.6L888,133z M906.7,92.7h33.8l-17.1-34.7
			L906.7,92.7z"/>
	</g>
	<g>
		<polygon class="st1" points="620.8,33.5 601.6,33.5 602.4,61.3 579.1,46.3 569.4,62.5 593.7,76.4 569.4,90.3 579.1,106.5 
			602.4,92.2 601.6,119.3 620.8,119.3 620.1,92.2 643.3,106.5 653.1,90.3 628.6,76.4 653.1,62.5 643.3,46.3 620.1,61.3 		"/>
		<path class="st1" d="M687.1,31.4c-5.5-9-13.2-15.1-22-18.9c8.7,5.9,15.7,14.3,19.2,25.9c0,0-7.9-20.9-30.6-27
			c-23.8-6.5-50.8-2.4-72.5,11.8c-14.9,9.7-30.3,24.9-39.3,43.3c2.7-10.3,8.1-19.9,15.1-28.4c-9.5,8.8-17.5,19.1-23.3,30.3
			c-15.1,29.1-6.7,63.6,23.7,78.5c27,13.3,61.6,6.4,87.3-6.6c10.8,4.1,22.7,5.7,34,8.5l-12.7-25.5C688.7,99.2,708,63.3,687.1,31.4
			 M646.5,130c-3.6-1.4-4.1-2.1-7.7-0.5c-6.8,3.1-13.9,5.6-21.1,7.4c-26.9,6.7-60.7,0.2-72.8-28c-11.5-26.6,7-55.9,27.3-72.1
			c18.3-14.6,42.9-22.9,66.4-20.7c13.7,1.3,26.5,7.3,34,19.2c17.7,26,2.7,63.6-19.3,82c4.1,6.7,9,13.1,12.4,20.1
			C659.3,134.9,652.9,132.4,646.5,130"/>
	</g>
</g>
</svg>
