<?xml version="1.0" encoding="UTF-8" standalone="no"?>
<svg
   xmlns:dc="http://purl.org/dc/elements/1.1/"
   xmlns:cc="http://creativecommons.org/ns#"
   xmlns:rdf="http://www.w3.org/1999/02/22-rdf-syntax-ns#"
   xmlns:svg="http://www.w3.org/2000/svg"
   xmlns="http://www.w3.org/2000/svg"
   viewBox="0 0 480 480"
   height="480"
   width="480"
   xml:space="preserve"
   id="svg2"
   version="1.1"><metadata
     id="metadata8"><rdf:RDF><cc:Work
         rdf:about=""><dc:format>image/svg+xml</dc:format><dc:type
           rdf:resource="http://purl.org/dc/dcmitype/StillImage" /></cc:Work></rdf:RDF></metadata><defs
     id="defs6"><clipPath
       id="clipPath20"
       clipPathUnits="userSpaceOnUse"><path
         id="path18"
         d="M 0,360 H 360 V 0 H 0 Z" /></clipPath><clipPath
       id="clipPath38"
       clipPathUnits="userSpaceOnUse"><path
         id="path36"
         d="M 0,360 H 360 V 0 H 0 Z" /></clipPath></defs><g
     transform="matrix(1.3333333,0,0,-1.3333333,0,480)"
     id="g10"><path
       id="path12"
       style="fill:#00548b;fill-opacity:1;fill-rule:nonzero;stroke:none"
       d="M 0,0 H 360 V 360 H 0 Z" /><g
       id="g14"><g
         clip-path="url(#clipPath20)"
         id="g16"><path
           id="path22"
           style="fill:none;stroke:#231f20;stroke-width:1;stroke-linecap:butt;stroke-linejoin:miter;stroke-miterlimit:10;stroke-dasharray:none;stroke-opacity:1"
           d="M 360,0 H 0 v 360 h 360 z" /></g></g><g
       transform="translate(309.4502,254.3389)"
       id="g24"><path
         id="path26"
         style="fill:#ffffff;fill-opacity:1;fill-rule:nonzero;stroke:none"
         d="m 0,0 -0.611,-2.882 h 4.89 L 1.616,-15.589 h 3.449 l 2.664,12.707 h 4.672 L 13.014,0 Z" /></g><g
       transform="translate(336.1953,254.3389)"
       id="g28"><path
         id="path30"
         style="fill:#ffffff;fill-opacity:1;fill-rule:nonzero;stroke:none"
         d="M 0,0 -6.004,-11.288 H -6.048 L -7.248,0 h -4.738 l -3.275,-15.589 h 3.231 l 2.337,12.401 h 0.044 l 1.505,-12.401 h 2.621 L 1.07,-3.188 h 0.044 l -2.839,-12.401 h 3.21 L 4.781,0 Z" /></g><g
       id="g32"><g
         clip-path="url(#clipPath38)"
         id="g34"><g
           transform="translate(233.042,124.5498)"
           id="g40"><path
             id="path42"
             style="fill:#ffffff;fill-opacity:1;fill-rule:nonzero;stroke:none"
             d="M 0,0 H 0.05 C 1.213,1.746 2.501,2.483 4.46,2.316 L 4.062,0.448 c -2.36,0.431 -4.127,-1.1 -4.642,-3.52 l -1.724,-8.108 h -1.9 l 2.841,13.353 h 1.826 z" /></g><g
           transform="translate(236.6045,113.3701)"
           id="g44"><path
             id="path46"
             style="fill:#ffffff;fill-opacity:1;fill-rule:nonzero;stroke:none"
             d="m 0,0 2.839,13.353 h 1.9 L 1.9,0 Z" /></g><g
           transform="translate(249.6387,118.6152)"
           id="g48"><path
             id="path50"
             style="fill:#ffffff;fill-opacity:1;fill-rule:nonzero;stroke:none"
             d="m 0,0 c -0.32,-1.505 -1.4,-3.963 -3.385,-3.963 -2.618,0 -2.158,2.603 -1.552,5.466 0.869,4.08 2.173,5.321 3.772,5.321 2.566,0 1.9,-3.364 1.514,-5.178 z m 1.426,6.704 h -0.05 c -0.65,1.156 -1.35,1.734 -2.732,1.734 -2.865,0 -4.807,-3.092 -5.489,-6.984 -0.202,-1.168 -1.783,-7.029 2.415,-7.029 1.622,0 2.558,0.529 3.717,2.113 h 0.05 l -0.38,-1.783 H 0.783 L 4.614,12.782 H 2.718 Z" /></g><g
           transform="translate(260.9629,125.4395)"
           id="g52"><path
             id="path54"
             style="fill:#ffffff;fill-opacity:1;fill-rule:nonzero;stroke:none"
             d="m 0,0 c 2.121,0 2.146,-2.48 1.587,-5.106 -0.45,-2.123 -1.185,-5.681 -4.072,-5.681 -1.88,0 -1.975,2.149 -1.286,5.393 C -3.392,-3.603 -2.53,0 0,0 M 2.617,-0.263 H 2.568 c -0.38,1.275 -1.358,1.876 -2.587,1.876 -3.529,0 -5.092,-4.119 -5.689,-6.911 -1.135,-5.346 0.231,-7.101 2.759,-7.101 1.228,0 2.212,0.553 3.3,1.922 h 0.047 c -0.336,-1.465 -0.669,-4.506 -3.75,-4.506 -1.158,0 -1.83,0.46 -1.742,1.665 h -1.839 c -0.227,-2.291 1.142,-3.279 3.283,-3.279 1.471,0 2.955,0.532 4.081,1.857 1.191,1.422 1.577,2.678 1.923,4.312 L 4.846,1.283 H 2.945 Z" /></g><g
           transform="translate(269.9346,121.4248)"
           id="g56"><path
             id="path58"
             style="fill:#ffffff;fill-opacity:1;fill-rule:nonzero;stroke:none"
             d="M 0,0 C 0.41,1.579 0.975,4.015 3.193,4.015 5.41,4.015 4.79,1.554 4.532,0 Z m 3.86,-3.608 c -0.2,-1.5 -1.058,-3.164 -2.887,-3.164 -2.674,0 -1.634,3.423 -1.305,5.207 h 6.486 c 0.57,3.119 1.674,7.193 -2.641,7.193 -3.533,0 -5.16,-4.194 -5.758,-7 -1.135,-5.329 0.298,-7.013 2.825,-7.013 2.813,0 4.614,2.184 5.046,4.777 z" /></g><g
           transform="translate(285.7441,123.1074)"
           id="g60"><path
             id="path62"
             style="fill:#ffffff;fill-opacity:1;fill-rule:nonzero;stroke:none"
             d="m 0,0 c 0.408,1.588 -0.011,2.332 -1.629,2.332 -1.35,0 -2.259,-0.625 -2.553,-2.017 -0.37,-1.731 1.009,-1.948 2.202,-2.423 1.725,-0.865 3.529,-1.347 2.998,-3.847 -0.54,-2.547 -2.641,-4.137 -5.359,-4.112 -1.173,-0.025 -2.522,0.384 -3.005,1.395 -0.569,1.059 -0.331,1.948 -0.136,2.861 h 1.803 c -0.422,-1.633 -0.086,-2.644 1.682,-2.644 1.527,0 2.663,0.625 3.008,2.26 0.403,1.899 -1.466,2.068 -2.727,2.566 -1.904,0.771 -2.949,1.467 -2.452,3.798 0.489,2.309 2.4,3.776 4.713,3.776 C 1.2,3.945 2.483,2.743 1.852,0 Z" /></g><g
           transform="translate(175.0327,122)"
           id="g64"><path
             id="path66"
             style="fill:#ffffff;fill-opacity:1;fill-rule:nonzero;stroke:none"
             d="m 0,0 0.19,0.884 c 0.198,0.931 0.646,1.792 1.739,1.792 0.997,0 1.125,-0.885 1.023,-1.363 L 2.673,0 Z M 6.333,-2.429 7.15,1.409 C 7.764,4.308 5.7,5.606 3.017,5.582 0.042,5.558 -2.574,4.142 -3.305,0.692 l -1.163,-5.475 c -0.656,-3.074 1.504,-4.205 4.26,-4.18 3.329,0.048 5.544,1.634 6.088,5.096 L 2.455,-3.863 C 2.142,-4.998 1.635,-6.271 0.227,-6.2 c -0.833,0.049 -1.039,0.673 -0.88,1.417 l 0.5,2.354 z" /></g><g
           transform="translate(182.625,113.3701)"
           id="g68"><path
             id="path70"
             style="fill:#ffffff;fill-opacity:1;fill-rule:nonzero;stroke:none"
             d="M 0,0 3.928,18.408 H 7.742 L 3.815,0 Z" /></g><g
           transform="translate(196.9834,121.9277)"
           id="g72"><path
             id="path74"
             style="fill:#ffffff;fill-opacity:1;fill-rule:nonzero;stroke:none"
             d="M 0,0 0.028,0.248 C 0.062,0.75 0.236,1.164 0.25,1.669 0.198,2.219 -0.026,2.506 -0.602,2.506 -1.58,2.506 -2.254,1.74 -2.436,0.878 l -1.179,-5.541 c -0.177,-0.84 0.253,-1.559 1.231,-1.559 1.41,0 1.504,2.111 1.717,3.118 H 2.854 C 2.686,-3.895 2.233,-5.574 1.863,-6.295 1,-7.977 -0.305,-8.748 -2.002,-8.914 c -0.361,-0.024 -0.707,-0.072 -1.28,-0.072 -2.733,0 -4.489,1.106 -3.836,4.179 l 1.164,5.467 c 0.733,3.458 2.756,4.764 5.701,4.764 C 3.509,5.376 4.427,3.704 3.423,0 Z" /></g><g
           transform="translate(206.1543,122.877)"
           id="g76"><path
             id="path78"
             style="fill:#ffffff;fill-opacity:1;fill-rule:nonzero;stroke:none"
             d="M 0,0 C 0.187,0.863 0.626,1.557 1.526,1.557 2.426,1.557 2.569,0.863 2.388,0 L 1.112,-5.996 C 0.876,-6.764 0.473,-7.171 -0.33,-7.171 c -0.804,0 -1.033,0.407 -0.941,1.175 z m -5.038,-5.756 c -0.653,-3.073 1.369,-4.18 4.12,-4.18 2.921,0 5.057,1.129 5.897,4.18 l 1.162,5.467 c 0.641,3.025 -0.652,4.688 -4.027,4.688 -2.969,0 -5.255,-1.23 -5.988,-4.688 z" /></g><g
           transform="translate(220.4951,121.0479)"
           id="g80"><path
             id="path82"
             style="fill:#ffffff;fill-opacity:1;fill-rule:nonzero;stroke:none"
             d="M 0,0 C 1.793,-0.072 3.008,-0.023 2.563,-2.11 2.048,-4.532 1.186,-4.388 -0.942,-4.436 Z m 1.509,7.105 c 1.496,0 2.744,0.074 2.364,-1.711 C 3.414,3.243 2.573,3.365 0.689,3.243 Z M -0.087,-7.678 c 3.441,0 5.844,1.561 6.619,5.213 0.476,2.237 0.272,3.198 -1.419,4.303 l 0.011,0.048 c 1.64,0.798 2.52,2.216 2.855,3.801 0.772,3.629 -1.511,4.777 -4.716,4.777 H -2.228 L -6.059,-7.678 Z" /></g><g
           transform="translate(158.6367,128.0596)"
           id="g84"><path
             id="path86"
             style="fill:#ffffff;fill-opacity:1;fill-rule:nonzero;stroke:none"
             d="M 0,0 H 5.828 L 2.723,-14.689 H 6.958 L 10.064,0 h 4.627 L 15.61,3.524 H 7.459 C 4.855,2.399 2.361,1.223 0,0" /></g><g
           transform="translate(289.749,130.2012)"
           id="g88"><path
             id="path90"
             style="fill:#ffffff;fill-opacity:1;fill-rule:nonzero;stroke:none"
             d="m 0,0 c -0.861,17.691 -20.986,15.512 -25.093,3.65 -4.912,12.647 -14.481,5.96 -19.358,0.55 0.983,2.091 1.267,4.095 0.743,5.94 -2.83,9.981 -28.094,11.556 -56.425,3.517 -17.72,-5.026 -32.441,-12.623 -40.293,-20.051 8.54,5.764 20.622,11.237 34.493,15.172 29.129,8.264 55.105,6.627 58.025,-3.658 0.631,-2.224 0.132,-4.67 -1.334,-7.224 0.985,0.958 1.847,1.91 2.596,2.854 12.42,13.684 18.407,4.802 21.706,1.785 C -12.42,16.476 0.203,4.766 -0.507,-0.709 14.498,-2.584 4.106,-17.742 4.106,-17.742 17.388,-7.047 5.272,3.042 0,0" /></g><g
           transform="translate(128.4253,131.1592)"
           id="g92"><path
             id="path94"
             style="fill:#ffffff;fill-opacity:1;fill-rule:nonzero;stroke:none"
             d="M 0,0 H 2.12 L 0.838,-5.896 h 0.051 c 0.726,1.135 2.169,1.851 3.531,1.851 3.659,0 3.203,-4.194 2.602,-6.957 -0.81,-3.724 -2.799,-6.955 -5.928,-6.955 -1.464,0 -2.436,0.986 -2.499,1.974 h -0.051 l -0.353,-1.628 h -2.019 z m 1.202,-16.181 c 1.968,0 2.945,2.17 3.599,5.179 0.686,3.157 0.621,5.181 -1.347,5.181 -2.272,0 -3.294,-2.615 -3.852,-5.181 -0.589,-2.712 -0.671,-5.179 1.6,-5.179" /></g><g
           transform="translate(138.0195,126.7686)"
           id="g96"><path
             id="path98"
             style="fill:#ffffff;fill-opacity:1;fill-rule:nonzero;stroke:none"
             d="M 0,0 H 2.322 L 2.691,-10.606 H 2.742 L 7.419,0 H 9.741 L 2.763,-14.109 c -0.902,-1.826 -1.811,-3.453 -4.36,-3.453 -0.833,0 -1.175,0.049 -1.523,0.074 l 0.354,1.628 c 0.292,-0.049 0.69,-0.075 1.22,-0.075 0.984,0 1.537,0.569 1.945,1.284 l 0.656,1.159 z" /></g><g
           transform="translate(298.8623,193.7964)"
           id="g100"><path
             id="path102"
             style="fill:#ffffff;fill-opacity:1;fill-rule:nonzero;stroke:none"
             d="m 0,0 c -2.994,-11.109 -9.077,-18.064 -17.207,-18.064 -9.213,0 -13.199,7.587 -8.765,28.451 4.435,20.864 11.648,28.451 20.861,28.451 8.308,0 11.41,-6.233 9.548,-14.993 h 5.78 c 2.246,10.567 -1.196,19.87 -14.292,19.87 -13.188,0 -22.763,-10.206 -27.678,-33.328 -4.914,-23.122 0.322,-33.329 13.509,-33.329 11.561,0 20.083,8.219 24.025,22.942 z m -83.225,-21.858 h 17.704 c 12.192,0 20.948,6.774 23.348,18.065 1.785,8.399 -0.973,14.542 -8.596,16.077 l 0.04,0.18 c 6.848,1.626 11.567,7.677 12.911,14 2.035,9.574 -1.442,16.167 -13.906,16.167 h -17.794 z m 12.423,31.251 h 10.748 c 10.026,0 13.944,-4.516 12.101,-13.186 -1.844,-8.671 -7.681,-13.187 -17.706,-13.187 h -10.749 z m 6.029,28.361 h 10.115 c 9.033,0 12.787,-3.161 10.963,-11.742 -1.593,-7.496 -7.012,-11.742 -16.948,-11.742 h -9.122 z m -17.56,-11.651 c 2.438,11.471 -1.767,17.612 -13.779,17.612 -11.2,0 -19.271,-6.955 -21.422,-17.07 -4.971,-23.394 28.601,-12.464 24.532,-31.613 -1.92,-9.032 -8.564,-13.096 -16.693,-13.096 -8.491,0 -11.654,5.509 -9.908,13.728 l 0.519,2.439 h -5.781 l -0.403,-1.896 c -2.687,-12.646 2.613,-19.149 14.716,-19.149 11.742,0 20.872,6.413 23.523,18.877 4.818,22.671 -28.679,12.103 -24.589,31.342 1.362,6.412 6.792,11.561 14.65,11.561 7.858,0 10.544,-4.787 8.854,-12.735 z" /></g><g
           transform="translate(64.0176,208.355)"
           id="g104"><path
             id="path106"
             style="fill:#ffffff;fill-opacity:1;fill-rule:nonzero;stroke:none"
             d="m 0,0 h 4.218 c 6.143,0 8.428,3.851 9.364,8.252 1.071,5.043 0.239,8.894 -5.996,8.894 H 3.644 Z m -9.344,28.516 h 23.84 C 30.725,28.516 31.348,16.779 29.614,8.619 27.12,-3.118 19.773,-11.37 4.369,-11.37 h -6.785 l -5.437,-25.582 h -15.403 z" /></g><g
           transform="translate(100.6362,221.0083)"
           id="g108"><path
             id="path110"
             style="fill:#ffffff;fill-opacity:1;fill-rule:nonzero;stroke:none"
             d="m 0,0 h 14.304 l -1.481,-6.969 h 0.183 c 2.861,4.402 7.439,8.253 13.674,8.253 0.733,0 1.467,0 2.345,-0.184 l -2.962,-13.937 c -1.409,0.275 -2.581,0.367 -4.048,0.367 -5.96,0 -10.337,-2.476 -11.721,-8.986 L 4.312,-49.605 h -14.854 z" /></g><g
           transform="translate(151.5571,212.5728)"
           id="g112"><path
             id="path114"
             style="fill:#ffffff;fill-opacity:1;fill-rule:nonzero;stroke:none"
             d="m 0,0 c -4.401,0 -6.601,-4.31 -9.153,-16.321 -2.572,-12.103 -2.204,-16.412 2.196,-16.412 4.585,0 6.379,4.126 8.971,16.32 C 4.625,-4.126 4.584,0 0,0 m -24.046,-16.504 c 3.157,14.854 8.874,26.223 26.02,26.223 18.154,0 18.089,-11.094 14.932,-25.948 -3.156,-14.854 -8.873,-26.224 -26.019,-26.224 -18.155,0 -18.09,11.095 -14.933,25.949" /></g></g></g></g></svg>