<svg xmlns="http://www.w3.org/2000/svg" viewBox="0 0 570 213" width="570" height="213">
	<defs>
		<clipPath clipPathUnits="userSpaceOnUse" id="cp1">
			<path d="M-497 -670L1103 -670L1103 930L-497 930Z" />
		</clipPath>
	</defs>
	<style>
		tspan { white-space:pre }
		.shp0 { fill: #0d0d0d } 
		.shp1 { fill: #ff5e1e } 
	</style>
	<g id="Page 1" clip-path="url(#cp1)">
		<path id="Path 1" class="shp0" d="M82.91 43.43L82.91 147.88L66.65 147.88L66.65 43.43L28.78 43.43L28.78 28.8L122.5 28.8L122.5 43.43L82.91 43.43Z" />
		<path id="Path 2" fill-rule="evenodd" class="shp0" d="M183.36 105.85L120.61 105.85C120.61 116.04 123.4 123.87 128.98 129.34C133.91 134.11 140.25 136.5 148 136.5C156.83 136.5 164.2 133.92 170.11 128.77L176.61 139.91C174.23 142.3 170.57 144.35 165.64 146.09C159.46 148.36 152.58 149.5 144.99 149.5C134.05 149.5 124.75 145.79 117.11 138.37C108.61 130.18 104.35 119.18 104.35 105.36C104.35 91 108.71 79.49 117.44 70.82C125.24 63.07 134.48 59.2 145.16 59.2C157.56 59.2 167.29 62.69 174.34 69.68C181.17 76.4 184.58 85.32 184.58 96.42C184.58 99.84 184.17 102.98 183.36 105.85ZM145.89 72.2C139.01 72.2 133.23 74.42 128.57 78.87C124.13 83.09 121.61 88.35 121.01 94.64L169.22 94.64C169.22 88.4 167.27 83.2 163.36 79.03C159.08 74.48 153.26 72.2 145.89 72.2ZM197.89 123.25L197.89 25.14L213.34 25.14L213.34 120.64C213.34 125.31 214.68 128.98 217.36 131.66C220.04 134.34 223.55 135.68 227.89 135.68L227.89 149.5C207.89 149.5 197.89 140.75 197.89 123.25ZM256.24 60.82L256.24 116.34C256.24 129.78 262.06 136.5 273.71 136.5C278.81 136.5 283.47 135.03 287.7 132.11C291.92 129.18 294.71 125.79 296.07 121.95L296.07 60.82L311.51 60.82L311.51 147.87L296.07 147.87L296.07 135.85C294.33 139.26 290.85 142.39 285.62 145.23C280.39 148.08 275.29 149.5 270.3 149.5C260.76 149.5 253.46 146.77 248.39 141.29C243.33 135.82 240.79 128.04 240.79 117.96L240.79 60.82L256.24 60.82ZM343.04 60.82L343.04 116.34C343.04 129.78 348.86 136.5 360.51 136.5C365.61 136.5 370.27 135.03 374.49 132.11C378.72 129.18 381.51 125.79 382.87 121.95L382.87 60.82L398.31 60.82L398.31 147.87L382.87 147.87L382.87 135.85C381.13 139.26 377.65 142.39 372.42 145.23C367.19 148.08 362.08 149.5 357.1 149.5C347.56 149.5 340.26 146.77 335.19 141.29C330.13 135.82 327.59 128.04 327.59 117.96L327.59 60.82L343.04 60.82ZM69.36 182.71C64.12 182.71 58.58 179.01 58.58 172.34C58.58 166.52 63.23 161.84 69.42 161.84C72.57 161.84 73.64 162.15 75.66 162.94L75.39 166.52C72.85 165.24 71.53 164.99 69.17 164.99C65.71 164.99 62.62 167.59 62.62 172.15C62.62 176.44 65.77 179.53 69.57 179.53C71.41 179.53 72.72 179.32 75.39 178.03L75.66 181.58C73.67 182.44 71.8 182.71 69.36 182.71Z" />
		<path id="Path 3" fill-rule="evenodd" class="shp0" d="M91.42 182.78C85.21 182.78 80.98 177.82 80.98 172.28C80.98 166.77 85.21 161.75 91.42 161.75C97.57 161.75 101.74 166.68 101.74 172.25C101.74 177.66 97.6 182.78 91.42 182.78ZM91.42 164.93C87.72 164.93 85.02 168.02 85.02 172.25C85.02 176.47 87.72 179.59 91.42 179.59C95.09 179.59 97.66 176.38 97.66 172.25C97.66 168.21 95.09 164.93 91.42 164.93ZM127.44 182.35L126.49 167.38L119.09 182.81L112.69 167.32L111.56 182.35L108.19 182.35L109.72 162.18L113.85 162.18C115.97 166.8 117.68 170.81 119.49 175.28C121.57 170.78 123.53 166.64 125.7 162.18L129.43 162.18L130.96 182.35L127.44 182.35ZM157.68 182.35L156.73 167.38L149.32 182.81L142.93 167.32L141.79 182.35L138.43 182.35L139.96 162.18L144.09 162.18C146.2 166.8 147.92 170.81 149.72 175.28C151.8 170.78 153.76 166.64 155.93 162.18L159.67 162.18L161.2 182.35L157.68 182.35ZM176.65 182.71C172.52 182.71 168.6 180.3 168.6 175.92L168.6 162.17L172.31 162.17L172.31 175.06C172.31 178.64 174.85 179.53 176.78 179.53C179.1 179.53 181.52 178.61 181.52 175.03L181.52 162.17L185.22 162.17L185.22 175.15C185.22 180.42 181.61 182.71 176.65 182.71ZM207.29 182.35L196.91 167.96L196.91 182.35L193.33 182.35L193.33 162.18L197.04 162.18L207.5 176.65L207.5 162.15L211.05 162.15L211.05 182.35L207.29 182.35ZM219.41 162.18L223.11 162.18L223.11 182.35L219.41 182.35L219.41 162.18ZM240.65 182.71C235.41 182.71 229.87 179.01 229.87 172.34C229.87 166.52 234.52 161.84 240.71 161.84C243.86 161.84 244.93 162.15 246.95 162.94L246.68 166.52C244.14 165.24 242.82 164.99 240.46 164.99C237 164.99 233.91 167.59 233.91 172.15C233.91 176.44 237.06 179.53 240.86 179.53C242.7 179.53 244.01 179.32 246.68 178.03L246.95 181.58C244.96 182.44 243.09 182.71 240.65 182.71ZM264.43 182.35L262.8 177.69L256.47 177.69L254.78 182.35L251.29 182.35L258.95 161.5L260.91 161.5L268.13 182.35L264.43 182.35ZM259.74 168.24L257.6 174.54L261.67 174.54L259.74 168.24ZM280.74 165.3L280.74 182.35L277.03 182.35L277.03 165.3L271.1 165.3L271.1 162.15L286.71 162.15L286.71 165.3L280.74 165.3ZM292.82 182.35L292.82 162.18L304.88 162.18L304.88 165.36L296.53 165.36L296.53 170.53L303.75 170.53L303.75 173.69L296.53 173.69L296.53 179.2L305.53 179.2L305.53 182.35L292.82 182.35ZM323.83 182.35L323.83 162.18L335.89 162.18L335.89 165.36L327.53 165.36L327.53 170.53L334.75 170.53L334.75 173.69L327.53 173.69L327.53 179.2L336.53 179.2L336.53 182.35L323.83 182.35ZM351.4 182.84L349.23 182.84L341.18 162.18L345.1 162.18L350.39 176.32L355.32 162.18L359.05 162.18L351.4 182.84ZM364.99 182.35L364.99 162.18L377.05 162.18L377.05 165.36L368.69 165.36L368.69 170.53L375.91 170.53L375.91 173.69L368.69 173.69L368.69 179.2L377.69 179.2L377.69 182.35L364.99 182.35ZM395.38 182.35C393.27 179.35 392.04 177.45 390.17 174.18L388.67 174.18L388.67 182.35L384.97 182.35L384.97 162.3C386.96 162.15 388.98 161.99 391 161.99C395.22 161.99 398.59 163.74 398.59 168.05C398.59 170.78 396.78 172.95 394.34 173.69C396.11 176.75 397.58 178.98 400.18 182.35L395.38 182.35ZM390.72 165.24L390.48 165.24L388.67 165.27L388.67 171.08L390.54 171.08C393.69 171.08 394.58 169.92 394.58 167.96C394.58 166.22 393.39 165.24 390.72 165.24ZM412.88 173.96L412.88 182.35L409.21 182.35L409.21 173.96L402.69 162.17L406.49 162.17L411.17 170.68L415.7 162.17L419.31 162.17L412.88 173.96ZM441.62 182.84L439.51 182.84L436.24 174.7L433.11 182.84L431 182.84L422.67 162.18L426.47 162.18L432.1 176.32L434.4 170.17L431.15 162.18L434.98 162.18L436.2 165.3L437.4 162.18L440.98 162.18L438.04 169.92L440.61 176.32L445.88 162.18L449.46 162.18L441.62 182.84ZM469.81 182.35L469.81 173.84L459.03 173.84L459.03 182.35L455.33 182.35L455.33 162.18L459.03 162.18L459.03 170.59L469.81 170.59L469.81 162.18L473.48 162.18L473.48 182.35L469.81 182.35ZM482.11 182.35L482.11 162.18L494.17 162.18L494.17 165.36L485.82 165.36L485.82 170.53L493.04 170.53L493.04 173.69L485.82 173.69L485.82 179.2L494.82 179.2L494.82 182.35L482.11 182.35ZM512.5 182.35C510.39 179.35 509.17 177.45 507.3 174.18L505.8 174.18L505.8 182.35L502.09 182.35L502.09 162.3C504.08 162.15 506.1 161.99 508.13 161.99C512.35 161.99 515.72 163.74 515.72 168.05C515.72 170.78 513.91 172.95 511.46 173.69C513.24 176.75 514.71 178.98 517.31 182.35L512.5 182.35ZM507.85 165.24L507.6 165.24L505.8 165.27L505.8 171.08L507.67 171.08C510.82 171.08 511.71 169.92 511.71 167.96C511.71 166.22 510.51 165.24 507.85 165.24ZM523.03 182.35L523.03 162.18L535.09 162.18L535.09 165.36L526.73 165.36L526.73 170.53L533.96 170.53L533.96 173.69L526.73 173.69L526.73 179.2L535.73 179.2L535.73 182.35L523.03 182.35Z" />
		<path id="Path 4" fill-rule="evenodd" class="shp1" d="M471.37 19.72L539.28 87.63C543.83 92.18 543.83 99.55 539.28 104.09L497.09 146.28C492.55 150.83 485.18 150.83 480.63 146.28L476.73 142.38L464.38 130.04L439.53 130.04L439.53 105.19L412.72 78.37C408.17 73.82 408.17 66.46 412.72 61.91L454.91 19.72C459.45 15.17 466.82 15.17 471.37 19.72ZM459.57 33.18L427.1 65.65C423.6 69.15 423.6 74.82 427.1 78.32L447.74 98.96L447.74 118.09L466.86 118.09L472.53 123.76C474.98 119.83 480.18 112.42 484.36 112.89C489.58 113.46 489.99 123.11 482.17 132.5C485.44 133.89 489.37 133.26 492.04 130.59L524.51 98.12C528.01 94.63 528.01 88.95 524.51 85.45L472.24 33.19C468.74 29.69 463.07 29.69 459.57 33.18ZM451.21 71.98C451.21 76.65 447.82 80.44 443.64 80.44C439.46 80.44 436.07 76.65 436.07 71.98C436.07 67.31 439.46 63.52 443.64 63.52C447.82 63.52 451.21 67.31 451.21 71.98Z" />
	</g>
</svg>