<?xml version="1.0" encoding="UTF-8" standalone="no"?>
<svg
   xmlns:dc="http://purl.org/dc/elements/1.1/"
   xmlns:cc="http://creativecommons.org/ns#"
   xmlns:rdf="http://www.w3.org/1999/02/22-rdf-syntax-ns#"
   xmlns:svg="http://www.w3.org/2000/svg"
   xmlns="http://www.w3.org/2000/svg"
   viewBox="0 0 793.70135 370.39334"
   height="370.39334"
   width="793.70135"
   xml:space="preserve"
   id="svg2"
   version="1.1"><metadata
     id="metadata8"><rdf:RDF><cc:Work
         rdf:about=""><dc:format>image/svg+xml</dc:format><dc:type
           rdf:resource="http://purl.org/dc/dcmitype/StillImage" /></cc:Work></rdf:RDF></metadata><defs
     id="defs6"><clipPath
       id="clipPath18"
       clipPathUnits="userSpaceOnUse"><path
         id="path16"
         d="M 0,0 H 595.276 V 277.795 H 0 Z" /></clipPath><clipPath
       id="clipPath50"
       clipPathUnits="userSpaceOnUse"><path
         id="path48"
         d="M 0,0 H 595.276 V 277.795 H 0 Z" /></clipPath></defs><g
     transform="matrix(1.3333333,0,0,-1.3333333,0,370.39333)"
     id="g10"><g
       id="g12"><g
         clip-path="url(#clipPath18)"
         id="g14"><g
           transform="translate(423.5255,182.3557)"
           id="g20"><path
             id="path22"
             style="fill:#231f20;fill-opacity:1;fill-rule:nonzero;stroke:none"
             d="m 0,0 -9.961,-34.096 c -1.082,-3.7 -1.879,-7.343 -1.879,-11.157 h -0.569 c 0,3.757 -0.797,7.457 -1.878,11.157 l -9.62,32.787 c -3.985,-9.506 -10.815,-17.589 -19.353,-23.168 l 19.581,-50.546 h 23.053 l 29.03,74.966 -28.404,0 z" /></g><g
           transform="translate(352.0887,149.5116)"
           id="g24"><path
             id="path26"
             style="fill:#231f20;fill-opacity:1;fill-rule:nonzero;stroke:none"
             d="M 0,0 C -4.895,0 -9.62,0.683 -14.06,1.935 V -42.179 H 13.206 V 1.651 C 8.994,0.569 4.554,0 0,0" /></g><g
           transform="translate(304.0467,182.3557)"
           id="g28"><path
             id="path30"
             style="fill:#231f20;fill-opacity:1;fill-rule:nonzero;stroke:none"
             d="m 0,0 v 0 l -9.961,-34.096 c -1.082,-3.701 -1.879,-7.343 -1.879,-11.157 h -0.569 c 0,3.757 -0.797,7.456 -1.878,11.157 L -24.249,0 H -52.71 l 29.03,-74.966 h 23.054 l 19.752,51.002 C 10.588,-18.158 3.814,-9.848 0,0" /></g></g></g><g
       transform="translate(69.472,182.3551)"
       id="g32"><path
         id="path34"
         style="fill:#231f20;fill-opacity:1;fill-rule:nonzero;stroke:none"
         d="M 0,0 H 69.672 V -24.362 H 59.483 L 48.44,-23.679 V -75.022 H 21.232 v 51.343 L 10.303,-24.363 H 0 Z" /></g><g
       transform="translate(146.9995,182.3553)"
       id="g36"><path
         id="path38"
         style="fill:#231f20;fill-opacity:1;fill-rule:nonzero;stroke:none"
         d="M 0,0 H 50.433 V -20.492 H 27.436 v -7.172 H 48.44 V -47.188 H 27.436 v -7.343 h 23.737 v -20.492 l -51.173,0 z" /></g><g
       transform="translate(209.6703,182.3553)"
       id="g40"><path
         id="path42"
         style="fill:#231f20;fill-opacity:1;fill-rule:nonzero;stroke:none"
         d="m 0,0 h 27.266 v -50.945 h 20.776 l 9.847,-24.078 H 0 Z" /></g><g
       id="g44"><g
         clip-path="url(#clipPath50)"
         id="g46"><g
           transform="translate(470.9413,107.3326)"
           id="g52"><path
             id="path54"
             style="fill:#231f20;fill-opacity:1;fill-rule:nonzero;stroke:none"
             d="m 0,0 h -28.859 l 26.07,74.966 H 27.323 L 54.076,0 H 25.216 L 22.712,9.335 H 2.106 Z M 17.987,27.152 14.8,40.358 c -0.797,3.187 -1.309,6.489 -1.765,9.62 H 12.068 L 7.115,27.095 Z" /></g><g
           transform="translate(331.5399,201.026)"
           id="g56"><path
             id="path58"
             style="fill:#00adea;fill-opacity:1;fill-rule:nonzero;stroke:none"
             d="m 0,0 c 0,-11.328 9.221,-20.549 20.549,-20.549 11.327,0 20.549,9.221 20.549,20.549 0,11.327 -9.165,20.549 -20.549,20.549 C 9.221,20.549 0,11.384 0,0" /></g></g></g><text
       id="text62"
       style="font-variant:normal;font-weight:normal;font-stretch:normal;font-size:25.73999977px;font-family:'Museo Sans 500';-inkscape-font-specification:MuseoSans-500;writing-mode:lr-tb;fill:#231f20;fill-opacity:1;fill-rule:nonzero;stroke:none"
       transform="matrix(1,0,0,-1,194.1479,74.7645)"><tspan
         id="tspan60"
         y="0"
         x="0 15.444 29.7297 38.944618 48.159538 62.44524 72.09774 78.712921 94.182663 109.57518 123.1659 129.987 136.39626 145.61118 158.73859 165.35376 179.43353 195.4953 211.01653 223.938 238.22369 247.87621 259.40771 272.92123 282.13614 288.54541 304.60715 320.12839">better quality conversations</tspan></text>
</g></svg>