<svg id="Layer_1" data-name="Layer 1" xmlns="http://www.w3.org/2000/svg" viewBox="0 0 1364.21 300"><path d="M411,534.51,345.91,390h-68l97.54,219.52a1.2,1.2,0,0,0,2.19,0Z" transform="translate(-277.89 -390)"/><path d="M553.07,390s-88.22,199-99.25,223.35c-26.37,58.21-45.94,72.76-65.84,75.89a.39.39,0,0,0-.32.38.38.38,0,0,0,.38.38h62.29c27.41,0,46.18-18.44,72.6-76.65C532.16,593,622.28,390,622.28,390Z" transform="translate(-277.89 -390)"/><path d="M981.38,465c-44,0-72.3,28.5-72.3,75s28.3,75,72.3,75,72.3-28.5,72.3-75S1025.28,465,981.38,465Zm0,126.3c-28.1,0-46.5-18.3-46.5-51.3s18.4-51.3,46.5-51.3,46.5,18.3,46.5,51.3S1009.38,591.3,981.38,591.3Z" transform="translate(-277.89 -390)"/><path d="M1202.94,468.3V611.7h-29.77l-70.93-105.08V611.7h-25.4V468.3h29.88l70.92,105.79V468.3Z" transform="translate(-277.89 -390)"/><polygon points="1364.21 102.3 1364.21 78.3 1261.11 78.3 1261.11 221.7 1364.21 221.7 1364.21 197.7 1286.51 197.7 1286.51 160 1358.15 160 1358.15 136 1286.51 136 1286.51 102.3 1364.21 102.3"/><path d="M877.18,468.31,825.79,581.15a.76.76,0,0,1-1.37,0L773,468.31H744L798.16,587.8c7.93,17.49,14.48,25.55,27,25.55s19-8.06,26.94-25.55c3.91-8.6,54.19-119.49,54.19-119.49Z" transform="translate(-277.89 -390)"/><path d="M1321.19,492.34c-7.68-17.6-13.44-25.55-25.39-25.55h0c-12,0-17.71,7.95-25.39,25.55-3.73,8.55-51.9,119.49-51.9,119.49h26.79l14.83-34.72h71.34l14.83,34.72h26.79S1324.92,500.89,1321.19,492.34ZM1270.41,553l24.7-58a.75.75,0,0,1,1.38,0l24.7,58Z" transform="translate(-277.89 -390)"/><path d="M1443.33,533.9v21.73h43C1484.47,574.9,1466,591,1444.21,591c-25.8,0-44.53-18.86-44.53-50v0h0c0-32.4,17.32-52.3,46.85-52.3,17.62,0,32.13,8.42,37,23h26.29C1504.09,482.41,1478,465,1446.53,465c-44.9,0-72.65,29.4-72.65,76.6,0,45.8,30.34,73.4,68.16,73.4,32.47,0,44.81-18.9,48.25-25V611.7h22.5V533.9Z" transform="translate(-277.89 -390)"/></svg>