<?xml version="1.0" encoding="UTF-8" standalone="no"?>
<svg
   xmlns:dc="http://purl.org/dc/elements/1.1/"
   xmlns:cc="http://creativecommons.org/ns#"
   xmlns:rdf="http://www.w3.org/1999/02/22-rdf-syntax-ns#"
   xmlns:svg="http://www.w3.org/2000/svg"
   xmlns="http://www.w3.org/2000/svg"
   viewBox="0 0 710.66669 490.64001"
   height="490.64001"
   width="710.66669"
   xml:space="preserve"
   id="svg2"
   version="1.1"><metadata
     id="metadata8"><rdf:RDF><cc:Work
         rdf:about=""><dc:format>image/svg+xml</dc:format><dc:type
           rdf:resource="http://purl.org/dc/dcmitype/StillImage" /></cc:Work></rdf:RDF></metadata><defs
     id="defs6" /><g
     transform="matrix(1.3333333,0,0,-1.3333333,0,490.64)"
     id="g10"><g
       transform="scale(0.1)"
       id="g12"><path
         id="path14"
         style="fill:#7a18ff;fill-opacity:1;fill-rule:nonzero;stroke:none"
         d="m 2918.67,3132.81 -290.12,-376.65 -321.4,198.88 -480.96,-591.6 1535.68,357.7 -443.2,411.67" /><path
         id="path16"
         style="fill:#7a18ff;fill-opacity:1;fill-rule:nonzero;stroke:none"
         d="m 2616.15,1594.1 747.91,411.64 -1537.87,357.7 z" /><path
         id="path18"
         style="fill:#7a18ff;fill-opacity:1;fill-rule:nonzero;stroke:none"
         d="M 850.48,703.641 708.563,1096 H 548.012 L 764.543,548.16 H 934.711 L 1148.99,1096 H 993.516 L 850.48,703.641" /><path
         id="path20"
         style="fill:#7a18ff;fill-opacity:1;fill-rule:nonzero;stroke:none"
         d="m 1446,671.41 c -83.11,0 -145.3,62.192 -145.3,150.942 0,88.769 62.19,150.957 145.3,150.957 83.11,0 145.87,-62.188 145.87,-150.957 0,-88.75 -62.76,-150.942 -145.87,-150.942 z m 0,439.28 c -170.17,0 -295.67,-123.241 -295.67,-288.338 0,-165.082 125.5,-288.321 295.67,-288.321 170.74,0 296.83,123.239 296.83,288.321 0,165.097 -126.09,288.338 -296.83,288.338" /><path
         id="path22"
         style="fill:#7a18ff;fill-opacity:1;fill-rule:nonzero;stroke:none"
         d="M 2310.92,1096 H 2140.19 L 2022.59,925.828 1904.42,1096 H 1729.17 L 1925.35,826.32 1724.07,548.16 h 170.74 l 120.98,174.129 123.27,-174.129 h 175.25 L 2114.75,826.879 2310.92,1096" /><path
         id="path24"
         style="fill:#7a18ff;fill-opacity:1;fill-rule:nonzero;stroke:none"
         d="m 3300.29,671.41 c -83.11,0 -145.3,62.192 -145.3,150.942 0,88.769 62.19,150.957 145.3,150.957 83.11,0 145.86,-62.188 145.86,-150.957 0,-88.75 -62.75,-150.942 -145.86,-150.942 z m 0,439.28 c -170.17,0 -295.68,-123.241 -295.68,-288.338 0,-165.082 125.51,-288.321 295.68,-288.321 170.74,0 296.82,123.239 296.82,288.321 0,165.097 -126.08,288.338 -296.82,288.338" /><path
         id="path26"
         style="fill:#7a18ff;fill-opacity:1;fill-rule:nonzero;stroke:none"
         d="m 4392.05,860.66 c 13.01,67.852 53.73,109.68 123.25,109.68 63.34,0 105.73,-39.57 119.29,-109.68 z m 390.68,-50.879 c -0.56,170.739 -108.55,287.769 -266.28,287.769 -163.96,0 -277.03,-117.589 -277.03,-290.03 0,-172.43 116.45,-286.629 284.37,-286.629 92.16,0 171.3,25.988 233.5,83.089 l -86.51,94.981 c -39.57,-33.34 -91.01,-52.57 -138.51,-52.57 -69.54,0 -124.94,34.488 -140.78,113.629 h 388.4 c 1.71,12.449 2.84,32.808 2.84,49.761" /><path
         id="path28"
         style="fill:#7a18ff;fill-opacity:1;fill-rule:nonzero;stroke:none"
         d="m 4174.79,882.418 v -346.84 h -146.72 v 299.621 c 0,78.711 -39.34,121.992 -106.24,121.992 -62.96,0 -115.24,-41.031 -115.24,-123.113 v -298.5 h -146.72 v 544.712 h 142.79 v -64.07 c 38.79,57.9 98.37,78.69 160.21,78.69 123.67,0 211.92,-86 211.92,-212.492" /><path
         id="path30"
         style="fill:#7a18ff;fill-opacity:1;fill-rule:nonzero;stroke:none"
         d="m 2657.84,671.621 c -83.67,0 -140.78,64.449 -140.78,150.938 0,86.511 57.11,150.961 140.78,150.961 87.06,0 141.32,-67.282 141.32,-150.961 0,-83.661 -54.26,-150.938 -141.32,-150.938 z m 27.13,439.279 c -73.5,0 -124.94,-28.83 -160.56,-71.8 v 349.14 L 2377.4,1307.16 V 548.371 h 144.17 v 60.488 c 35.62,-44.089 88.21,-74.621 163.96,-74.621 150.94,0 265.16,123.813 265.16,288.321 0,164.531 -114.22,288.341 -265.72,288.341" /></g></g></svg>