<svg xmlns="http://www.w3.org/2000/svg" viewBox="0 0 1654 2000" width="1654" height="2000">
	<defs>
		<clipPath clipPathUnits="userSpaceOnUse" id="cp1">
			<path d="M0 0L1654 0L1654 2000L0 2000Z" />
		</clipPath>
	</defs>
	<style>
		tspan { white-space:pre }
		.shp0 { fill: none;stroke: #ffffff;stroke-width: 2 }
		path { fill: #000000; }
		@media (prefers-color-scheme: dark) {
			path { fill: #ffffff; }
		}
	</style>
	<g id="Page 1" clip-path="url(#cp1)">
		<path id="C " d="M1134.34 64.49L1134.34 64.49C1104.36 64.49 1074.39 64.49 1046.91 64.49C1036.92 64.49 1031.92 66.99 1024.43 69.48C1019.43 69.48 1016.93 66.99 1014.44 66.99C1004.44 69.48 999.45 74.48 989.46 74.48C986.96 74.48 984.46 76.98 981.96 79.48C984.46 84.47 984.46 86.97 986.96 91.97C981.96 86.97 976.97 79.48 969.47 81.97C959.48 89.47 949.49 96.96 939.5 104.46C932 111.95 919.51 116.95 914.52 126.94C914.52 134.43 922.01 136.93 927.01 136.93C924.51 144.42 922.01 149.42 917.01 156.91C919.51 159.41 922.01 164.41 922.01 169.4C919.51 169.4 917.01 174.4 912.02 169.4C912.02 161.91 912.02 154.42 912.02 146.92C909.52 146.92 904.52 146.92 899.53 146.92C899.53 151.92 894.53 156.91 894.53 161.91C897.03 174.4 889.54 184.39 889.54 196.88C884.54 209.37 889.54 221.86 894.53 231.85C892.03 239.35 892.03 249.34 889.54 256.83C889.54 281.81 892.03 309.29 889.54 334.27C889.54 341.77 892.03 349.26 892.03 356.75C892.03 359.25 889.54 359.25 887.04 359.25C889.54 369.24 887.04 379.24 884.54 389.23C882.04 399.22 887.04 409.21 892.03 419.2C889.54 429.2 889.54 439.19 889.54 446.68C887.04 461.67 889.54 476.66 887.04 491.65C889.54 501.64 887.04 514.13 892.03 521.62C894.53 521.62 899.53 521.62 902.03 519.12C899.53 521.62 897.03 521.62 892.03 524.12C889.54 531.61 884.54 539.11 889.54 546.6C889.54 546.6 887.04 546.6 884.54 549.1C887.04 559.09 892.03 569.08 892.03 579.08C894.53 576.58 894.53 571.58 897.03 569.08C902.03 566.59 909.52 566.59 917.01 566.59C917.01 561.59 912.02 559.09 909.52 556.59C912.02 556.59 912.02 556.59 914.52 556.59C917.01 556.59 922.01 559.09 924.51 561.59C927.01 566.59 927.01 571.58 929.5 576.58C929.5 576.58 934.5 579.08 934.5 579.08C927.01 581.57 919.51 574.08 919.51 566.59C914.52 566.59 912.02 571.58 909.52 574.08C914.52 584.07 919.51 594.06 919.51 604.06C917.01 601.56 914.52 601.56 914.52 601.56C912.02 599.06 912.02 596.56 912.02 594.06C907.02 594.06 902.03 594.06 899.53 594.06C897.03 589.07 897.03 586.57 897.03 581.57C897.03 581.57 892.03 581.57 889.54 581.57C889.54 591.57 889.54 601.56 889.54 611.55C889.54 611.55 887.04 614.05 884.54 614.05C889.54 619.04 889.54 624.04 894.53 626.54C899.53 631.53 904.52 631.53 909.52 634.03C912.02 641.53 912.02 649.02 912.02 654.02C909.52 656.51 907.02 659.01 904.52 661.51C897.03 661.51 892.03 659.01 887.04 656.51C889.54 666.51 889.54 679 894.53 688.99C892.03 691.49 889.54 691.49 889.54 693.98C889.54 706.47 879.54 718.96 884.54 731.45C889.54 743.94 889.54 758.93 887.04 771.42C884.54 776.42 889.54 781.41 887.04 786.41C882.04 796.4 889.54 808.89 889.54 821.38C884.54 833.87 892.03 848.86 882.04 861.35C887.04 871.34 887.04 881.33 879.54 888.83C879.54 893.82 879.54 898.82 879.54 903.82C882.04 903.82 884.54 903.82 884.54 903.82C879.54 916.31 884.54 928.8 882.04 941.29C884.54 953.78 882.04 966.27 882.04 978.76C882.04 998.74 882.04 1018.72 882.04 1036.21C877.05 1056.19 879.54 1073.68 882.04 1091.17C884.54 1101.16 879.54 1106.15 882.04 1116.15C882.04 1121.14 884.54 1128.64 882.04 1133.63C879.54 1143.62 879.54 1153.62 879.54 1163.61C882.04 1173.6 879.54 1186.09 884.54 1198.58C884.54 1206.07 889.54 1211.07 889.54 1216.07C892.03 1221.06 887.04 1221.06 884.54 1223.56C887.04 1226.06 887.04 1228.56 887.04 1231.05C887.04 1238.55 884.54 1243.54 882.04 1248.54C882.04 1253.54 882.04 1261.03 882.04 1266.03C877.05 1283.51 882.04 1301 877.05 1318.48C882.04 1328.48 882.04 1343.46 879.54 1353.46C877.05 1360.95 879.54 1368.44 879.54 1375.94C882.04 1385.93 877.05 1395.92 877.05 1405.91C877.05 1408.41 874.55 1408.41 874.55 1410.91C879.54 1418.4 879.54 1428.4 879.54 1435.89C882.04 1445.88 877.05 1455.87 879.54 1463.37C879.54 1480.85 882.04 1498.34 877.05 1515.83C879.54 1523.32 877.05 1530.81 877.05 1538.31C879.54 1543.3 877.05 1550.8 874.55 1558.29C882.04 1563.29 879.54 1575.78 879.54 1583.27C877.05 1593.26 877.05 1600.76 879.54 1610.75C877.05 1620.74 882.04 1630.73 879.54 1640.73C879.54 1645.72 877.05 1650.72 879.54 1655.71C882.04 1668.2 879.54 1683.19 879.54 1695.68C882.04 1703.18 877.05 1708.17 877.05 1715.67C877.05 1723.16 879.54 1728.16 882.04 1735.65C879.54 1740.65 877.05 1748.14 879.54 1755.63C882.04 1765.63 879.54 1778.12 879.54 1788.11C882.04 1788.11 887.04 1788.11 889.54 1788.11C887.04 1793.1 884.54 1800.6 884.54 1805.59C887.04 1815.59 889.54 1823.08 892.03 1830.57C892.03 1838.07 892.03 1845.56 894.53 1850.56C889.54 1860.55 897.03 1868.04 902.03 1875.54C907.02 1875.54 914.52 1875.54 919.51 1875.54C919.51 1878.04 922.01 1880.53 922.01 1880.53C919.51 1880.53 914.52 1880.53 909.52 1880.53C909.52 1888.03 914.52 1895.52 917.01 1900.52C919.51 1900.52 924.51 1898.02 927.01 1898.02C927.01 1900.52 929.5 1905.51 932 1908.01C937 1908.01 939.5 1908.01 944.49 1908.01C946.99 1910.51 951.99 1915.51 954.48 1918C964.48 1923 976.97 1920.5 986.96 1918C994.45 1920.5 1004.44 1923 1011.94 1925.5C1021.93 1923 1029.42 1923 1039.42 1920.5C1044.41 1920.5 1051.91 1923 1056.9 1923C1079.38 1923 1099.37 1923 1121.85 1923C1126.85 1920.5 1134.34 1920.5 1141.83 1923C1164.32 1923 1186.8 1920.5 1209.28 1925.5C1229.26 1920.5 1249.25 1923 1269.23 1923C1279.22 1925.5 1289.22 1925.5 1301.71 1925.5C1309.2 1925.5 1316.69 1923 1321.69 1920.5C1331.68 1918 1339.18 1918 1349.17 1915.51C1356.66 1923 1366.65 1925.5 1376.65 1920.5C1384.14 1923 1391.63 1923 1399.13 1920.5C1416.61 1920.5 1436.6 1920.5 1451.59 1913.01C1456.58 1915.51 1459.08 1918 1461.58 1918C1469.07 1915.51 1476.57 1915.51 1486.56 1915.51C1494.05 1913.01 1499.05 1908.01 1506.54 1908.01C1506.54 1908.01 1506.54 1913.01 1506.54 1913.01C1521.53 1905.51 1536.52 1900.52 1549.01 1893.02C1556.5 1888.03 1559 1880.53 1561.5 1873.04C1564 1868.04 1571.49 1863.05 1573.99 1855.55C1576.49 1843.06 1578.98 1830.57 1581.48 1818.08C1586.48 1810.59 1583.98 1800.6 1586.48 1793.1C1588.98 1783.11 1588.98 1773.12 1583.98 1765.63C1591.47 1758.13 1588.98 1748.14 1588.98 1738.15C1588.98 1730.65 1586.48 1723.16 1586.48 1715.67C1591.47 1695.68 1588.98 1675.7 1588.98 1653.22C1588.98 1648.22 1583.98 1643.22 1583.98 1638.23C1583.98 1633.23 1588.98 1628.24 1586.48 1623.24C1586.48 1610.75 1586.48 1598.26 1586.48 1585.77C1586.48 1575.78 1583.98 1568.28 1586.48 1560.79C1586.48 1558.29 1583.98 1558.29 1583.98 1558.29C1586.48 1550.8 1581.48 1543.3 1581.48 1535.81C1586.48 1530.81 1583.98 1520.82 1583.98 1513.33C1586.48 1495.84 1583.98 1478.36 1586.48 1460.87C1583.98 1453.38 1581.48 1445.88 1581.48 1438.39C1578.98 1433.39 1573.99 1428.4 1571.49 1425.9C1564 1418.4 1554 1418.4 1549.01 1408.41C1549.01 1410.91 1546.51 1410.91 1544.01 1413.41C1541.51 1415.91 1541.51 1420.9 1539.02 1423.4C1536.52 1423.4 1534.02 1423.4 1529.02 1423.4C1531.52 1418.4 1534.02 1413.41 1531.52 1408.41C1526.53 1410.91 1521.53 1413.41 1516.53 1413.41C1516.53 1410.91 1516.53 1408.41 1516.53 1405.91C1511.54 1403.42 1506.54 1403.42 1501.55 1403.42C1494.05 1405.91 1486.56 1405.91 1476.57 1405.91C1459.08 1408.41 1439.1 1400.92 1421.61 1405.91C1414.12 1408.41 1406.62 1400.92 1399.13 1400.92C1394.13 1403.42 1391.63 1403.42 1389.14 1405.91C1384.14 1403.42 1376.65 1403.42 1371.65 1403.42C1366.65 1408.41 1361.66 1410.91 1356.66 1410.91C1354.16 1408.41 1354.16 1408.41 1354.16 1405.91C1346.67 1408.41 1336.68 1410.91 1326.69 1408.41C1324.19 1408.41 1321.69 1403.42 1321.69 1400.92C1321.69 1403.42 1321.69 1408.41 1319.19 1410.91C1314.2 1418.4 1321.69 1428.4 1321.69 1435.89C1326.69 1430.89 1334.18 1433.39 1339.18 1433.39C1339.18 1435.89 1341.67 1440.89 1339.18 1443.38C1334.18 1445.88 1329.18 1445.88 1324.19 1445.88C1316.69 1455.87 1316.69 1465.87 1321.69 1475.86C1321.69 1475.86 1324.19 1473.36 1326.69 1473.36C1324.19 1483.35 1324.19 1493.34 1324.19 1505.83C1329.18 1510.83 1336.68 1513.33 1336.68 1520.82C1334.18 1523.32 1331.68 1523.32 1329.18 1523.32C1326.69 1518.32 1324.19 1513.33 1321.69 1508.33C1319.19 1513.33 1319.19 1515.83 1316.69 1518.32C1319.19 1523.32 1321.69 1528.32 1326.69 1533.31C1321.69 1533.31 1319.19 1535.81 1316.69 1535.81C1316.69 1543.3 1316.69 1548.3 1319.19 1555.79C1321.69 1565.79 1319.19 1573.28 1316.69 1583.27C1316.69 1585.77 1311.7 1588.27 1309.2 1590.77C1311.7 1590.77 1314.2 1590.77 1319.19 1593.26C1316.69 1595.76 1316.69 1598.26 1316.69 1600.76C1326.69 1608.25 1319.19 1623.24 1326.69 1633.23C1329.18 1635.73 1334.18 1635.73 1336.68 1635.73C1339.18 1633.23 1339.18 1630.73 1341.67 1628.24C1339.18 1635.73 1341.67 1643.22 1336.68 1648.22C1334.18 1655.71 1334.18 1663.21 1331.68 1668.2C1331.68 1668.2 1329.18 1665.71 1329.18 1665.71C1326.69 1665.71 1326.69 1668.2 1324.19 1668.2C1324.19 1668.2 1321.69 1665.71 1321.69 1663.21C1319.19 1670.7 1319.19 1675.7 1316.69 1680.69C1311.7 1683.19 1304.2 1680.69 1301.71 1678.2C1294.21 1678.2 1289.22 1678.2 1284.22 1678.2C1286.72 1675.7 1289.22 1673.2 1291.71 1670.7C1286.72 1668.2 1284.22 1675.7 1281.72 1680.69C1274.23 1683.19 1266.73 1683.19 1261.74 1685.69C1256.74 1683.19 1254.24 1683.19 1251.75 1680.69C1249.25 1683.19 1249.25 1683.19 1246.75 1685.69C1234.26 1688.19 1224.27 1680.69 1211.78 1683.19C1204.28 1683.19 1199.29 1680.69 1191.79 1678.2C1191.79 1670.7 1194.29 1663.21 1201.79 1660.71C1199.29 1658.21 1194.29 1658.21 1191.79 1655.71C1189.3 1658.21 1186.8 1663.21 1184.3 1660.71C1179.3 1660.71 1176.81 1655.71 1171.81 1653.22C1164.32 1648.22 1156.82 1643.22 1149.33 1635.73C1146.83 1638.23 1144.33 1638.23 1141.83 1640.73C1141.83 1635.73 1141.83 1630.73 1141.83 1625.74C1146.83 1625.74 1149.33 1628.24 1154.32 1630.73C1156.82 1630.73 1161.82 1630.73 1166.81 1630.73C1169.31 1623.24 1166.81 1618.24 1169.31 1610.75C1169.31 1603.26 1176.81 1598.26 1174.31 1590.77C1174.31 1578.28 1176.81 1563.29 1171.81 1548.3C1171.81 1538.31 1176.81 1528.32 1176.81 1518.32C1171.81 1498.34 1176.81 1475.86 1174.31 1455.87C1171.81 1445.88 1171.81 1438.39 1174.31 1428.4C1176.81 1408.41 1174.31 1388.43 1174.31 1370.94C1176.81 1360.95 1169.31 1350.96 1174.31 1343.46C1176.81 1333.47 1174.31 1323.48 1174.31 1313.49C1176.81 1305.99 1171.81 1298.5 1171.81 1288.51C1171.81 1281.01 1176.81 1276.02 1174.31 1268.52C1171.81 1253.54 1171.81 1236.05 1174.31 1221.06C1174.31 1211.07 1169.31 1198.58 1174.31 1186.09C1174.31 1173.6 1176.81 1161.11 1171.81 1148.62C1176.81 1128.64 1174.31 1108.65 1171.81 1088.67C1169.31 1086.17 1169.31 1081.17 1171.81 1078.68C1174.31 1071.18 1171.81 1063.69 1171.81 1056.19C1171.81 1048.7 1169.31 1043.7 1171.81 1038.71C1179.3 1023.72 1171.81 1006.23 1171.81 991.25C1171.81 986.25 1169.31 983.75 1171.81 978.76C1174.31 968.76 1171.81 958.77 1169.31 948.78C1169.31 936.29 1169.31 921.3 1171.81 908.81C1176.81 896.32 1166.81 883.83 1171.81 873.84C1174.31 866.35 1171.81 858.85 1169.31 851.36C1169.31 838.87 1169.31 823.88 1171.81 811.39C1174.31 803.9 1169.31 796.4 1169.31 788.91C1169.31 781.41 1176.81 776.42 1174.31 768.92C1171.81 758.93 1171.81 746.44 1169.31 736.45C1169.31 736.45 1174.31 736.45 1174.31 736.45C1176.81 723.96 1174.31 708.97 1174.31 696.48C1176.81 681.49 1174.31 664.01 1176.81 649.02C1176.81 634.03 1179.3 619.04 1176.81 604.06C1174.31 591.57 1176.81 579.08 1174.31 566.59C1174.31 551.6 1174.31 536.61 1176.81 524.12C1176.81 519.12 1174.31 516.63 1174.31 514.13C1179.3 499.14 1171.81 484.15 1179.3 471.66C1176.81 464.17 1174.31 456.67 1174.31 446.68C1176.81 439.19 1176.81 429.2 1181.8 421.7C1179.3 416.71 1176.81 414.21 1176.81 409.21C1174.31 404.22 1176.81 396.72 1174.31 389.23C1171.81 381.73 1174.31 371.74 1169.31 364.25C1176.81 354.26 1181.8 344.26 1179.3 331.77C1186.8 329.28 1186.8 321.78 1189.3 316.79C1196.79 316.79 1204.28 316.79 1211.78 316.79C1221.77 316.79 1229.26 311.79 1239.26 309.29C1241.75 311.79 1244.25 314.29 1249.25 314.29C1254.24 311.79 1264.24 304.3 1271.73 309.29C1276.73 311.79 1284.22 311.79 1289.22 316.79C1291.71 324.28 1299.21 321.78 1306.7 324.28C1311.7 326.78 1319.19 326.78 1324.19 326.78C1326.69 331.77 1326.69 336.77 1329.18 341.77C1331.68 349.26 1334.18 356.75 1334.18 364.25C1331.68 364.25 1329.18 366.75 1326.69 366.75C1326.69 371.74 1326.69 376.74 1326.69 381.73C1331.68 379.24 1334.18 376.74 1336.68 374.24C1339.18 379.24 1341.67 384.23 1344.17 389.23C1341.67 391.73 1339.18 394.22 1336.68 391.73C1336.68 389.23 1336.68 384.23 1336.68 381.73C1329.18 379.24 1326.69 386.73 1326.69 391.73C1326.69 394.22 1324.19 394.22 1324.19 394.22C1326.69 399.22 1324.19 404.22 1321.69 406.71C1329.18 411.71 1324.19 419.2 1321.69 424.2C1324.19 426.7 1326.69 429.2 1326.69 431.69C1324.19 431.69 1321.69 431.69 1319.19 431.69C1321.69 436.69 1324.19 441.69 1326.69 446.68C1331.68 446.68 1336.68 446.68 1341.67 449.18C1339.18 446.68 1339.18 444.18 1339.18 441.69C1334.18 439.19 1326.69 436.69 1326.69 431.69C1331.68 431.69 1336.68 431.69 1341.67 431.69C1341.67 436.69 1344.17 441.69 1344.17 446.68C1344.17 456.67 1349.17 464.17 1349.17 474.16C1349.17 479.16 1354.16 484.15 1349.17 486.65C1346.67 494.14 1341.67 496.64 1341.67 504.14C1349.17 504.14 1356.66 504.14 1364.16 506.63C1361.66 511.63 1359.16 516.63 1356.66 519.12C1361.66 519.12 1364.16 516.63 1366.65 514.13C1374.15 514.13 1379.14 521.62 1389.14 521.62C1399.13 521.62 1409.12 521.62 1419.11 521.62C1436.6 516.63 1454.08 521.62 1471.57 516.63C1484.06 521.62 1496.55 519.12 1511.54 519.12C1514.04 519.12 1519.03 516.63 1521.53 514.13C1524.03 516.63 1529.02 519.12 1534.02 521.62C1546.51 516.63 1564 519.12 1573.99 511.63C1573.99 506.63 1573.99 504.14 1571.49 501.64C1573.99 499.14 1576.49 499.14 1576.49 496.64C1576.49 496.64 1573.99 494.14 1573.99 494.14C1576.49 489.15 1576.49 486.65 1578.98 484.15C1576.49 479.16 1573.99 476.66 1571.49 471.66C1568.99 479.16 1566.49 489.15 1561.5 494.14C1561.5 491.65 1559 489.15 1559 486.65C1546.51 496.64 1534.02 501.64 1521.53 506.63C1519.03 506.63 1516.53 504.14 1516.53 504.14C1521.53 499.14 1526.53 494.14 1526.53 486.65C1519.03 486.65 1514.04 489.15 1509.04 489.15C1509.04 486.65 1511.54 484.15 1514.04 479.16C1526.53 474.16 1539.02 479.16 1549.01 476.66C1549.01 471.66 1551.51 466.67 1549.01 461.67C1549.01 456.67 1546.51 454.18 1549.01 451.68C1551.51 446.68 1556.5 446.68 1559 446.68C1559 446.68 1559 451.68 1559 451.68C1556.5 451.68 1554 451.68 1549.01 451.68C1554 456.67 1564 456.67 1566.49 464.17C1568.99 461.67 1568.99 456.67 1571.49 454.18C1571.49 456.67 1573.99 459.17 1573.99 459.17C1578.98 456.67 1581.48 454.18 1583.98 451.68C1583.98 451.68 1583.98 449.18 1583.98 446.68C1581.48 446.68 1578.98 444.18 1573.99 444.18C1573.99 446.68 1573.99 451.68 1573.99 454.18C1573.99 454.18 1571.49 454.18 1568.99 454.18C1568.99 446.68 1571.49 441.69 1571.49 434.19C1576.49 431.69 1581.48 431.69 1586.48 431.69C1586.48 429.2 1581.48 429.2 1578.98 429.2C1581.48 429.2 1581.48 426.7 1583.98 424.2C1581.48 424.2 1581.48 421.7 1581.48 419.2C1583.98 419.2 1586.48 419.2 1586.48 419.2C1586.48 401.72 1591.47 381.73 1583.98 366.75C1596.47 356.75 1586.48 341.77 1586.48 329.28C1588.98 321.78 1586.48 311.79 1588.98 304.3C1591.47 294.3 1591.47 284.31 1588.98 274.32C1586.48 266.83 1586.48 259.33 1588.98 254.34C1588.98 244.34 1581.48 236.85 1586.48 226.86C1588.98 216.87 1586.48 206.87 1586.48 199.38C1583.98 184.39 1583.98 169.4 1581.48 156.91C1573.99 139.43 1566.49 124.44 1559 106.95C1554 101.96 1546.51 101.96 1539.02 99.46C1531.52 89.47 1521.53 79.48 1509.04 76.98C1499.05 74.48 1491.55 76.98 1481.56 76.98C1479.06 81.97 1476.57 86.97 1474.07 89.47C1474.07 86.97 1471.57 84.47 1469.07 84.47C1471.57 79.48 1471.57 76.98 1474.07 71.98C1464.08 71.98 1454.08 71.98 1446.59 76.98C1439.1 69.48 1431.6 71.98 1424.11 71.98C1416.61 71.98 1411.62 66.99 1406.62 64.49C1394.13 64.49 1384.14 64.49 1371.65 64.49C1361.66 61.99 1349.17 61.99 1336.68 61.99C1324.19 61.99 1311.7 64.49 1301.71 66.99C1294.21 69.48 1289.22 64.49 1281.72 64.49C1269.23 64.49 1256.74 61.99 1241.75 66.99C1229.26 69.48 1216.77 61.99 1204.28 61.99C1196.79 64.49 1189.3 64.49 1181.8 64.49C1174.31 64.49 1169.31 66.99 1161.82 66.99C1151.83 66.99 1144.33 61.99 1134.34 64.49ZM1259.24 1678.2L1259.24 1678.2C1259.24 1680.69 1259.24 1683.19 1261.74 1683.19C1264.24 1678.2 1261.74 1678.2 1259.24 1678.2ZM1339.18 1540.81L1339.18 1540.81C1339.18 1548.3 1346.67 1535.81 1339.18 1540.81ZM1559 479.16L1559 479.16C1554 486.65 1566.49 479.16 1559 479.16ZM1321.69 454.18L1321.69 454.18C1324.19 456.67 1324.19 459.17 1326.69 464.17C1329.18 464.17 1331.68 464.17 1331.68 464.17C1331.68 461.67 1331.68 459.17 1331.68 456.67C1329.18 456.67 1324.19 454.18 1321.69 454.18ZM1494.05 436.69L1494.05 436.69C1491.55 439.19 1496.55 444.18 1499.05 441.69C1501.55 439.19 1496.55 434.19 1494.05 436.69ZM1521.53 429.2L1521.53 429.2C1516.53 436.69 1529.02 429.2 1521.53 429.2ZM1179.3 356.75L1179.3 356.75C1176.81 359.25 1179.3 361.75 1181.8 359.25C1184.3 356.75 1181.8 356.75 1179.3 356.75ZM1219.27 66.99L1219.27 66.99C1221.77 66.99 1221.77 66.99 1219.27 66.99ZM1226.77 66.99L1226.77 66.99C1229.26 66.99 1229.26 66.99 1226.77 66.99L1226.77 66.99ZM1019.43 74.48L1019.43 74.48C1024.43 74.48 1026.93 76.98 1031.92 76.98C1029.42 79.48 1029.42 81.97 1026.93 81.97C1024.43 81.97 1019.43 81.97 1016.93 81.97C1016.93 79.48 1019.43 76.98 1019.43 74.48ZM1256.74 84.47L1256.74 84.47C1256.74 79.48 1259.24 76.98 1261.74 74.48C1266.73 76.98 1271.73 79.48 1276.73 81.97C1269.23 84.47 1264.24 84.47 1256.74 84.47ZM1244.25 79.48L1244.25 79.48C1246.75 76.98 1251.75 79.48 1249.25 81.97C1246.75 84.47 1239.26 81.97 1244.25 79.48ZM1089.38 81.97L1089.38 81.97C1094.37 79.48 1094.37 86.97 1091.87 86.97C1086.88 89.47 1084.38 81.97 1089.38 81.97ZM1059.4 86.97L1059.4 86.97C1064.4 89.47 1066.89 89.47 1071.89 91.97C1066.89 91.97 1064.4 91.97 1059.4 91.97C1059.4 91.97 1059.4 89.47 1059.4 86.97ZM969.47 101.96L969.47 101.96C974.47 99.46 974.47 109.45 971.97 109.45C966.97 111.95 966.97 104.46 969.47 101.96ZM1389.14 99.46L1389.14 99.46C1391.63 99.46 1394.13 101.96 1391.63 104.46C1389.14 106.95 1386.64 104.46 1389.14 99.46ZM934.5 121.94L934.5 121.94C939.5 121.94 944.49 121.94 951.99 121.94C949.49 126.94 946.99 129.44 946.99 134.43C941.99 131.93 937 131.93 932 131.93C932 129.44 934.5 124.44 934.5 121.94ZM902.03 151.92L902.03 151.92C904.52 151.92 904.52 151.92 902.03 151.92ZM1311.7 284.31L1311.7 284.31C1314.2 284.31 1319.19 284.31 1321.69 289.31C1311.7 289.31 1304.2 291.81 1296.71 299.3C1294.21 301.8 1291.71 301.8 1286.72 301.8C1286.72 301.8 1286.72 299.3 1289.22 296.8C1289.22 296.8 1291.71 294.3 1294.21 291.81C1294.21 291.81 1294.21 289.31 1291.71 286.81C1296.71 289.31 1299.21 289.31 1304.2 291.81C1306.7 289.31 1309.2 286.81 1311.7 284.31ZM1149.33 354.26L1149.33 354.26C1154.32 346.76 1156.82 334.27 1166.81 334.27C1166.81 336.77 1166.81 339.27 1166.81 341.77C1164.32 341.77 1161.82 341.77 1159.32 341.77C1159.32 346.76 1161.82 349.26 1161.82 354.26C1161.82 359.25 1159.32 364.25 1156.82 369.24C1154.32 364.25 1149.33 359.25 1149.33 354.26ZM1521.53 361.75L1521.53 361.75C1524.03 361.75 1526.53 361.75 1526.53 361.75C1526.53 369.24 1529.02 374.24 1529.02 381.73C1526.53 374.24 1521.53 369.24 1521.53 361.75ZM1146.83 364.25L1146.83 364.25C1149.33 366.75 1149.33 366.75 1146.83 369.24C1144.33 366.75 1144.33 366.75 1146.83 364.25ZM1511.54 366.75L1511.54 366.75C1514.04 366.75 1516.53 366.75 1519.03 369.24C1519.03 369.24 1519.03 374.24 1519.03 374.24C1516.53 374.24 1514.04 374.24 1511.54 374.24C1511.54 371.74 1511.54 369.24 1511.54 366.75ZM1151.83 371.74L1151.83 371.74C1156.82 374.24 1151.83 381.73 1146.83 379.24C1146.83 374.24 1149.33 371.74 1151.83 371.74ZM1526.53 386.73L1526.53 386.73C1529.02 384.23 1531.52 381.73 1531.52 379.24C1534.02 381.73 1536.52 386.73 1539.02 389.23C1536.52 394.22 1536.52 399.22 1531.52 404.22C1526.53 399.22 1521.53 394.22 1516.53 386.73C1516.53 386.73 1519.03 384.23 1519.03 381.73C1521.53 384.23 1524.03 384.23 1526.53 386.73ZM1139.34 381.73L1139.34 381.73C1146.83 381.73 1134.34 389.23 1139.34 381.73ZM1149.33 384.23L1149.33 384.23C1151.83 384.23 1154.32 384.23 1156.82 384.23C1159.32 389.23 1159.32 396.72 1154.32 401.72C1151.83 396.72 1151.83 391.73 1149.33 384.23ZM1144.33 414.21L1144.33 414.21C1139.34 409.21 1141.83 399.22 1149.33 396.72C1151.83 404.22 1149.33 409.21 1144.33 414.21ZM1166.81 401.72L1166.81 401.72C1169.31 401.72 1169.31 401.72 1166.81 401.72ZM1539.02 411.71L1539.02 411.71C1546.51 411.71 1534.02 419.2 1539.02 411.71ZM1389.14 419.2L1389.14 419.2C1391.63 419.2 1394.13 424.2 1394.13 426.7C1391.63 431.69 1384.14 424.2 1389.14 419.2ZM1514.04 421.7L1514.04 421.7C1521.53 421.7 1531.52 419.2 1536.52 424.2C1534.02 426.7 1531.52 429.2 1529.02 434.19C1529.02 439.19 1536.52 439.19 1541.51 441.69C1536.52 441.69 1534.02 444.18 1529.02 446.68C1531.52 446.68 1534.02 446.68 1536.52 446.68C1534.02 454.18 1534.02 459.17 1536.52 464.17C1534.02 464.17 1531.52 464.17 1529.02 464.17C1526.53 466.67 1529.02 471.66 1526.53 474.16C1524.03 471.66 1524.03 466.67 1524.03 464.17C1519.03 459.17 1519.03 454.18 1524.03 446.68C1519.03 444.18 1514.04 441.69 1509.04 441.69C1511.54 446.68 1514.04 451.68 1514.04 459.17C1511.54 459.17 1509.04 461.67 1504.04 461.67C1504.04 456.67 1501.55 451.68 1501.55 446.68C1499.05 449.18 1496.55 451.68 1494.05 454.18C1494.05 456.67 1496.55 459.17 1499.05 464.17C1496.55 466.67 1494.05 469.16 1491.55 471.66C1489.06 466.67 1489.06 464.17 1489.06 461.67C1484.06 461.67 1479.06 464.17 1474.07 466.67C1471.57 464.17 1469.07 459.17 1466.57 454.18C1466.57 454.18 1469.07 454.18 1471.57 454.18C1471.57 451.68 1474.07 449.18 1476.57 446.68C1476.57 446.68 1479.06 449.18 1481.56 449.18C1479.06 444.18 1479.06 439.19 1484.06 434.19C1494.05 431.69 1504.04 426.7 1516.53 429.2C1516.53 426.7 1514.04 424.2 1514.04 421.7ZM1131.84 421.7L1131.84 421.7C1136.84 421.7 1136.84 426.7 1134.34 429.2C1131.84 431.69 1131.84 424.2 1131.84 421.7ZM1406.62 436.69L1406.62 436.69C1409.12 431.69 1414.12 426.7 1419.11 421.7C1416.61 426.7 1416.61 431.69 1414.12 436.69C1411.62 436.69 1409.12 436.69 1406.62 436.69ZM1578.98 446.68L1578.98 446.68C1581.48 446.68 1581.48 446.68 1578.98 446.68ZM1139.34 449.18L1139.34 449.18C1141.83 451.68 1144.33 454.18 1146.83 454.18C1146.83 456.67 1146.83 459.17 1146.83 461.67C1149.33 461.67 1149.33 461.67 1151.83 461.67C1149.33 466.67 1149.33 469.16 1146.83 471.66C1144.33 464.17 1141.83 456.67 1139.34 449.18ZM1501.55 481.65L1501.55 481.65C1501.55 476.66 1506.54 471.66 1511.54 469.16C1514.04 476.66 1509.04 481.65 1501.55 481.65ZM1154.32 589.07L1154.32 589.07C1159.32 589.07 1156.82 599.06 1154.32 596.56C1151.83 594.06 1151.83 591.57 1154.32 589.07ZM917.01 606.55L917.01 606.55C919.51 604.06 922.01 609.05 919.51 611.55C917.01 614.05 914.52 609.05 917.01 606.55ZM912.02 659.01L912.02 659.01C917.01 656.51 917.01 666.51 914.52 666.51C909.52 666.51 909.52 661.51 912.02 659.01ZM904.52 911.31L904.52 911.31C909.52 916.31 912.02 921.3 912.02 928.8C902.03 926.3 904.52 916.31 904.52 911.31ZM907.02 1186.09L907.02 1186.09C904.52 1178.6 904.52 1168.6 912.02 1163.61C914.52 1173.6 912.02 1181.09 907.02 1186.09ZM902.03 1188.59L902.03 1188.59C907.02 1188.59 914.52 1188.59 917.01 1193.58C919.51 1201.08 914.52 1206.07 912.02 1211.07C907.02 1208.57 899.53 1203.58 894.53 1201.08C894.53 1201.08 894.53 1196.08 894.53 1196.08C897.03 1196.08 899.53 1198.58 904.52 1198.58C904.52 1196.08 907.02 1196.08 907.02 1193.58C907.02 1193.58 904.52 1191.09 902.03 1188.59ZM892.03 1258.53L892.03 1258.53C894.53 1253.54 897.03 1251.04 902.03 1256.03C902.03 1258.53 899.53 1263.53 899.53 1268.52C894.53 1266.03 892.03 1261.03 892.03 1258.53ZM887.04 1335.97L887.04 1335.97C894.53 1333.47 899.53 1348.46 892.03 1350.96C889.54 1345.96 889.54 1340.97 887.04 1335.97ZM1394.13 1423.4L1394.13 1423.4C1399.13 1418.4 1406.62 1418.4 1411.62 1418.4C1409.12 1425.9 1399.13 1425.9 1394.13 1423.4ZM1446.59 1428.4L1446.59 1428.4C1451.59 1423.4 1459.08 1420.9 1466.57 1418.4C1464.08 1423.4 1461.58 1425.9 1456.58 1428.4C1454.08 1428.4 1449.09 1428.4 1446.59 1428.4ZM1484.06 1420.9L1484.06 1420.9C1489.06 1420.9 1494.05 1418.4 1496.55 1418.4C1496.55 1420.9 1496.55 1425.9 1499.05 1428.4C1494.05 1425.9 1489.06 1423.4 1484.06 1420.9ZM1544.01 1425.9L1544.01 1425.9C1546.51 1425.9 1546.51 1425.9 1544.01 1425.9ZM1346.67 1500.84L1346.67 1500.84C1349.17 1508.33 1346.67 1515.83 1346.67 1523.32C1346.67 1518.32 1344.17 1515.83 1341.67 1510.83C1344.17 1508.33 1344.17 1505.83 1346.67 1500.84ZM1144.33 1528.32L1144.33 1528.32C1149.33 1525.82 1151.83 1530.81 1151.83 1533.31C1154.32 1538.31 1149.33 1540.81 1146.83 1543.3C1146.83 1538.31 1146.83 1533.31 1144.33 1528.32ZM1334.18 1545.8L1334.18 1545.8C1334.18 1538.31 1341.67 1533.31 1344.17 1525.82C1344.17 1528.32 1346.67 1528.32 1346.67 1530.81C1346.67 1535.81 1349.17 1543.3 1354.16 1548.3C1351.67 1550.8 1349.17 1553.3 1346.67 1555.79C1341.67 1553.3 1334.18 1553.3 1334.18 1545.8ZM1431.6 1538.31L1431.6 1538.31C1436.6 1543.3 1444.09 1545.8 1451.59 1548.3C1449.09 1548.3 1446.59 1548.3 1444.09 1548.3C1444.09 1550.8 1444.09 1553.3 1444.09 1558.29C1439.1 1553.3 1434.1 1550.8 1429.1 1545.8C1429.1 1543.3 1431.6 1540.81 1431.6 1538.31ZM1346.67 1558.29L1346.67 1558.29C1349.17 1558.29 1349.17 1558.29 1346.67 1558.29ZM1151.83 1580.77L1151.83 1580.77C1151.83 1593.26 1156.82 1603.26 1154.32 1615.75C1151.83 1605.75 1146.83 1598.26 1146.83 1588.27C1146.83 1588.27 1149.33 1588.27 1151.83 1588.27C1151.83 1585.77 1151.83 1583.27 1151.83 1580.77ZM1279.22 1690.69L1279.22 1690.69C1281.72 1693.18 1291.71 1690.69 1289.22 1695.68C1284.22 1700.68 1279.22 1703.18 1271.73 1705.67C1274.23 1700.68 1276.73 1695.68 1279.22 1690.69ZM1524.03 1870.54L1524.03 1870.54C1526.53 1870.54 1526.53 1870.54 1524.03 1870.54ZM1521.53 1880.53L1521.53 1880.53C1524.03 1880.53 1524.03 1883.03 1521.53 1885.53C1519.03 1883.03 1519.03 1880.53 1521.53 1880.53ZM1271.73 1885.53L1271.73 1885.53C1274.23 1885.53 1274.23 1885.53 1271.73 1885.53Z" />
		<path id="Path 2" class="shp0" d="M1134.34 64.64L1046.91 64.64C1036.92 64.64 1031.92 67.14 1024.43 69.64C1019.43 69.64 1016.93 67.14 1014.44 67.14C1004.44 69.64 999.45 74.63 989.46 74.63C986.96 74.63 984.46 77.13 981.96 79.63C984.46 84.63 984.46 87.12 986.96 92.12C981.96 87.12 976.96 79.63 969.47 82.13C959.48 89.62 949.49 97.12 939.5 104.61C932 112.1 919.51 117.1 914.51 127.09C914.51 134.59 922.01 137.08 927 137.08C924.51 144.58 922.01 149.57 917.01 157.07C919.51 159.57 922.01 164.56 922.01 169.56C919.51 169.56 917.01 174.55 912.02 169.56L912.02 147.08L899.53 147.08C899.53 152.07 894.53 157.07 894.53 162.06C897.03 174.55 889.54 184.55 889.54 197.04C884.54 209.53 889.54 222.02 894.53 232.01C892.03 239.5 892.03 249.49 889.54 256.99C889.54 281.97 892.03 309.45 889.54 334.43C889.54 341.92 892.03 349.41 892.03 356.91C892.03 359.41 889.54 359.41 887.04 359.41C889.54 369.4 887.04 379.39 884.54 389.38C882.04 399.37 887.04 409.37 892.03 419.36C889.54 429.35 889.54 439.34 889.54 446.84C887.04 461.82 889.54 476.81 887.04 491.8C889.54 501.79 887.04 514.28 892.03 521.78C894.53 521.78 899.53 521.78 902.02 519.28C899.53 521.78 897.03 521.78 892.03 524.27C889.54 531.77 884.54 539.26 889.54 546.76C889.54 546.76 887.04 546.76 884.54 549.25C887.04 559.25 892.03 569.24 892.03 579.23C894.53 576.73 894.53 571.74 897.03 569.24C902.02 566.74 909.52 566.74 917.01 566.74C917.01 561.74 912.02 559.25 909.52 556.75L914.51 556.75C917.01 556.75 922.01 559.25 924.51 561.74C927 566.74 927 571.74 929.5 576.73L934.5 579.23C927 581.73 919.51 574.23 919.51 566.74C914.51 566.74 912.02 571.74 909.52 574.23C914.51 584.23 919.51 594.22 919.51 604.21C917.01 601.71 914.51 601.71 914.51 601.71C912.02 599.21 912.02 596.72 912.02 594.22L899.53 594.22C897.03 589.22 897.03 586.72 897.03 581.73L889.54 581.73L889.54 611.7C889.54 611.7 887.04 614.2 884.54 614.2C889.54 619.2 889.54 624.19 894.53 626.69C899.53 631.69 904.52 631.69 909.52 634.19C912.02 641.68 912.02 649.17 912.02 654.17C909.52 656.67 907.02 659.17 904.52 661.66C897.03 661.66 892.03 659.17 887.04 656.67C889.54 666.66 889.54 679.15 894.53 689.14C892.03 691.64 889.54 691.64 889.54 694.14C889.54 706.63 879.54 719.12 884.54 731.61C889.54 744.1 889.54 759.09 887.04 771.58C884.54 776.57 889.54 781.57 887.04 786.56C882.04 796.56 889.54 809.05 889.54 821.54C884.54 834.03 892.03 849.01 882.04 861.5C887.04 871.5 887.04 881.49 879.54 888.98L879.54 903.97L884.54 903.97C879.54 916.46 884.54 928.95 882.04 941.44C884.54 953.93 882.04 966.42 882.04 978.91L882.04 1036.36C877.05 1056.35 879.54 1073.83 882.04 1091.32C884.54 1101.31 879.54 1106.31 882.04 1116.3C882.04 1121.3 884.54 1128.79 882.04 1133.79C879.54 1143.78 879.54 1153.77 879.54 1163.76C882.04 1173.75 879.54 1186.24 884.54 1198.73C884.54 1206.23 889.54 1211.22 889.54 1216.22C892.03 1221.22 887.04 1221.22 884.54 1223.71C887.04 1226.21 887.04 1228.71 887.04 1231.21C887.04 1238.7 884.54 1243.7 882.04 1248.69L882.04 1266.18C877.05 1283.66 882.04 1301.15 877.05 1318.64C882.04 1328.63 882.04 1343.62 879.54 1353.61C877.05 1361.1 879.54 1368.6 879.54 1376.09C882.04 1386.08 877.05 1396.07 877.05 1406.07C877.05 1408.56 874.55 1408.56 874.55 1411.06C879.54 1418.56 879.54 1428.55 879.54 1436.04C882.04 1446.04 877.05 1456.03 879.54 1463.52C879.54 1481.01 882.04 1498.49 877.05 1515.98C879.54 1523.47 877.05 1530.97 877.05 1538.46C879.54 1543.46 877.05 1550.95 874.55 1558.45C882.04 1563.44 879.54 1575.93 879.54 1583.42C877.05 1593.42 877.05 1600.91 879.54 1610.9C877.05 1620.89 882.04 1630.89 879.54 1640.88C879.54 1645.88 877.05 1650.87 879.54 1655.87C882.04 1668.36 879.54 1683.34 879.54 1695.83C882.04 1703.33 877.05 1708.32 877.05 1715.82C877.05 1723.31 879.54 1728.31 882.04 1735.8C879.54 1740.8 877.05 1748.29 879.54 1755.79C882.04 1765.78 879.54 1778.27 879.54 1788.26L889.54 1788.26C887.04 1793.26 884.54 1800.75 884.54 1805.75C887.04 1815.74 889.54 1823.23 892.03 1830.73C892.03 1838.22 892.03 1845.72 894.53 1850.71C889.54 1860.7 897.03 1868.2 902.02 1875.69L919.51 1875.69C919.51 1878.19 922.01 1880.69 922.01 1880.69L909.52 1880.69C909.52 1888.18 914.51 1895.67 917.01 1900.67C919.51 1900.67 924.51 1898.17 927 1898.17C927 1900.67 929.5 1905.67 932 1908.16L944.49 1908.16C946.99 1910.66 951.98 1915.66 954.48 1918.16C964.47 1923.15 976.96 1920.65 986.96 1918.16C994.45 1920.65 1004.44 1923.15 1011.94 1925.65C1021.93 1923.15 1029.42 1923.15 1039.41 1920.65C1044.41 1920.65 1051.9 1923.15 1056.9 1923.15L1121.85 1923.15C1126.84 1920.65 1134.34 1920.65 1141.83 1923.15C1164.31 1923.15 1186.8 1920.65 1209.28 1925.65C1229.26 1920.65 1249.25 1923.15 1269.23 1923.15C1279.22 1925.65 1289.21 1925.65 1301.71 1925.65C1309.2 1925.65 1316.69 1923.15 1321.69 1920.65C1331.68 1918.16 1339.17 1918.16 1349.17 1915.66C1356.66 1923.15 1366.65 1925.65 1376.64 1920.65C1384.14 1923.15 1391.63 1923.15 1399.13 1920.65C1416.61 1920.65 1436.6 1920.65 1451.58 1913.16C1456.58 1915.66 1459.08 1918.16 1461.58 1918.16C1469.07 1915.66 1476.56 1915.66 1486.56 1915.66C1494.05 1913.16 1499.05 1908.16 1506.54 1908.16L1506.54 1913.16C1521.53 1905.67 1536.52 1900.67 1549.01 1893.18C1556.5 1888.18 1559 1880.69 1561.5 1873.19C1563.99 1868.2 1571.49 1863.2 1573.99 1855.71L1581.48 1818.24C1586.48 1810.74 1583.98 1800.75 1586.48 1793.26C1588.97 1783.26 1588.97 1773.27 1583.98 1765.78C1591.47 1758.29 1588.97 1748.29 1588.97 1738.3C1588.97 1730.81 1586.48 1723.31 1586.48 1715.82C1591.47 1695.83 1588.97 1675.85 1588.97 1653.37C1588.97 1648.37 1583.98 1643.38 1583.98 1638.38C1583.98 1633.39 1588.97 1628.39 1586.48 1623.39L1586.48 1585.92C1586.48 1575.93 1583.98 1568.44 1586.48 1560.94C1586.48 1558.45 1583.98 1558.45 1583.98 1558.45C1586.48 1550.95 1581.48 1543.46 1581.48 1535.96C1586.48 1530.97 1583.98 1520.98 1583.98 1513.48C1586.48 1495.99 1583.98 1478.51 1586.48 1461.02C1583.98 1453.53 1581.48 1446.04 1581.48 1438.54C1578.98 1433.55 1573.99 1428.55 1571.49 1426.05C1563.99 1418.56 1554 1418.56 1549.01 1408.56C1549.01 1411.06 1546.51 1411.06 1544.01 1413.56C1541.51 1416.06 1541.51 1421.06 1539.01 1423.55L1529.02 1423.55C1531.52 1418.56 1534.02 1413.56 1531.52 1408.56C1526.52 1411.06 1521.53 1413.56 1516.53 1413.56L1516.53 1406.07C1511.54 1403.57 1506.54 1403.57 1501.55 1403.57C1494.05 1406.07 1486.56 1406.07 1476.56 1406.07C1459.08 1408.56 1439.09 1401.07 1421.61 1406.07C1414.12 1408.56 1406.62 1401.07 1399.13 1401.07C1394.13 1403.57 1391.63 1403.57 1389.13 1406.07C1384.14 1403.57 1376.64 1403.57 1371.65 1403.57C1366.65 1408.56 1361.66 1411.06 1356.66 1411.06C1354.16 1408.56 1354.16 1408.56 1354.16 1406.07C1346.67 1408.56 1336.68 1411.06 1326.68 1408.56C1324.19 1408.56 1321.69 1403.57 1321.69 1401.07C1321.69 1403.57 1321.69 1408.56 1319.19 1411.06C1314.2 1418.56 1321.69 1428.55 1321.69 1436.04C1326.68 1431.05 1334.18 1433.55 1339.17 1433.55C1339.17 1436.04 1341.67 1441.04 1339.17 1443.54C1334.18 1446.04 1329.18 1446.04 1324.19 1446.04C1316.69 1456.03 1316.69 1466.02 1321.69 1476.01C1321.69 1476.01 1324.19 1473.51 1326.68 1473.51C1324.19 1483.5 1324.19 1493.5 1324.19 1505.99C1329.18 1510.98 1336.68 1513.48 1336.68 1520.98C1334.18 1523.47 1331.68 1523.47 1329.18 1523.47C1326.68 1518.48 1324.19 1513.48 1321.69 1508.48C1319.19 1513.48 1319.19 1515.98 1316.69 1518.48C1319.19 1523.47 1321.69 1528.47 1326.68 1533.47C1321.69 1533.47 1319.19 1535.96 1316.69 1535.96C1316.69 1543.46 1316.69 1548.45 1319.19 1555.95C1321.69 1565.94 1319.19 1573.43 1316.69 1583.42C1316.69 1585.92 1311.7 1588.42 1309.2 1590.92C1311.7 1590.92 1314.2 1590.92 1319.19 1593.42C1316.69 1595.91 1316.69 1598.41 1316.69 1600.91C1326.68 1608.4 1319.19 1623.39 1326.68 1633.39C1329.18 1635.88 1334.18 1635.88 1336.68 1635.88C1339.17 1633.39 1339.17 1630.89 1341.67 1628.39C1339.17 1635.88 1341.67 1643.38 1336.68 1648.37C1334.18 1655.87 1334.18 1663.36 1331.68 1668.36L1329.18 1665.86C1326.68 1665.86 1326.68 1668.36 1324.19 1668.36C1324.19 1668.36 1321.69 1665.86 1321.69 1663.36C1319.19 1670.86 1319.19 1675.85 1316.69 1680.85C1311.7 1683.34 1304.2 1680.85 1301.71 1678.35L1284.22 1678.35C1286.72 1675.85 1289.21 1673.35 1291.71 1670.86C1286.72 1668.36 1284.22 1675.85 1281.72 1680.85C1274.23 1683.34 1266.73 1683.34 1261.74 1685.84C1256.74 1683.34 1254.24 1683.34 1251.74 1680.85L1246.75 1685.84C1234.26 1688.34 1224.27 1680.85 1211.78 1683.34C1204.28 1683.34 1199.29 1680.85 1191.79 1678.35C1191.79 1670.86 1194.29 1663.36 1201.79 1660.86C1199.29 1658.37 1194.29 1658.37 1191.79 1655.87C1189.3 1658.37 1186.8 1663.36 1184.3 1660.86C1179.3 1660.86 1176.8 1655.87 1171.81 1653.37C1164.31 1648.37 1156.82 1643.38 1149.33 1635.88C1146.83 1638.38 1144.33 1638.38 1141.83 1640.88L1141.83 1625.89C1146.83 1625.89 1149.33 1628.39 1154.32 1630.89L1166.81 1630.89C1169.31 1623.39 1166.81 1618.4 1169.31 1610.9C1169.31 1603.41 1176.8 1598.41 1174.31 1590.92C1174.31 1578.43 1176.8 1563.44 1171.81 1548.45C1171.81 1538.46 1176.8 1528.47 1176.8 1518.48C1171.81 1498.49 1176.8 1476.01 1174.31 1456.03C1171.81 1446.04 1171.81 1438.54 1174.31 1428.55C1176.8 1408.56 1174.31 1388.58 1174.31 1371.1C1176.8 1361.1 1169.31 1351.11 1174.31 1343.62C1176.8 1333.63 1174.31 1323.63 1174.31 1313.64C1176.8 1306.15 1171.81 1298.65 1171.81 1288.66C1171.81 1281.17 1176.8 1276.17 1174.31 1268.68C1171.81 1253.69 1171.81 1236.2 1174.31 1221.22C1174.31 1211.22 1169.31 1198.73 1174.31 1186.24C1174.31 1173.75 1176.8 1161.26 1171.81 1148.77C1176.8 1128.79 1174.31 1108.81 1171.81 1088.82C1169.31 1086.32 1169.31 1081.33 1171.81 1078.83C1174.31 1071.34 1171.81 1063.84 1171.81 1056.35C1171.81 1048.85 1169.31 1043.86 1171.81 1038.86C1179.3 1023.87 1171.81 1006.39 1171.81 991.4C1171.81 986.4 1169.31 983.9 1171.81 978.91C1174.31 968.92 1171.81 958.93 1169.31 948.93C1169.31 936.44 1169.31 921.46 1171.81 908.97C1176.8 896.48 1166.81 883.99 1171.81 873.99C1174.31 866.5 1171.81 859.01 1169.31 851.51C1169.31 839.02 1169.31 824.03 1171.81 811.54C1174.31 804.05 1169.31 796.56 1169.31 789.06C1169.31 781.57 1176.8 776.57 1174.31 769.08C1171.81 759.09 1171.81 746.6 1169.31 736.6L1174.31 736.6C1176.8 724.11 1174.31 709.13 1174.31 696.64C1176.8 681.65 1174.31 664.16 1176.8 649.17C1176.8 634.19 1179.3 619.2 1176.8 604.21C1174.31 591.72 1176.8 579.23 1174.31 566.74C1174.31 551.75 1174.31 536.76 1176.8 524.27C1176.8 519.28 1174.31 516.78 1174.31 514.28C1179.3 499.29 1171.81 484.31 1179.3 471.82C1176.8 464.32 1174.31 456.83 1174.31 446.84C1176.8 439.34 1176.8 429.35 1181.8 421.86C1179.3 416.86 1176.8 414.36 1176.8 409.37C1174.31 404.37 1176.8 396.88 1174.31 389.38C1171.81 381.89 1174.31 371.9 1169.31 364.4C1176.8 354.41 1181.8 344.42 1179.3 331.93C1186.8 329.43 1186.8 321.94 1189.3 316.94L1211.78 316.94C1221.77 316.94 1229.26 311.94 1239.25 309.45C1241.75 311.94 1244.25 314.44 1249.25 314.44C1254.24 311.94 1264.23 304.45 1271.73 309.45C1276.72 311.94 1284.22 311.94 1289.21 316.94C1291.71 324.43 1299.21 321.94 1306.7 324.43C1311.7 326.93 1319.19 326.93 1324.19 326.93C1326.68 331.93 1326.68 336.92 1329.18 341.92C1331.68 349.41 1334.18 356.91 1334.18 364.4C1331.68 364.4 1329.18 366.9 1326.68 366.9L1326.68 381.89C1331.68 379.39 1334.18 376.89 1336.68 374.39L1344.17 389.38C1341.67 391.88 1339.17 394.38 1336.68 391.88L1336.68 381.89C1329.18 379.39 1326.68 386.88 1326.68 391.88C1326.68 394.38 1324.19 394.38 1324.19 394.38C1326.68 399.37 1324.19 404.37 1321.69 406.87C1329.18 411.86 1324.19 419.36 1321.69 424.35C1324.19 426.85 1326.68 429.35 1326.68 431.85L1319.19 431.85C1321.69 436.84 1324.19 441.84 1326.68 446.84C1331.68 446.84 1336.68 446.84 1341.67 449.33C1339.17 446.84 1339.17 444.34 1339.17 441.84C1334.18 439.34 1326.68 436.84 1326.68 431.85L1341.67 431.85C1341.67 436.84 1344.17 441.84 1344.17 446.84C1344.17 456.83 1349.17 464.32 1349.17 474.31C1349.17 479.31 1354.16 484.31 1349.17 486.8C1346.67 494.3 1341.67 496.8 1341.67 504.29C1349.17 504.29 1356.66 504.29 1364.15 506.79C1361.66 511.78 1359.16 516.78 1356.66 519.28C1361.66 519.28 1364.15 516.78 1366.65 514.28C1374.15 514.28 1379.14 521.78 1389.13 521.78L1419.11 521.78C1436.6 516.78 1454.08 521.78 1471.57 516.78C1484.06 521.78 1496.55 519.28 1511.54 519.28C1514.04 519.28 1519.03 516.78 1521.53 514.28C1524.03 516.78 1529.02 519.28 1534.02 521.78C1546.51 516.78 1563.99 519.28 1573.99 511.78C1573.99 506.79 1573.99 504.29 1571.49 501.79C1573.99 499.29 1576.48 499.29 1576.48 496.8L1573.99 494.3C1576.48 489.3 1576.48 486.8 1578.98 484.31C1576.48 479.31 1573.99 476.81 1571.49 471.82C1568.99 479.31 1566.49 489.3 1561.5 494.3C1561.5 491.8 1559 489.3 1559 486.8C1546.51 496.8 1534.02 501.79 1521.53 506.79C1519.03 506.79 1516.53 504.29 1516.53 504.29C1521.53 499.29 1526.52 494.3 1526.52 486.8C1519.03 486.8 1514.04 489.3 1509.04 489.3C1509.04 486.8 1511.54 484.31 1514.04 479.31C1526.52 474.31 1539.01 479.31 1549.01 476.81C1549.01 471.82 1551.5 466.82 1549.01 461.82C1549.01 456.83 1546.51 454.33 1549.01 451.83C1551.5 446.84 1556.5 446.84 1559 446.84L1559 451.83L1549.01 451.83C1554 456.83 1563.99 456.83 1566.49 464.32C1568.99 461.82 1568.99 456.83 1571.49 454.33C1571.49 456.83 1573.99 459.33 1573.99 459.33C1578.98 456.83 1581.48 454.33 1583.98 451.83L1583.98 446.84C1581.48 446.84 1578.98 444.34 1573.99 444.34L1573.99 454.33L1568.99 454.33C1568.99 446.84 1571.49 441.84 1571.49 434.35C1576.48 431.85 1581.48 431.85 1586.48 431.85C1586.48 429.35 1581.48 429.35 1578.98 429.35C1581.48 429.35 1581.48 426.85 1583.98 424.35C1581.48 424.35 1581.48 421.86 1581.48 419.36L1586.48 419.36C1586.48 401.87 1591.47 381.89 1583.98 366.9C1596.47 356.91 1586.48 341.92 1586.48 329.43C1588.97 321.94 1586.48 311.94 1588.97 304.45C1591.47 294.46 1591.47 284.47 1588.97 274.47C1586.48 266.98 1586.48 259.49 1588.97 254.49C1588.97 244.5 1581.48 237 1586.48 227.01C1588.97 217.02 1586.48 207.03 1586.48 199.53C1583.98 184.55 1583.98 169.56 1581.48 157.07C1573.99 139.58 1566.49 124.59 1559 107.11C1554 102.11 1546.51 102.11 1539.01 99.61C1531.52 89.62 1521.53 79.63 1509.04 77.13C1499.05 74.63 1491.55 77.13 1481.56 77.13C1479.06 82.13 1476.56 87.12 1474.07 89.62C1474.07 87.12 1471.57 84.63 1469.07 84.63C1471.57 79.63 1471.57 77.13 1474.07 72.14C1464.07 72.14 1454.08 72.14 1446.59 77.13C1439.09 69.64 1431.6 72.14 1424.11 72.14C1416.61 72.14 1411.62 67.14 1406.62 64.64L1371.65 64.64C1361.66 62.14 1349.17 62.14 1336.68 62.14C1324.19 62.14 1311.7 64.64 1301.71 67.14C1294.21 69.64 1289.21 64.64 1281.72 64.64C1269.23 64.64 1256.74 62.14 1241.75 67.14C1229.26 69.64 1216.77 62.14 1204.28 62.14C1196.79 64.64 1189.3 64.64 1181.8 64.64C1174.31 64.64 1169.31 67.14 1161.82 67.14C1151.82 67.14 1144.33 62.14 1134.34 64.64ZM1259.24 1678.35C1259.24 1680.85 1259.24 1683.34 1261.74 1683.34C1264.23 1678.35 1261.74 1678.35 1259.24 1678.35ZM1334.18 1545.96C1334.18 1538.46 1341.67 1533.47 1344.17 1525.97C1344.17 1528.47 1346.67 1528.47 1346.67 1530.97C1346.67 1535.96 1349.17 1543.46 1354.16 1548.45L1346.67 1555.95C1341.67 1553.45 1334.18 1553.45 1334.18 1545.96ZM1559 479.31C1554 486.8 1566.49 479.31 1559 479.31ZM1321.69 454.33C1324.19 456.83 1324.19 459.33 1326.68 464.32L1331.68 464.32L1331.68 456.83C1329.18 456.83 1324.19 454.33 1321.69 454.33ZM1514.04 421.86C1521.53 421.86 1531.52 419.36 1536.52 424.35C1534.02 426.85 1531.52 429.35 1529.02 434.35C1529.02 439.34 1536.52 439.34 1541.51 441.84C1536.52 441.84 1534.02 444.34 1529.02 446.84L1536.52 446.84C1534.02 454.33 1534.02 459.33 1536.52 464.32L1529.02 464.32C1526.52 466.82 1529.02 471.82 1526.52 474.31C1524.03 471.82 1524.03 466.82 1524.03 464.32C1519.03 459.33 1519.03 454.33 1524.03 446.84C1519.03 444.34 1514.04 441.84 1509.04 441.84C1511.54 446.84 1514.04 451.83 1514.04 459.33C1511.54 459.33 1509.04 461.82 1504.04 461.82C1504.04 456.83 1501.55 451.83 1501.55 446.84L1494.05 454.33C1494.05 456.83 1496.55 459.33 1499.05 464.32L1491.55 471.82C1489.05 466.82 1489.05 464.32 1489.05 461.82C1484.06 461.82 1479.06 464.32 1474.07 466.82C1471.57 464.32 1469.07 459.33 1466.57 454.33L1471.57 454.33C1471.57 451.83 1474.07 449.33 1476.56 446.84C1476.56 446.84 1479.06 449.33 1481.56 449.33C1479.06 444.34 1479.06 439.34 1484.06 434.35C1494.05 431.85 1504.04 426.85 1516.53 429.35C1516.53 426.85 1514.04 424.35 1514.04 421.86ZM1521.53 429.35C1516.53 436.84 1529.02 429.35 1521.53 429.35ZM1179.3 356.91C1176.8 359.41 1179.3 361.9 1181.8 359.41C1184.3 356.91 1181.8 356.91 1179.3 356.91ZM1219.27 67.14C1221.77 67.14 1221.77 67.14 1219.27 67.14ZM1226.76 67.14C1229.26 67.14 1229.26 67.14 1226.76 67.14ZM1019.43 74.63C1024.43 74.63 1026.92 77.13 1031.92 77.13C1029.42 79.63 1029.42 82.13 1026.92 82.13L1016.93 82.13C1016.93 79.63 1019.43 77.13 1019.43 74.63ZM1256.74 84.63C1256.74 79.63 1259.24 77.13 1261.74 74.63L1276.72 82.13C1269.23 84.63 1264.23 84.63 1256.74 84.63ZM1244.25 79.63C1246.75 77.13 1251.74 79.63 1249.25 82.13C1246.75 84.63 1239.25 82.13 1244.25 79.63ZM1089.38 82.13C1094.37 79.63 1094.37 87.12 1091.87 87.12C1086.88 89.62 1084.38 82.13 1089.38 82.13ZM1059.4 87.12C1064.39 89.62 1066.89 89.62 1071.89 92.12L1059.4 92.12L1059.4 87.12ZM969.47 102.11C974.47 99.61 974.47 109.61 971.97 109.61C966.97 112.1 966.97 104.61 969.47 102.11ZM1389.13 99.61C1391.63 99.61 1394.13 102.11 1391.63 104.61C1389.13 107.11 1386.64 104.61 1389.13 99.61ZM934.5 122.1L951.98 122.1C949.49 127.09 946.99 129.59 946.99 134.59C941.99 132.09 937 132.09 932 132.09C932 129.59 934.5 124.59 934.5 122.1ZM902.02 152.07C904.52 152.07 904.52 152.07 902.02 152.07ZM1311.7 284.47C1314.2 284.47 1319.19 284.47 1321.69 289.46C1311.7 289.46 1304.2 291.96 1296.71 299.45C1294.21 301.95 1291.71 301.95 1286.72 301.95C1286.72 301.95 1286.72 299.45 1289.21 296.96L1294.21 291.96C1294.21 291.96 1294.21 289.46 1291.71 286.96C1296.71 289.46 1299.21 289.46 1304.2 291.96L1311.7 284.47ZM1149.33 354.41C1154.32 346.92 1156.82 334.43 1166.81 334.43L1166.81 341.92L1159.32 341.92C1159.32 346.92 1161.82 349.41 1161.82 354.41C1161.82 359.41 1159.32 364.4 1156.82 369.4C1154.32 364.4 1149.33 359.41 1149.33 354.41ZM1521.53 361.9L1526.52 361.9C1526.52 369.4 1529.02 374.39 1529.02 381.89C1526.52 374.39 1521.53 369.4 1521.53 361.9ZM1146.83 364.4C1149.33 366.9 1149.33 366.9 1146.83 369.4C1144.33 366.9 1144.33 366.9 1146.83 364.4ZM1511.54 366.9C1514.04 366.9 1516.53 366.9 1519.03 369.4L1519.03 374.39L1511.54 374.39L1511.54 366.9ZM1151.82 371.9C1156.82 374.39 1151.82 381.89 1146.83 379.39C1146.83 374.39 1149.33 371.9 1151.82 371.9ZM1526.52 386.88C1529.02 384.39 1531.52 381.89 1531.52 379.39C1534.02 381.89 1536.52 386.88 1539.01 389.38C1536.52 394.38 1536.52 399.37 1531.52 404.37C1526.52 399.37 1521.53 394.38 1516.53 386.88C1516.53 386.88 1519.03 384.39 1519.03 381.89C1521.53 384.39 1524.03 384.39 1526.52 386.88ZM1139.33 381.89C1146.83 381.89 1134.34 389.38 1139.33 381.89ZM1149.33 384.39L1156.82 384.39C1159.32 389.38 1159.32 396.88 1154.32 401.87C1151.82 396.88 1151.82 391.88 1149.33 384.39ZM1144.33 414.36C1139.33 409.37 1141.83 399.37 1149.33 396.88C1151.82 404.37 1149.33 409.37 1144.33 414.36ZM1166.81 401.87C1169.31 401.87 1169.31 401.87 1166.81 401.87ZM1539.01 411.86C1546.51 411.86 1534.02 419.36 1539.01 411.86ZM1389.13 419.36C1391.63 419.36 1394.13 424.35 1394.13 426.85C1391.63 431.85 1384.14 424.35 1389.13 419.36ZM1494.05 436.84C1491.55 439.34 1496.55 444.34 1499.05 441.84C1501.55 439.34 1496.55 434.35 1494.05 436.84ZM1131.84 421.86C1136.84 421.86 1136.84 426.85 1134.34 429.35C1131.84 431.85 1131.84 424.35 1131.84 421.86ZM1406.62 436.84C1409.12 431.85 1414.12 426.85 1419.11 421.86C1416.61 426.85 1416.61 431.85 1414.12 436.84L1406.62 436.84ZM1578.98 446.84C1581.48 446.84 1581.48 446.84 1578.98 446.84ZM1139.33 449.33C1141.83 451.83 1144.33 454.33 1146.83 454.33L1146.83 461.82L1151.82 461.82C1149.33 466.82 1149.33 469.32 1146.83 471.82C1144.33 464.32 1141.83 456.83 1139.33 449.33ZM1501.55 481.81C1501.55 476.81 1506.54 471.82 1511.54 469.32C1514.04 476.81 1509.04 481.81 1501.55 481.81ZM1154.32 589.22C1159.32 589.22 1156.82 599.21 1154.32 596.72C1151.82 594.22 1151.82 591.72 1154.32 589.22ZM917.01 606.71C919.51 604.21 922.01 609.21 919.51 611.7C917.01 614.2 914.51 609.21 917.01 606.71ZM912.02 659.17C917.01 656.67 917.01 666.66 914.51 666.66C909.52 666.66 909.52 661.66 912.02 659.17ZM904.52 911.46C909.52 916.46 912.02 921.46 912.02 928.95C902.02 926.45 904.52 916.46 904.52 911.46ZM907.02 1186.24C904.52 1178.75 904.52 1168.76 912.02 1163.76C914.51 1173.75 912.02 1181.25 907.02 1186.24ZM902.02 1188.74C907.02 1188.74 914.51 1188.74 917.01 1193.74C919.51 1201.23 914.51 1206.23 912.02 1211.22C907.02 1208.73 899.53 1203.73 894.53 1201.23L894.53 1196.23C897.03 1196.23 899.53 1198.73 904.52 1198.73C904.52 1196.23 907.02 1196.23 907.02 1193.74L902.02 1188.74ZM892.03 1258.69C894.53 1253.69 897.03 1251.19 902.02 1256.19C902.02 1258.69 899.53 1263.68 899.53 1268.68C894.53 1266.18 892.03 1261.18 892.03 1258.69ZM887.04 1336.12C894.53 1333.63 899.53 1348.61 892.03 1351.11C889.54 1346.12 889.54 1341.12 887.04 1336.12ZM1394.13 1423.55C1399.13 1418.56 1406.62 1418.56 1411.62 1418.56C1409.12 1426.05 1399.13 1426.05 1394.13 1423.55ZM1446.59 1428.55C1451.58 1423.55 1459.08 1421.06 1466.57 1418.56C1464.07 1423.55 1461.58 1426.05 1456.58 1428.55L1446.59 1428.55ZM1484.06 1421.06C1489.05 1421.06 1494.05 1418.56 1496.55 1418.56C1496.55 1421.06 1496.55 1426.05 1499.05 1428.55L1484.06 1421.06ZM1544.01 1426.05C1546.51 1426.05 1546.51 1426.05 1544.01 1426.05ZM1346.67 1500.99C1349.17 1508.48 1346.67 1515.98 1346.67 1523.47C1346.67 1518.48 1344.17 1515.98 1341.67 1510.98C1344.17 1508.48 1344.17 1505.99 1346.67 1500.99ZM1144.33 1528.47C1149.33 1525.97 1151.82 1530.97 1151.82 1533.47C1154.32 1538.46 1149.33 1540.96 1146.83 1543.46C1146.83 1538.46 1146.83 1533.47 1144.33 1528.47ZM1339.17 1540.96C1339.17 1548.45 1346.67 1535.96 1339.17 1540.96ZM1431.6 1538.46C1436.6 1543.46 1444.09 1545.96 1451.58 1548.45L1444.09 1548.45L1444.09 1558.45C1439.09 1553.45 1434.1 1550.95 1429.1 1545.96C1429.1 1543.46 1431.6 1540.96 1431.6 1538.46ZM1346.67 1558.45C1349.17 1558.45 1349.17 1558.45 1346.67 1558.45ZM1151.82 1580.93C1151.82 1593.42 1156.82 1603.41 1154.32 1615.9C1151.82 1605.91 1146.83 1598.41 1146.83 1588.42L1151.82 1588.42L1151.82 1580.93ZM1279.22 1690.84C1281.72 1693.34 1291.71 1690.84 1289.21 1695.83C1284.22 1700.83 1279.22 1703.33 1271.73 1705.83L1279.22 1690.84ZM1524.03 1870.7C1526.52 1870.7 1526.52 1870.7 1524.03 1870.7ZM1521.53 1880.69C1524.03 1880.69 1524.03 1883.18 1521.53 1885.68C1519.03 1883.18 1519.03 1880.69 1521.53 1880.69ZM1271.73 1885.68C1274.23 1885.68 1274.23 1885.68 1271.73 1885.68Z" />
		<path id="C " d="M519.81 64.49L519.81 64.49C549.79 64.49 579.76 64.49 607.24 64.49C617.23 64.49 622.23 66.99 629.72 69.48C634.72 69.48 637.22 66.99 639.72 66.99C649.71 69.48 654.7 74.48 664.7 74.48C667.19 74.48 669.69 76.98 672.19 79.48C669.69 84.47 669.69 86.97 667.19 91.97C672.19 86.97 677.19 79.48 684.68 81.97C694.67 89.47 704.66 96.96 714.66 104.46C722.15 111.95 734.64 116.95 739.64 126.94C739.64 134.43 732.14 136.93 727.15 136.93C729.64 144.42 732.14 149.42 737.14 156.91C734.64 159.41 732.14 164.41 732.14 169.4C734.64 169.4 737.14 174.4 742.13 169.4C742.13 161.91 742.13 154.42 742.13 146.92C744.63 146.92 749.63 146.92 754.62 146.92C754.62 151.92 759.62 156.91 759.62 161.91C757.12 174.4 764.62 184.39 764.62 196.88C769.61 209.37 764.62 221.86 759.62 231.85C762.12 239.35 762.12 249.34 764.62 256.83C764.62 281.81 762.12 309.29 764.62 334.27C764.62 341.77 762.12 349.26 762.12 356.75C762.12 359.25 764.62 359.25 767.11 359.25C764.62 369.24 767.11 379.24 769.61 389.23C772.11 399.22 767.11 409.21 762.12 419.2C764.62 429.2 764.62 439.19 764.62 446.68C767.11 461.67 764.62 476.66 767.11 491.65C764.62 501.64 767.11 514.13 762.12 521.62C759.62 521.62 754.62 521.62 752.13 519.12C754.62 521.62 757.12 521.62 762.12 524.12C764.62 531.61 769.61 539.11 764.62 546.6C764.62 546.6 767.11 546.6 769.61 549.1C767.11 559.09 762.12 569.08 762.12 579.08C759.62 576.58 759.62 571.58 757.12 569.08C752.13 566.59 744.63 566.59 737.14 566.59C737.14 561.59 742.13 559.09 744.63 556.59C742.13 556.59 742.13 556.59 739.64 556.59C737.14 556.59 732.14 559.09 729.64 561.59C727.15 566.59 727.15 571.58 724.65 576.58C724.65 576.58 719.65 579.08 719.65 579.08C727.15 581.57 734.64 574.08 734.64 566.59C739.64 566.59 742.13 571.58 744.63 574.08C739.64 584.07 734.64 594.06 734.64 604.06C737.14 601.56 739.64 601.56 739.64 601.56C742.13 599.06 742.13 596.56 742.13 594.06C747.13 594.06 752.13 594.06 754.62 594.06C757.12 589.07 757.12 586.57 757.12 581.57C757.12 581.57 762.12 581.57 764.62 581.57C764.62 591.57 764.62 601.56 764.62 611.55C764.62 611.55 767.11 614.05 769.61 614.05C764.62 619.04 764.62 624.04 759.62 626.54C754.62 631.53 749.63 631.53 744.63 634.03C742.13 641.53 742.13 649.02 742.13 654.02C744.63 656.51 747.13 659.01 749.63 661.51C757.12 661.51 762.12 659.01 767.11 656.51C764.62 666.51 764.62 679 759.62 688.99C762.12 691.49 764.62 691.49 764.62 693.98C764.62 706.47 774.61 718.96 769.61 731.45C764.62 743.94 764.62 758.93 767.11 771.42C769.61 776.42 764.62 781.41 767.11 786.41C772.11 796.4 764.62 808.89 764.62 821.38C769.61 833.87 762.12 848.86 772.11 861.35C767.11 871.34 767.11 881.33 774.61 888.83C774.61 893.82 774.61 898.82 774.61 903.82C772.11 903.82 769.61 903.82 769.61 903.82C774.61 916.31 769.61 928.8 772.11 941.29C769.61 953.78 772.11 966.27 772.11 978.76C772.11 998.74 772.11 1018.72 772.11 1036.21C777.11 1056.19 774.61 1073.68 772.11 1091.17C769.61 1101.16 774.61 1106.15 772.11 1116.15C772.11 1121.14 769.61 1128.64 772.11 1133.63C774.61 1143.62 774.61 1153.62 774.61 1163.61C772.11 1173.6 774.61 1186.09 769.61 1198.58C769.61 1206.07 764.62 1211.07 764.62 1216.07C762.12 1221.06 767.11 1221.06 769.61 1223.56C767.11 1226.06 767.11 1228.56 767.11 1231.05C767.11 1238.55 769.61 1243.54 772.11 1248.54C772.11 1253.54 772.11 1261.03 772.11 1266.03C777.11 1283.51 772.11 1301 777.11 1318.48C772.11 1328.48 772.11 1343.46 774.61 1353.46C777.11 1360.95 774.61 1368.44 774.61 1375.94C772.11 1385.93 777.11 1395.92 777.11 1405.91C777.11 1408.41 779.6 1408.41 779.6 1410.91C774.61 1418.4 774.61 1428.4 774.61 1435.89C772.11 1445.88 777.11 1455.87 774.61 1463.37C774.61 1480.85 772.11 1498.34 777.11 1515.83C774.61 1523.32 777.11 1530.81 777.11 1538.31C774.61 1543.3 777.11 1550.8 779.6 1558.29C772.11 1563.29 774.61 1575.78 774.61 1583.27C777.11 1593.26 777.11 1600.76 774.61 1610.75C777.11 1620.74 772.11 1630.73 774.61 1640.73C774.61 1645.72 777.11 1650.72 774.61 1655.71C772.11 1668.2 774.61 1683.19 774.61 1695.68C772.11 1703.18 777.11 1708.17 777.11 1715.67C777.11 1723.16 774.61 1728.16 772.11 1735.65C774.61 1740.65 777.11 1748.14 774.61 1755.63C772.11 1765.63 774.61 1778.12 774.61 1788.11C772.11 1788.11 767.11 1788.11 764.62 1788.11C767.11 1793.1 769.61 1800.6 769.61 1805.59C767.11 1815.59 764.62 1823.08 762.12 1830.57C762.12 1838.07 762.12 1845.56 759.62 1850.56C764.62 1860.55 757.12 1868.04 752.13 1875.54C747.13 1875.54 739.64 1875.54 734.64 1875.54C734.64 1878.04 732.14 1880.53 732.14 1880.53C734.64 1880.53 739.64 1880.53 744.63 1880.53C744.63 1888.03 739.64 1895.52 737.14 1900.52C734.64 1900.52 729.64 1898.02 727.15 1898.02C727.15 1900.52 724.65 1905.51 722.15 1908.01C717.15 1908.01 714.66 1908.01 709.66 1908.01C707.16 1910.51 702.17 1915.51 699.67 1918C689.68 1923 677.19 1920.5 667.19 1918C659.7 1920.5 649.71 1923 642.21 1925.5C632.22 1923 624.73 1923 614.74 1920.5C609.74 1920.5 602.25 1923 597.25 1923C574.77 1923 554.78 1923 532.3 1923C527.31 1920.5 519.81 1920.5 512.32 1923C489.84 1923 467.35 1920.5 444.87 1925.5C424.89 1920.5 404.9 1923 384.92 1923C374.93 1925.5 364.94 1925.5 352.45 1925.5C344.95 1925.5 337.46 1923 332.46 1920.5C322.47 1918 314.98 1918 304.98 1915.51C297.49 1923 287.5 1925.5 277.51 1920.5C270.01 1923 262.52 1923 255.02 1920.5C237.54 1920.5 217.55 1920.5 202.57 1913.01C197.57 1915.51 195.07 1918 192.57 1918C185.08 1915.51 177.59 1915.51 167.59 1915.51C160.1 1913.01 155.1 1908.01 147.61 1908.01C147.61 1908.01 147.61 1913.01 147.61 1913.01C132.62 1905.51 117.63 1900.52 105.14 1893.02C97.65 1888.03 95.15 1880.53 92.65 1873.04C90.16 1868.04 82.66 1863.05 80.16 1855.55C77.67 1843.06 75.17 1830.57 72.67 1818.08C67.67 1810.59 70.17 1800.6 67.67 1793.1C65.18 1783.11 65.18 1773.12 70.17 1765.63C62.68 1758.13 65.18 1748.14 65.18 1738.15C65.18 1730.65 67.67 1723.16 67.67 1715.67C62.68 1695.68 65.18 1675.7 65.18 1653.22C65.18 1648.22 70.17 1643.22 70.17 1638.23C70.17 1633.23 65.18 1628.24 67.67 1623.24C67.67 1610.75 67.67 1598.26 67.67 1585.77C67.67 1575.78 70.17 1568.28 67.67 1560.79C67.67 1558.29 70.17 1558.29 70.17 1558.29C67.67 1550.8 72.67 1543.3 72.67 1535.81C67.67 1530.81 70.17 1520.82 70.17 1513.33C67.67 1495.84 70.17 1478.36 67.67 1460.87C70.17 1453.38 72.67 1445.88 72.67 1438.39C75.17 1433.39 80.16 1428.4 82.66 1425.9C90.16 1418.4 100.15 1418.4 105.14 1408.41C105.14 1410.91 107.64 1410.91 110.14 1413.41C112.64 1415.91 112.64 1420.9 115.14 1423.4C117.63 1423.4 120.13 1423.4 125.13 1423.4C122.63 1418.4 120.13 1413.41 122.63 1408.41C127.63 1410.91 132.62 1413.41 137.62 1413.41C137.62 1410.91 137.62 1408.41 137.62 1405.91C142.61 1403.42 147.61 1403.42 152.61 1403.42C160.1 1405.91 167.59 1405.91 177.59 1405.91C195.07 1408.41 215.06 1400.92 232.54 1405.91C240.04 1408.41 247.53 1400.92 255.02 1400.92C260.02 1403.42 262.52 1403.42 265.02 1405.91C270.01 1403.42 277.51 1403.42 282.5 1403.42C287.5 1408.41 292.49 1410.91 297.49 1410.91C299.99 1408.41 299.99 1408.41 299.99 1405.91C307.48 1408.41 317.47 1410.91 327.47 1408.41C329.96 1408.41 332.46 1403.42 332.46 1400.92C332.46 1403.42 332.46 1408.41 334.96 1410.91C339.96 1418.4 332.46 1428.4 332.46 1435.89C327.47 1430.89 319.97 1433.39 314.98 1433.39C314.98 1435.89 312.48 1440.89 314.98 1443.38C319.97 1445.88 324.97 1445.88 329.96 1445.88C337.46 1455.87 337.46 1465.87 332.46 1475.86C332.46 1475.86 329.96 1473.36 327.47 1473.36C329.96 1483.35 329.96 1493.34 329.96 1505.83C324.97 1510.83 317.47 1513.33 317.47 1520.82C319.97 1523.32 322.47 1523.32 324.97 1523.32C327.47 1518.32 329.96 1513.33 332.46 1508.33C334.96 1513.33 334.96 1515.83 337.46 1518.32C334.96 1523.32 332.46 1528.32 327.47 1533.31C332.46 1533.31 334.96 1535.81 337.46 1535.81C337.46 1543.3 337.46 1548.3 334.96 1555.79C332.46 1565.79 334.96 1573.28 337.46 1583.27C337.46 1585.77 342.45 1588.27 344.95 1590.77C342.45 1590.77 339.96 1590.77 334.96 1593.26C337.46 1595.76 337.46 1598.26 337.46 1600.76C327.47 1608.25 334.96 1623.24 327.47 1633.23C324.97 1635.73 319.97 1635.73 317.47 1635.73C314.98 1633.23 314.98 1630.73 312.48 1628.24C314.98 1635.73 312.48 1643.22 317.47 1648.22C319.97 1655.71 319.97 1663.21 322.47 1668.2C322.47 1668.2 324.97 1665.71 324.97 1665.71C327.47 1665.71 327.47 1668.2 329.96 1668.2C329.96 1668.2 332.46 1665.71 332.46 1663.21C334.96 1670.7 334.96 1675.7 337.46 1680.69C342.45 1683.19 349.95 1680.69 352.45 1678.2C359.94 1678.2 364.94 1678.2 369.93 1678.2C367.43 1675.7 364.94 1673.2 362.44 1670.7C367.43 1668.2 369.93 1675.7 372.43 1680.69C379.92 1683.19 387.42 1683.19 392.41 1685.69C397.41 1683.19 399.91 1683.19 402.41 1680.69C404.9 1683.19 404.9 1683.19 407.4 1685.69C419.89 1688.19 429.88 1680.69 442.37 1683.19C449.87 1683.19 454.86 1680.69 462.36 1678.2C462.36 1670.7 459.86 1663.21 452.37 1660.71C454.86 1658.21 459.86 1658.21 462.36 1655.71C464.86 1658.21 467.35 1663.21 469.85 1660.71C474.85 1660.71 477.35 1655.71 482.34 1653.22C489.84 1648.22 497.33 1643.22 504.82 1635.73C507.32 1638.23 509.82 1638.23 512.32 1640.73C512.32 1635.73 512.32 1630.73 512.32 1625.74C507.32 1625.74 504.82 1628.24 499.83 1630.73C497.33 1630.73 492.33 1630.73 487.34 1630.73C484.84 1623.24 487.34 1618.24 484.84 1610.75C484.84 1603.26 477.35 1598.26 479.84 1590.77C479.84 1578.28 477.35 1563.29 482.34 1548.3C482.34 1538.31 477.35 1528.32 477.35 1518.32C482.34 1498.34 477.35 1475.86 479.84 1455.87C482.34 1445.88 482.34 1438.39 479.84 1428.4C477.35 1408.41 479.84 1388.43 479.84 1370.94C477.35 1360.95 484.84 1350.96 479.84 1343.46C477.35 1333.47 479.84 1323.48 479.84 1313.49C477.35 1305.99 482.34 1298.5 482.34 1288.51C482.34 1281.01 477.35 1276.02 479.84 1268.52C482.34 1253.54 482.34 1236.05 479.84 1221.06C479.84 1211.07 484.84 1198.58 479.84 1186.09C479.84 1173.6 477.35 1161.11 482.34 1148.62C477.35 1128.64 479.84 1108.65 482.34 1088.67C484.84 1086.17 484.84 1081.17 482.34 1078.68C479.84 1071.18 482.34 1063.69 482.34 1056.19C482.34 1048.7 484.84 1043.7 482.34 1038.71C474.85 1023.72 482.34 1006.23 482.34 991.25C482.34 986.25 484.84 983.75 482.34 978.76C479.84 968.76 482.34 958.77 484.84 948.78C484.84 936.29 484.84 921.3 482.34 908.81C477.35 896.32 487.34 883.83 482.34 873.84C479.84 866.35 482.34 858.85 484.84 851.36C484.84 838.87 484.84 823.88 482.34 811.39C479.84 803.9 484.84 796.4 484.84 788.91C484.84 781.41 477.35 776.42 479.84 768.92C482.34 758.93 482.34 746.44 484.84 736.45C484.84 736.45 479.84 736.45 479.84 736.45C477.35 723.96 479.84 708.97 479.84 696.48C477.35 681.49 479.84 664.01 477.35 649.02C477.35 634.03 474.85 619.04 477.35 604.06C479.84 591.57 477.35 579.08 479.84 566.59C479.84 551.6 479.84 536.61 477.35 524.12C477.35 519.12 479.84 516.63 479.84 514.13C474.85 499.14 482.34 484.15 474.85 471.66C477.35 464.17 479.84 456.67 479.84 446.68C477.35 439.19 477.35 429.2 472.35 421.7C474.85 416.71 477.35 414.21 477.35 409.21C479.84 404.22 477.35 396.72 479.84 389.23C482.34 381.73 479.84 371.74 484.84 364.25C477.35 354.26 472.35 344.26 474.85 331.77C467.35 329.28 467.35 321.78 464.86 316.79C457.36 316.79 449.87 316.79 442.37 316.79C432.38 316.79 424.89 311.79 414.9 309.29C412.4 311.79 409.9 314.29 404.9 314.29C399.91 311.79 389.92 304.3 382.42 309.29C377.43 311.79 369.93 311.79 364.94 316.79C362.44 324.28 354.94 321.78 347.45 324.28C342.45 326.78 334.96 326.78 329.96 326.78C327.47 331.77 327.47 336.77 324.97 341.77C322.47 349.26 319.97 356.75 319.97 364.25C322.47 364.25 324.97 366.75 327.47 366.75C327.47 371.74 327.47 376.74 327.47 381.73C322.47 379.24 319.97 376.74 317.47 374.24C314.98 379.24 312.48 384.23 309.98 389.23C312.48 391.73 314.98 394.22 317.47 391.73C317.47 389.23 317.47 384.23 317.47 381.73C324.97 379.24 327.47 386.73 327.47 391.73C327.47 394.22 329.96 394.22 329.96 394.22C327.47 399.22 329.96 404.22 332.46 406.71C324.97 411.71 329.96 419.2 332.46 424.2C329.96 426.7 327.47 429.2 327.47 431.69C329.96 431.69 332.46 431.69 334.96 431.69C332.46 436.69 329.96 441.69 327.47 446.68C322.47 446.68 317.47 446.68 312.48 449.18C314.98 446.68 314.98 444.18 314.98 441.69C319.97 439.19 327.47 436.69 327.47 431.69C322.47 431.69 317.47 431.69 312.48 431.69C312.48 436.69 309.98 441.69 309.98 446.68C309.98 456.67 304.98 464.17 304.98 474.16C304.98 479.16 299.99 484.15 304.98 486.65C307.48 494.14 312.48 496.64 312.48 504.14C304.98 504.14 297.49 504.14 290 506.63C292.49 511.63 294.99 516.63 297.49 519.12C292.49 519.12 290 516.63 287.5 514.13C280 514.13 275.01 521.62 265.02 521.62C255.02 521.62 245.03 521.62 235.04 521.62C217.55 516.63 200.07 521.62 182.58 516.63C170.09 521.62 157.6 519.12 142.61 519.12C140.12 519.12 135.12 516.63 132.62 514.13C130.12 516.63 125.13 519.12 120.13 521.62C107.64 516.63 90.16 519.12 80.16 511.63C80.16 506.63 80.16 504.14 82.66 501.64C80.16 499.14 77.67 499.14 77.67 496.64C77.67 496.64 80.16 494.14 80.16 494.14C77.67 489.15 77.67 486.65 75.17 484.15C77.67 479.16 80.16 476.66 82.66 471.66C85.16 479.16 87.66 489.15 92.65 494.14C92.65 491.65 95.15 489.15 95.15 486.65C107.64 496.64 120.13 501.64 132.62 506.63C135.12 506.63 137.62 504.14 137.62 504.14C132.62 499.14 127.63 494.14 127.63 486.65C135.12 486.65 140.12 489.15 145.11 489.15C145.11 486.65 142.61 484.15 140.12 479.16C127.63 474.16 115.14 479.16 105.14 476.66C105.14 471.66 102.65 466.67 105.14 461.67C105.14 456.67 107.64 454.18 105.14 451.68C102.65 446.68 97.65 446.68 95.15 446.68C95.15 446.68 95.15 451.68 95.15 451.68C97.65 451.68 100.15 451.68 105.14 451.68C100.15 456.67 90.16 456.67 87.66 464.17C85.16 461.67 85.16 456.67 82.66 454.18C82.66 456.67 80.16 459.17 80.16 459.17C75.17 456.67 72.67 454.18 70.17 451.68C70.17 451.68 70.17 449.18 70.17 446.68C72.67 446.68 75.17 444.18 80.16 444.18C80.16 446.68 80.16 451.68 80.16 454.18C80.16 454.18 82.66 454.18 85.16 454.18C85.16 446.68 82.66 441.69 82.66 434.19C77.67 431.69 72.67 431.69 67.67 431.69C67.67 429.2 72.67 429.2 75.17 429.2C72.67 429.2 72.67 426.7 70.17 424.2C72.67 424.2 72.67 421.7 72.67 419.2C70.17 419.2 67.67 419.2 67.67 419.2C67.67 401.72 62.68 381.73 70.17 366.75C57.68 356.75 67.67 341.77 67.67 329.28C65.18 321.78 67.67 311.79 65.18 304.3C62.68 294.3 62.68 284.31 65.18 274.32C67.67 266.83 67.67 259.33 65.18 254.34C65.18 244.34 72.67 236.85 67.67 226.86C65.18 216.87 67.67 206.87 67.67 199.38C70.17 184.39 70.17 169.4 72.67 156.91C80.16 139.43 87.66 124.44 95.15 106.95C100.15 101.96 107.64 101.96 115.14 99.46C122.63 89.47 132.62 79.48 145.11 76.98C155.1 74.48 162.6 76.98 172.59 76.98C175.09 81.97 177.59 86.97 180.08 89.47C180.08 86.97 182.58 84.47 185.08 84.47C182.58 79.48 182.58 76.98 180.08 71.98C190.08 71.98 200.07 71.98 207.56 76.98C215.06 69.48 222.55 71.98 230.04 71.98C237.54 71.98 242.53 66.99 247.53 64.49C260.02 64.49 270.01 64.49 282.5 64.49C292.49 61.99 304.98 61.99 317.47 61.99C329.96 61.99 342.45 64.49 352.45 66.99C359.94 69.48 364.94 64.49 372.43 64.49C384.92 64.49 397.41 61.99 412.4 66.99C424.89 69.48 437.38 61.99 449.87 61.99C457.36 64.49 464.86 64.49 472.35 64.49C479.84 64.49 484.84 66.99 492.33 66.99C502.33 66.99 509.82 61.99 519.81 64.49ZM394.91 1678.2L394.91 1678.2C394.91 1680.69 394.91 1683.19 392.41 1683.19C389.92 1678.2 392.41 1678.2 394.91 1678.2ZM314.98 1540.81L314.98 1540.81C314.98 1548.3 307.48 1535.81 314.98 1540.81ZM95.15 479.16L95.15 479.16C100.15 486.65 87.66 479.16 95.15 479.16ZM332.46 454.18L332.46 454.18C329.96 456.67 329.96 459.17 327.47 464.17C324.97 464.17 322.47 464.17 322.47 464.17C322.47 461.67 322.47 459.17 322.47 456.67C324.97 456.67 329.96 454.18 332.46 454.18ZM160.1 436.69L160.1 436.69C162.6 439.19 157.6 444.18 155.1 441.69C152.61 439.19 157.6 434.19 160.1 436.69ZM132.62 429.2L132.62 429.2C137.62 436.69 125.13 429.2 132.62 429.2ZM474.85 356.75L474.85 356.75C477.35 359.25 474.85 361.75 472.35 359.25C469.85 356.75 472.35 356.75 474.85 356.75ZM434.88 66.99L434.88 66.99C432.38 66.99 432.38 66.99 434.88 66.99ZM427.39 66.99L427.39 66.99C424.89 66.99 424.89 66.99 427.39 66.99L427.39 66.99ZM634.72 74.48L634.72 74.48C629.72 74.48 627.23 76.98 622.23 76.98C624.73 79.48 624.73 81.97 627.23 81.97C629.72 81.97 634.72 81.97 637.22 81.97C637.22 79.48 634.72 76.98 634.72 74.48ZM397.41 84.47L397.41 84.47C397.41 79.48 394.91 76.98 392.41 74.48C387.42 76.98 382.42 79.48 377.43 81.97C384.92 84.47 389.92 84.47 397.41 84.47ZM409.9 79.48L409.9 79.48C407.4 76.98 402.41 79.48 404.9 81.97C407.4 84.47 414.9 81.97 409.9 79.48ZM564.78 81.97L564.78 81.97C559.78 79.48 559.78 86.97 562.28 86.97C567.27 89.47 569.77 81.97 564.78 81.97ZM594.75 86.97L594.75 86.97C589.76 89.47 587.26 89.47 582.26 91.97C587.26 91.97 589.76 91.97 594.75 91.97C594.75 91.97 594.75 89.47 594.75 86.97ZM684.68 101.96L684.68 101.96C679.68 99.46 679.68 109.45 682.18 109.45C687.18 111.95 687.18 104.46 684.68 101.96ZM265.02 99.46L265.02 99.46C262.52 99.46 260.02 101.96 262.52 104.46C265.02 106.95 267.51 104.46 265.02 99.46ZM719.65 121.94L719.65 121.94C714.66 121.94 709.66 121.94 702.17 121.94C704.66 126.94 707.16 129.44 707.16 134.43C712.16 131.93 717.15 131.93 722.15 131.93C722.15 129.44 719.65 124.44 719.65 121.94ZM752.13 151.92L752.13 151.92C749.63 151.92 749.63 151.92 752.13 151.92ZM342.45 284.31L342.45 284.31C339.96 284.31 334.96 284.31 332.46 289.31C342.45 289.31 349.95 291.81 357.44 299.3C359.94 301.8 362.44 301.8 367.43 301.8C367.43 301.8 367.43 299.3 364.94 296.8C364.94 296.8 362.44 294.3 359.94 291.81C359.94 291.81 359.94 289.31 362.44 286.81C357.44 289.31 354.94 289.31 349.95 291.81C347.45 289.31 344.95 286.81 342.45 284.31ZM504.82 354.26L504.82 354.26C499.83 346.76 497.33 334.27 487.34 334.27C487.34 336.77 487.34 339.27 487.34 341.77C489.84 341.77 492.33 341.77 494.83 341.77C494.83 346.76 492.33 349.26 492.33 354.26C492.33 359.25 494.83 364.25 497.33 369.24C499.83 364.25 504.82 359.25 504.82 354.26ZM132.62 361.75L132.62 361.75C130.12 361.75 127.63 361.75 127.63 361.75C127.63 369.24 125.13 374.24 125.13 381.73C127.63 374.24 132.62 369.24 132.62 361.75ZM507.32 364.25L507.32 364.25C504.82 366.75 504.82 366.75 507.32 369.24C509.82 366.75 509.82 366.75 507.32 364.25ZM142.61 366.75L142.61 366.75C140.12 366.75 137.62 366.75 135.12 369.24C135.12 369.24 135.12 374.24 135.12 374.24C137.62 374.24 140.12 374.24 142.61 374.24C142.61 371.74 142.61 369.24 142.61 366.75ZM502.33 371.74L502.33 371.74C497.33 374.24 502.33 381.73 507.32 379.24C507.32 374.24 504.82 371.74 502.33 371.74ZM127.63 386.73L127.63 386.73C125.13 384.23 122.63 381.73 122.63 379.24C120.13 381.73 117.63 386.73 115.14 389.23C117.63 394.22 117.63 399.22 122.63 404.22C127.63 399.22 132.62 394.22 137.62 386.73C137.62 386.73 135.12 384.23 135.12 381.73C132.62 384.23 130.12 384.23 127.63 386.73ZM514.82 381.73L514.82 381.73C507.32 381.73 519.81 389.23 514.82 381.73ZM504.82 384.23L504.82 384.23C502.33 384.23 499.83 384.23 497.33 384.23C494.83 389.23 494.83 396.72 499.83 401.72C502.33 396.72 502.33 391.73 504.82 384.23ZM509.82 414.21L509.82 414.21C514.82 409.21 512.32 399.22 504.82 396.72C502.33 404.22 504.82 409.21 509.82 414.21ZM487.34 401.72L487.34 401.72C484.84 401.72 484.84 401.72 487.34 401.72ZM115.14 411.71L115.14 411.71C107.64 411.71 120.13 419.2 115.14 411.71ZM265.02 419.2L265.02 419.2C262.52 419.2 260.02 424.2 260.02 426.7C262.52 431.69 270.01 424.2 265.02 419.2ZM140.12 421.7L140.12 421.7C132.62 421.7 122.63 419.2 117.63 424.2C120.13 426.7 122.63 429.2 125.13 434.19C125.13 439.19 117.63 439.19 112.64 441.69C117.63 441.69 120.13 444.18 125.13 446.68C122.63 446.68 120.13 446.68 117.63 446.68C120.13 454.18 120.13 459.17 117.63 464.17C120.13 464.17 122.63 464.17 125.13 464.17C127.63 466.67 125.13 471.66 127.63 474.16C130.12 471.66 130.12 466.67 130.12 464.17C135.12 459.17 135.12 454.18 130.12 446.68C135.12 444.18 140.12 441.69 145.11 441.69C142.61 446.68 140.12 451.68 140.12 459.17C142.61 459.17 145.11 461.67 150.11 461.67C150.11 456.67 152.61 451.68 152.61 446.68C155.1 449.18 157.6 451.68 160.1 454.18C160.1 456.67 157.6 459.17 155.1 464.17C157.6 466.67 160.1 469.16 162.6 471.66C165.1 466.67 165.1 464.17 165.1 461.67C170.09 461.67 175.09 464.17 180.08 466.67C182.58 464.17 185.08 459.17 187.58 454.18C187.58 454.18 185.08 454.18 182.58 454.18C182.58 451.68 180.08 449.18 177.59 446.68C177.59 446.68 175.09 449.18 172.59 449.18C175.09 444.18 175.09 439.19 170.09 434.19C160.1 431.69 150.11 426.7 137.62 429.2C137.62 426.7 140.12 424.2 140.12 421.7ZM522.31 421.7L522.31 421.7C517.31 421.7 517.31 426.7 519.81 429.2C522.31 431.69 522.31 424.2 522.31 421.7ZM247.53 436.69L247.53 436.69C245.03 431.69 240.04 426.7 235.04 421.7C237.54 426.7 237.54 431.69 240.04 436.69C242.53 436.69 245.03 436.69 247.53 436.69ZM75.17 446.68L75.17 446.68C72.67 446.68 72.67 446.68 75.17 446.68ZM514.82 449.18L514.82 449.18C512.32 451.68 509.82 454.18 507.32 454.18C507.32 456.67 507.32 459.17 507.32 461.67C504.82 461.67 504.82 461.67 502.33 461.67C504.82 466.67 504.82 469.16 507.32 471.66C509.82 464.17 512.32 456.67 514.82 449.18ZM152.61 481.65L152.61 481.65C152.61 476.66 147.61 471.66 142.61 469.16C140.12 476.66 145.11 481.65 152.61 481.65ZM499.83 589.07L499.83 589.07C494.83 589.07 497.33 599.06 499.83 596.56C502.33 594.06 502.33 591.57 499.83 589.07ZM737.14 606.55L737.14 606.55C734.64 604.06 732.14 609.05 734.64 611.55C737.14 614.05 739.64 609.05 737.14 606.55ZM742.13 659.01L742.13 659.01C737.14 656.51 737.14 666.51 739.64 666.51C744.63 666.51 744.63 661.51 742.13 659.01ZM749.63 911.31L749.63 911.31C744.63 916.31 742.13 921.3 742.13 928.8C752.13 926.3 749.63 916.31 749.63 911.31ZM747.13 1186.09L747.13 1186.09C749.63 1178.6 749.63 1168.6 742.13 1163.61C739.64 1173.6 742.13 1181.09 747.13 1186.09ZM752.13 1188.59L752.13 1188.59C747.13 1188.59 739.64 1188.59 737.14 1193.58C734.64 1201.08 739.64 1206.07 742.13 1211.07C747.13 1208.57 754.62 1203.58 759.62 1201.08C759.62 1201.08 759.62 1196.08 759.62 1196.08C757.12 1196.08 754.62 1198.58 749.63 1198.58C749.63 1196.08 747.13 1196.08 747.13 1193.58C747.13 1193.58 749.63 1191.09 752.13 1188.59ZM762.12 1258.53L762.12 1258.53C759.62 1253.54 757.12 1251.04 752.13 1256.03C752.13 1258.53 754.62 1263.53 754.62 1268.52C759.62 1266.03 762.12 1261.03 762.12 1258.53ZM767.11 1335.97L767.11 1335.97C759.62 1333.47 754.62 1348.46 762.12 1350.96C764.62 1345.96 764.62 1340.97 767.11 1335.97ZM260.02 1423.4L260.02 1423.4C255.02 1418.4 247.53 1418.4 242.53 1418.4C245.03 1425.9 255.02 1425.9 260.02 1423.4ZM207.56 1428.4L207.56 1428.4C202.57 1423.4 195.07 1420.9 187.58 1418.4C190.08 1423.4 192.57 1425.9 197.57 1428.4C200.07 1428.4 205.06 1428.4 207.56 1428.4ZM170.09 1420.9L170.09 1420.9C165.1 1420.9 160.1 1418.4 157.6 1418.4C157.6 1420.9 157.6 1425.9 155.1 1428.4C160.1 1425.9 165.1 1423.4 170.09 1420.9ZM110.14 1425.9L110.14 1425.9C107.64 1425.9 107.64 1425.9 110.14 1425.9ZM307.48 1500.84L307.48 1500.84C304.98 1508.33 307.48 1515.83 307.48 1523.32C307.48 1518.32 309.98 1515.83 312.48 1510.83C309.98 1508.33 309.98 1505.83 307.48 1500.84ZM509.82 1528.32L509.82 1528.32C504.82 1525.82 502.33 1530.81 502.33 1533.31C499.83 1538.31 504.82 1540.81 507.32 1543.3C507.32 1538.31 507.32 1533.31 509.82 1528.32ZM319.97 1545.8L319.97 1545.8C319.97 1538.31 312.48 1533.31 309.98 1525.82C309.98 1528.32 307.48 1528.32 307.48 1530.81C307.48 1535.81 304.98 1543.3 299.99 1548.3C302.49 1550.8 304.98 1553.3 307.48 1555.79C312.48 1553.3 319.97 1553.3 319.97 1545.8ZM222.55 1538.31L222.55 1538.31C217.55 1543.3 210.06 1545.8 202.57 1548.3C205.06 1548.3 207.56 1548.3 210.06 1548.3C210.06 1550.8 210.06 1553.3 210.06 1558.29C215.06 1553.3 220.05 1550.8 225.05 1545.8C225.05 1543.3 222.55 1540.81 222.55 1538.31ZM307.48 1558.29L307.48 1558.29C304.98 1558.29 304.98 1558.29 307.48 1558.29ZM502.33 1580.77L502.33 1580.77C502.33 1593.26 497.33 1603.26 499.83 1615.75C502.33 1605.75 507.32 1598.26 507.32 1588.27C507.32 1588.27 504.82 1588.27 502.33 1588.27C502.33 1585.77 502.33 1583.27 502.33 1580.77ZM374.93 1690.69L374.93 1690.69C372.43 1693.18 362.44 1690.69 364.94 1695.68C369.93 1700.68 374.93 1703.18 382.42 1705.67C379.92 1700.68 377.43 1695.68 374.93 1690.69ZM130.12 1870.54L130.12 1870.54C127.63 1870.54 127.63 1870.54 130.12 1870.54ZM132.62 1880.53L132.62 1880.53C130.12 1880.53 130.12 1883.03 132.62 1885.53C135.12 1883.03 135.12 1880.53 132.62 1880.53ZM382.42 1885.53L382.42 1885.53C379.92 1885.53 379.92 1885.53 382.42 1885.53Z" />
		<path id="Path 4" class="shp0" d="M519.81 64.64L607.24 64.64C617.23 64.64 622.23 67.14 629.72 69.64C634.72 69.64 637.22 67.14 639.72 67.14C649.71 69.64 654.7 74.63 664.7 74.63C667.19 74.63 669.69 77.13 672.19 79.63C669.69 84.63 669.69 87.12 667.19 92.12C672.19 87.12 677.19 79.63 684.68 82.13C694.67 89.62 704.66 97.12 714.66 104.61C722.15 112.1 734.64 117.1 739.64 127.09C739.64 134.59 732.14 137.08 727.15 137.08C729.64 144.58 732.14 149.57 737.14 157.07C734.64 159.57 732.14 164.56 732.14 169.56C734.64 169.56 737.14 174.55 742.13 169.56L742.13 147.08L754.62 147.08C754.62 152.07 759.62 157.07 759.62 162.06C757.12 174.55 764.62 184.55 764.62 197.04C769.61 209.53 764.62 222.02 759.62 232.01C762.12 239.5 762.12 249.49 764.62 256.99C764.62 281.97 762.12 309.45 764.62 334.43C764.62 341.92 762.12 349.41 762.12 356.91C762.12 359.41 764.62 359.41 767.11 359.41C764.62 369.4 767.11 379.39 769.61 389.38C772.11 399.37 767.11 409.37 762.12 419.36C764.62 429.35 764.62 439.34 764.62 446.84C767.11 461.82 764.62 476.81 767.11 491.8C764.62 501.79 767.11 514.28 762.12 521.78C759.62 521.78 754.62 521.78 752.13 519.28C754.62 521.78 757.12 521.78 762.12 524.27C764.62 531.77 769.61 539.26 764.62 546.76C764.62 546.76 767.11 546.76 769.61 549.25C767.11 559.25 762.12 569.24 762.12 579.23C759.62 576.73 759.62 571.74 757.12 569.24C752.13 566.74 744.63 566.74 737.14 566.74C737.14 561.74 742.13 559.25 744.63 556.75L739.64 556.75C737.14 556.75 732.14 559.25 729.64 561.74C727.15 566.74 727.15 571.74 724.65 576.73L719.65 579.23C727.15 581.73 734.64 574.23 734.64 566.74C739.64 566.74 742.13 571.74 744.63 574.23C739.64 584.23 734.64 594.22 734.64 604.21C737.14 601.71 739.64 601.71 739.64 601.71C742.13 599.21 742.13 596.72 742.13 594.22L754.62 594.22C757.12 589.22 757.12 586.72 757.12 581.73L764.62 581.73L764.62 611.7C764.62 611.7 767.11 614.2 769.61 614.2C764.62 619.2 764.62 624.19 759.62 626.69C754.62 631.69 749.63 631.69 744.63 634.19C742.13 641.68 742.13 649.17 742.13 654.17C744.63 656.67 747.13 659.17 749.63 661.66C757.12 661.66 762.12 659.17 767.11 656.67C764.62 666.66 764.62 679.15 759.62 689.14C762.12 691.64 764.62 691.64 764.62 694.14C764.62 706.63 774.61 719.12 769.61 731.61C764.62 744.1 764.62 759.09 767.11 771.58C769.61 776.57 764.62 781.57 767.11 786.56C772.11 796.56 764.62 809.05 764.62 821.54C769.61 834.03 762.12 849.01 772.11 861.5C767.11 871.5 767.11 881.49 774.61 888.98L774.61 903.97L769.61 903.97C774.61 916.46 769.61 928.95 772.11 941.44C769.61 953.93 772.11 966.42 772.11 978.91L772.11 1036.36C777.11 1056.35 774.61 1073.83 772.11 1091.32C769.61 1101.31 774.61 1106.31 772.11 1116.3C772.11 1121.3 769.61 1128.79 772.11 1133.79C774.61 1143.78 774.61 1153.77 774.61 1163.76C772.11 1173.75 774.61 1186.24 769.61 1198.73C769.61 1206.23 764.62 1211.22 764.62 1216.22C762.12 1221.22 767.11 1221.22 769.61 1223.71C767.11 1226.21 767.11 1228.71 767.11 1231.21C767.11 1238.7 769.61 1243.7 772.11 1248.69L772.11 1266.18C777.11 1283.66 772.11 1301.15 777.11 1318.64C772.11 1328.63 772.11 1343.62 774.61 1353.61C777.11 1361.1 774.61 1368.6 774.61 1376.09C772.11 1386.08 777.11 1396.07 777.11 1406.07C777.11 1408.56 779.6 1408.56 779.6 1411.06C774.61 1418.56 774.61 1428.55 774.61 1436.04C772.11 1446.04 777.11 1456.03 774.61 1463.52C774.61 1481.01 772.11 1498.49 777.11 1515.98C774.61 1523.47 777.11 1530.97 777.11 1538.46C774.61 1543.46 777.11 1550.95 779.6 1558.45C772.11 1563.44 774.61 1575.93 774.61 1583.42C777.11 1593.42 777.11 1600.91 774.61 1610.9C777.11 1620.89 772.11 1630.89 774.61 1640.88C774.61 1645.88 777.11 1650.87 774.61 1655.87C772.11 1668.36 774.61 1683.34 774.61 1695.83C772.11 1703.33 777.11 1708.32 777.11 1715.82C777.11 1723.31 774.61 1728.31 772.11 1735.8C774.61 1740.8 777.11 1748.29 774.61 1755.79C772.11 1765.78 774.61 1778.27 774.61 1788.26L764.62 1788.26C767.11 1793.26 769.61 1800.75 769.61 1805.75C767.11 1815.74 764.62 1823.23 762.12 1830.73C762.12 1838.22 762.12 1845.72 759.62 1850.71C764.62 1860.7 757.12 1868.2 752.13 1875.69L734.64 1875.69C734.64 1878.19 732.14 1880.69 732.14 1880.69L744.63 1880.69C744.63 1888.18 739.64 1895.67 737.14 1900.67C734.64 1900.67 729.64 1898.17 727.15 1898.17C727.15 1900.67 724.65 1905.67 722.15 1908.16L709.66 1908.16C707.16 1910.66 702.17 1915.66 699.67 1918.16C689.68 1923.15 677.19 1920.65 667.19 1918.16C659.7 1920.65 649.71 1923.15 642.21 1925.65C632.22 1923.15 624.73 1923.15 614.74 1920.65C609.74 1920.65 602.25 1923.15 597.25 1923.15L532.3 1923.15C527.31 1920.65 519.81 1920.65 512.32 1923.15C489.84 1923.15 467.35 1920.65 444.87 1925.65C424.89 1920.65 404.9 1923.15 384.92 1923.15C374.93 1925.65 364.94 1925.65 352.45 1925.65C344.95 1925.65 337.46 1923.15 332.46 1920.65C322.47 1918.16 314.98 1918.16 304.98 1915.66C297.49 1923.15 287.5 1925.65 277.51 1920.65C270.01 1923.15 262.52 1923.15 255.02 1920.65C237.54 1920.65 217.55 1920.65 202.57 1913.16C197.57 1915.66 195.07 1918.16 192.57 1918.16C185.08 1915.66 177.59 1915.66 167.59 1915.66C160.1 1913.16 155.1 1908.16 147.61 1908.16L147.61 1913.16C132.62 1905.67 117.63 1900.67 105.15 1893.18C97.65 1888.18 95.15 1880.69 92.65 1873.19C90.16 1868.2 82.66 1863.2 80.16 1855.71L72.67 1818.24C67.67 1810.74 70.17 1800.75 67.67 1793.26C65.18 1783.26 65.18 1773.27 70.17 1765.78C62.68 1758.29 65.18 1748.29 65.18 1738.3C65.18 1730.81 67.67 1723.31 67.67 1715.82C62.68 1695.83 65.18 1675.85 65.18 1653.37C65.18 1648.37 70.17 1643.38 70.17 1638.38C70.17 1633.39 65.18 1628.39 67.67 1623.39L67.67 1585.92C67.67 1575.93 70.17 1568.44 67.67 1560.94C67.67 1558.45 70.17 1558.45 70.17 1558.45C67.67 1550.95 72.67 1543.46 72.67 1535.96C67.67 1530.97 70.17 1520.98 70.17 1513.48C67.67 1495.99 70.17 1478.51 67.67 1461.02C70.17 1453.53 72.67 1446.04 72.67 1438.54C75.17 1433.55 80.16 1428.55 82.66 1426.05C90.16 1418.56 100.15 1418.56 105.15 1408.56C105.15 1411.06 107.64 1411.06 110.14 1413.56C112.64 1416.06 112.64 1421.06 115.14 1423.55L125.13 1423.55C122.63 1418.56 120.13 1413.56 122.63 1408.56C127.63 1411.06 132.62 1413.56 137.62 1413.56L137.62 1406.07C142.61 1403.57 147.61 1403.57 152.61 1403.57C160.1 1406.07 167.59 1406.07 177.59 1406.07C195.07 1408.56 215.06 1401.07 232.54 1406.07C240.04 1408.56 247.53 1401.07 255.02 1401.07C260.02 1403.57 262.52 1403.57 265.02 1406.07C270.01 1403.57 277.51 1403.57 282.5 1403.57C287.5 1408.56 292.49 1411.06 297.49 1411.06C299.99 1408.56 299.99 1408.56 299.99 1406.07C307.48 1408.56 317.47 1411.06 327.47 1408.56C329.96 1408.56 332.46 1403.57 332.46 1401.07C332.46 1403.57 332.46 1408.56 334.96 1411.06C339.96 1418.56 332.46 1428.55 332.46 1436.04C327.47 1431.05 319.97 1433.55 314.98 1433.55C314.98 1436.04 312.48 1441.04 314.98 1443.54C319.97 1446.04 324.97 1446.04 329.96 1446.04C337.46 1456.03 337.46 1466.02 332.46 1476.01C332.46 1476.01 329.96 1473.51 327.47 1473.51C329.96 1483.5 329.96 1493.5 329.96 1505.99C324.97 1510.98 317.47 1513.48 317.47 1520.98C319.97 1523.47 322.47 1523.47 324.97 1523.47L332.46 1508.48C334.96 1513.48 334.96 1515.98 337.46 1518.48C334.96 1523.47 332.46 1528.47 327.47 1533.47C332.46 1533.47 334.96 1535.96 337.46 1535.96C337.46 1543.46 337.46 1548.45 334.96 1555.95C332.46 1565.94 334.96 1573.43 337.46 1583.42C337.46 1585.92 342.45 1588.42 344.95 1590.92C342.45 1590.92 339.96 1590.92 334.96 1593.42C337.46 1595.91 337.46 1598.41 337.46 1600.91C327.47 1608.4 334.96 1623.39 327.47 1633.39C324.97 1635.88 319.97 1635.88 317.47 1635.88C314.98 1633.39 314.98 1630.89 312.48 1628.39C314.98 1635.88 312.48 1643.38 317.47 1648.37C319.97 1655.87 319.97 1663.36 322.47 1668.36L324.97 1665.86C327.47 1665.86 327.47 1668.36 329.96 1668.36C329.96 1668.36 332.46 1665.86 332.46 1663.36C334.96 1670.86 334.96 1675.85 337.46 1680.85C342.45 1683.34 349.95 1680.85 352.45 1678.35L369.93 1678.35C367.43 1675.85 364.94 1673.35 362.44 1670.86C367.43 1668.36 369.93 1675.85 372.43 1680.85C379.92 1683.34 387.42 1683.34 392.41 1685.84C397.41 1683.34 399.91 1683.34 402.41 1680.85C404.9 1683.34 404.9 1683.34 407.4 1685.84C419.89 1688.34 429.88 1680.85 442.37 1683.34C449.87 1683.34 454.86 1680.85 462.36 1678.35C462.36 1670.86 459.86 1663.36 452.37 1660.86C454.86 1658.37 459.86 1658.37 462.36 1655.87C464.86 1658.37 467.35 1663.36 469.85 1660.86C474.85 1660.86 477.35 1655.87 482.34 1653.37C489.84 1648.37 497.33 1643.38 504.82 1635.88C507.32 1638.38 509.82 1638.38 512.32 1640.88L512.32 1625.89C507.32 1625.89 504.82 1628.39 499.83 1630.89L487.34 1630.89C484.84 1623.39 487.34 1618.4 484.84 1610.9C484.84 1603.41 477.35 1598.41 479.84 1590.92C479.84 1578.43 477.35 1563.44 482.34 1548.45C482.34 1538.46 477.35 1528.47 477.35 1518.48C482.34 1498.49 477.35 1476.01 479.84 1456.03C482.34 1446.04 482.34 1438.54 479.84 1428.55C477.35 1408.56 479.84 1388.58 479.84 1371.1C477.35 1361.1 484.84 1351.11 479.84 1343.62C477.35 1333.63 479.84 1323.63 479.84 1313.64C477.35 1306.15 482.34 1298.65 482.34 1288.66C482.34 1281.17 477.35 1276.17 479.84 1268.68C482.34 1253.69 482.34 1236.2 479.84 1221.22C479.84 1211.22 484.84 1198.73 479.84 1186.24C479.84 1173.75 477.35 1161.26 482.34 1148.77C477.35 1128.79 479.84 1108.81 482.34 1088.82C484.84 1086.32 484.84 1081.33 482.34 1078.83C479.84 1071.34 482.34 1063.84 482.34 1056.35C482.34 1048.85 484.84 1043.86 482.34 1038.86C474.85 1023.87 482.34 1006.39 482.34 991.4C482.34 986.4 484.84 983.9 482.34 978.91C479.84 968.92 482.34 958.93 484.84 948.93C484.84 936.44 484.84 921.46 482.34 908.97C477.35 896.48 487.34 883.99 482.34 873.99C479.84 866.5 482.34 859.01 484.84 851.51C484.84 839.02 484.84 824.03 482.34 811.54C479.84 804.05 484.84 796.56 484.84 789.06C484.84 781.57 477.35 776.57 479.84 769.08C482.34 759.09 482.34 746.6 484.84 736.6L479.84 736.6C477.35 724.11 479.84 709.13 479.84 696.64C477.35 681.65 479.84 664.16 477.35 649.17C477.35 634.19 474.85 619.2 477.35 604.21C479.84 591.72 477.35 579.23 479.84 566.74C479.84 551.75 479.84 536.76 477.35 524.27C477.35 519.28 479.84 516.78 479.84 514.28C474.85 499.29 482.34 484.31 474.85 471.82C477.35 464.32 479.84 456.83 479.84 446.84C477.35 439.34 477.35 429.35 472.35 421.86C474.85 416.86 477.35 414.36 477.35 409.37C479.84 404.37 477.35 396.88 479.84 389.38C482.34 381.89 479.84 371.9 484.84 364.4C477.35 354.41 472.35 344.42 474.85 331.93C467.35 329.43 467.35 321.94 464.86 316.94L442.37 316.94C432.38 316.94 424.89 311.94 414.9 309.45C412.4 311.94 409.9 314.44 404.9 314.44C399.91 311.94 389.92 304.45 382.42 309.45C377.43 311.94 369.93 311.94 364.94 316.94C362.44 324.43 354.94 321.94 347.45 324.43C342.45 326.93 334.96 326.93 329.96 326.93C327.47 331.93 327.47 336.92 324.97 341.92C322.47 349.41 319.97 356.91 319.97 364.4C322.47 364.4 324.97 366.9 327.47 366.9L327.47 381.89C322.47 379.39 319.97 376.89 317.47 374.39L309.98 389.38C312.48 391.88 314.98 394.38 317.47 391.88L317.47 381.89C324.97 379.39 327.47 386.88 327.47 391.88C327.47 394.38 329.96 394.38 329.96 394.38C327.47 399.37 329.96 404.37 332.46 406.87C324.97 411.86 329.96 419.36 332.46 424.35C329.96 426.85 327.47 429.35 327.47 431.85L334.96 431.85L327.47 446.84C322.47 446.84 317.47 446.84 312.48 449.33C314.98 446.84 314.98 444.34 314.98 441.84C319.97 439.34 327.47 436.84 327.47 431.85L312.48 431.85C312.48 436.84 309.98 441.84 309.98 446.84C309.98 456.83 304.98 464.32 304.98 474.31C304.98 479.31 299.99 484.31 304.98 486.8C307.48 494.3 312.48 496.8 312.48 504.29C304.98 504.29 297.49 504.29 290 506.79C292.49 511.78 294.99 516.78 297.49 519.28C292.49 519.28 290 516.78 287.5 514.28C280 514.28 275.01 521.78 265.02 521.78L235.04 521.78C217.55 516.78 200.07 521.78 182.58 516.78C170.09 521.78 157.6 519.28 142.61 519.28C140.12 519.28 135.12 516.78 132.62 514.28C130.12 516.78 125.13 519.28 120.13 521.78C107.64 516.78 90.16 519.28 80.16 511.78C80.16 506.79 80.16 504.29 82.66 501.79C80.16 499.29 77.67 499.29 77.67 496.8L80.16 494.3C77.67 489.3 77.67 486.8 75.17 484.31C77.67 479.31 80.16 476.81 82.66 471.82C85.16 479.31 87.66 489.3 92.65 494.3C92.65 491.8 95.15 489.3 95.15 486.8C107.64 496.8 120.13 501.79 132.62 506.79C135.12 506.79 137.62 504.29 137.62 504.29C132.62 499.29 127.63 494.3 127.63 486.8C135.12 486.8 140.12 489.3 145.11 489.3C145.11 486.8 142.61 484.31 140.12 479.31C127.63 474.31 115.14 479.31 105.15 476.81C105.15 471.82 102.65 466.82 105.15 461.82C105.15 456.83 107.64 454.33 105.15 451.83C102.65 446.84 97.65 446.84 95.15 446.84L95.15 451.83L105.15 451.83C100.15 456.83 90.16 456.83 87.66 464.32C85.16 461.82 85.16 456.83 82.66 454.33C82.66 456.83 80.16 459.33 80.16 459.33C75.17 456.83 72.67 454.33 70.17 451.83L70.17 446.84C72.67 446.84 75.17 444.34 80.16 444.34L80.16 454.33L85.16 454.33C85.16 446.84 82.66 441.84 82.66 434.35C77.67 431.85 72.67 431.85 67.67 431.85C67.67 429.35 72.67 429.35 75.17 429.35C72.67 429.35 72.67 426.85 70.17 424.35C72.67 424.35 72.67 421.86 72.67 419.36L67.67 419.36C67.67 401.87 62.68 381.89 70.17 366.9C57.68 356.91 67.67 341.92 67.67 329.43C65.18 321.94 67.67 311.94 65.18 304.45C62.68 294.46 62.68 284.47 65.18 274.47C67.67 266.98 67.67 259.49 65.18 254.49C65.18 244.5 72.67 237 67.67 227.01C65.18 217.02 67.67 207.03 67.67 199.53C70.17 184.55 70.17 169.56 72.67 157.07C80.16 139.58 87.66 124.59 95.15 107.11C100.15 102.11 107.64 102.11 115.14 99.61C122.63 89.62 132.62 79.63 145.11 77.13C155.1 74.63 162.6 77.13 172.59 77.13C175.09 82.13 177.59 87.12 180.08 89.62C180.08 87.12 182.58 84.63 185.08 84.63C182.58 79.63 182.58 77.13 180.08 72.14C190.08 72.14 200.07 72.14 207.56 77.13C215.06 69.64 222.55 72.14 230.04 72.14C237.54 72.14 242.53 67.14 247.53 64.64L282.5 64.64C292.49 62.14 304.98 62.14 317.47 62.14C329.96 62.14 342.45 64.64 352.45 67.14C359.94 69.64 364.94 64.64 372.43 64.64C384.92 64.64 397.41 62.14 412.4 67.14C424.89 69.64 437.38 62.14 449.87 62.14C457.36 64.64 464.86 64.64 472.35 64.64C479.84 64.64 484.84 67.14 492.33 67.14C502.33 67.14 509.82 62.14 519.81 64.64ZM394.91 1678.35C394.91 1680.85 394.91 1683.34 392.41 1683.34C389.92 1678.35 392.41 1678.35 394.91 1678.35ZM319.97 1545.96C319.97 1538.46 312.48 1533.47 309.98 1525.97C309.98 1528.47 307.48 1528.47 307.48 1530.97C307.48 1535.96 304.98 1543.46 299.99 1548.45C302.49 1550.95 304.98 1553.45 307.48 1555.95C312.48 1553.45 319.97 1553.45 319.97 1545.96ZM95.15 479.31C100.15 486.8 87.66 479.31 95.15 479.31ZM332.46 454.33C329.96 456.83 329.96 459.33 327.47 464.32L322.47 464.32L322.47 456.83C324.97 456.83 329.96 454.33 332.46 454.33ZM140.12 421.86C132.62 421.86 122.63 419.36 117.63 424.35C120.13 426.85 122.63 429.35 125.13 434.35C125.13 439.34 117.63 439.34 112.64 441.84C117.63 441.84 120.13 444.34 125.13 446.84L117.63 446.84C120.13 454.33 120.13 459.33 117.63 464.32L125.13 464.32C127.63 466.82 125.13 471.82 127.63 474.31C130.12 471.82 130.12 466.82 130.12 464.32C135.12 459.33 135.12 454.33 130.12 446.84C135.12 444.34 140.12 441.84 145.11 441.84C142.61 446.84 140.12 451.83 140.12 459.33C142.61 459.33 145.11 461.82 150.11 461.82C150.11 456.83 152.61 451.83 152.61 446.84C155.1 449.33 157.6 451.83 160.1 454.33C160.1 456.83 157.6 459.33 155.1 464.32L162.6 471.82C165.1 466.82 165.1 464.32 165.1 461.82C170.09 461.82 175.09 464.32 180.08 466.82C182.58 464.32 185.08 459.33 187.58 454.33L182.58 454.33C182.58 451.83 180.08 449.33 177.59 446.84C177.59 446.84 175.09 449.33 172.59 449.33C175.09 444.34 175.09 439.34 170.09 434.35C160.1 431.85 150.11 426.85 137.62 429.35C137.62 426.85 140.12 424.35 140.12 421.86ZM132.62 429.35C137.62 436.84 125.13 429.35 132.62 429.35ZM474.85 356.91C477.35 359.41 474.85 361.9 472.35 359.41C469.85 356.91 472.35 356.91 474.85 356.91ZM434.88 67.14C432.38 67.14 432.38 67.14 434.88 67.14ZM427.39 67.14C424.89 67.14 424.89 67.14 427.39 67.14ZM634.72 74.63C629.72 74.63 627.23 77.13 622.23 77.13C624.73 79.63 624.73 82.13 627.23 82.13L637.22 82.13C637.22 79.63 634.72 77.13 634.72 74.63ZM397.41 84.63C397.41 79.63 394.91 77.13 392.41 74.63L377.43 82.13C384.92 84.63 389.92 84.63 397.41 84.63ZM409.9 79.63C407.4 77.13 402.41 79.63 404.9 82.13C407.4 84.63 414.9 82.13 409.9 79.63ZM564.78 82.13C559.78 79.63 559.78 87.12 562.28 87.12C567.27 89.62 569.77 82.13 564.78 82.13ZM594.75 87.12C589.76 89.62 587.26 89.62 582.26 92.12L594.75 92.12L594.75 87.12ZM684.68 102.11C679.68 99.61 679.68 109.61 682.18 109.61C687.18 112.1 687.18 104.61 684.68 102.11ZM265.02 99.61C262.52 99.61 260.02 102.11 262.52 104.61C265.02 107.11 267.51 104.61 265.02 99.61ZM719.65 122.1L702.17 122.1C704.66 127.09 707.16 129.59 707.16 134.59C712.16 132.09 717.15 132.09 722.15 132.09C722.15 129.59 719.65 124.59 719.65 122.1ZM752.13 152.07C749.63 152.07 749.63 152.07 752.13 152.07ZM342.45 284.47C339.96 284.47 334.96 284.47 332.46 289.46C342.45 289.46 349.95 291.96 357.44 299.45C359.94 301.95 362.44 301.95 367.43 301.95C367.43 301.95 367.43 299.45 364.94 296.96L359.94 291.96C359.94 291.96 359.94 289.46 362.44 286.96C357.44 289.46 354.94 289.46 349.95 291.96L342.45 284.47ZM504.82 354.41C499.83 346.92 497.33 334.43 487.34 334.43L487.34 341.92L494.83 341.92C494.83 346.92 492.33 349.41 492.33 354.41C492.33 359.41 494.83 364.4 497.33 369.4C499.83 364.4 504.82 359.41 504.82 354.41ZM132.62 361.9L127.63 361.9C127.63 369.4 125.13 374.39 125.13 381.89C127.63 374.39 132.62 369.4 132.62 361.9ZM507.32 364.4C504.82 366.9 504.82 366.9 507.32 369.4C509.82 366.9 509.82 366.9 507.32 364.4ZM142.61 366.9C140.12 366.9 137.62 366.9 135.12 369.4L135.12 374.39L142.61 374.39L142.61 366.9ZM502.33 371.9C497.33 374.39 502.33 381.89 507.32 379.39C507.32 374.39 504.82 371.9 502.33 371.9ZM127.63 386.88C125.13 384.39 122.63 381.89 122.63 379.39C120.13 381.89 117.63 386.88 115.14 389.38C117.63 394.38 117.63 399.37 122.63 404.37C127.63 399.37 132.62 394.38 137.62 386.88C137.62 386.88 135.12 384.39 135.12 381.89C132.62 384.39 130.12 384.39 127.63 386.88ZM514.82 381.89C507.32 381.89 519.81 389.38 514.82 381.89ZM504.82 384.39L497.33 384.39C494.83 389.38 494.83 396.88 499.83 401.87C502.33 396.88 502.33 391.88 504.82 384.39ZM509.82 414.36C514.82 409.37 512.32 399.37 504.82 396.88C502.33 404.37 504.82 409.37 509.82 414.36ZM487.34 401.87C484.84 401.87 484.84 401.87 487.34 401.87ZM115.14 411.86C107.64 411.86 120.13 419.36 115.14 411.86ZM265.02 419.36C262.52 419.36 260.02 424.35 260.02 426.85C262.52 431.85 270.01 424.35 265.02 419.36ZM160.1 436.84C162.6 439.34 157.6 444.34 155.1 441.84C152.61 439.34 157.6 434.35 160.1 436.84ZM522.31 421.86C517.31 421.86 517.31 426.85 519.81 429.35C522.31 431.85 522.31 424.35 522.31 421.86ZM247.53 436.84C245.03 431.85 240.04 426.85 235.04 421.86C237.54 426.85 237.54 431.85 240.04 436.84L247.53 436.84ZM75.17 446.84C72.67 446.84 72.67 446.84 75.17 446.84ZM514.82 449.33C512.32 451.83 509.82 454.33 507.32 454.33L507.32 461.82L502.33 461.82C504.82 466.82 504.82 469.32 507.32 471.82C509.82 464.32 512.32 456.83 514.82 449.33ZM152.61 481.81C152.61 476.81 147.61 471.82 142.61 469.32C140.12 476.81 145.11 481.81 152.61 481.81ZM499.83 589.22C494.83 589.22 497.33 599.21 499.83 596.72C502.33 594.22 502.33 591.72 499.83 589.22ZM737.14 606.71C734.64 604.21 732.14 609.21 734.64 611.7C737.14 614.2 739.64 609.21 737.14 606.71ZM742.13 659.17C737.14 656.67 737.14 666.66 739.64 666.66C744.63 666.66 744.63 661.66 742.13 659.17ZM749.63 911.46C744.63 916.46 742.13 921.46 742.13 928.95C752.13 926.45 749.63 916.46 749.63 911.46ZM747.13 1186.24C749.63 1178.75 749.63 1168.76 742.13 1163.76C739.64 1173.75 742.13 1181.25 747.13 1186.24ZM752.13 1188.74C747.13 1188.74 739.64 1188.74 737.14 1193.74C734.64 1201.23 739.64 1206.23 742.13 1211.22C747.13 1208.73 754.62 1203.73 759.62 1201.23L759.62 1196.23C757.12 1196.23 754.62 1198.73 749.63 1198.73C749.63 1196.23 747.13 1196.23 747.13 1193.74L752.13 1188.74ZM762.12 1258.69C759.62 1253.69 757.12 1251.19 752.13 1256.19C752.13 1258.69 754.62 1263.68 754.62 1268.68C759.62 1266.18 762.12 1261.18 762.12 1258.69ZM767.11 1336.12C759.62 1333.63 754.62 1348.61 762.12 1351.11C764.62 1346.12 764.62 1341.12 767.11 1336.12ZM260.02 1423.55C255.02 1418.56 247.53 1418.56 242.53 1418.56C245.03 1426.05 255.02 1426.05 260.02 1423.55ZM207.56 1428.55C202.57 1423.55 195.07 1421.06 187.58 1418.56C190.08 1423.55 192.57 1426.05 197.57 1428.55L207.56 1428.55ZM170.09 1421.06C165.1 1421.06 160.1 1418.56 157.6 1418.56C157.6 1421.06 157.6 1426.05 155.1 1428.55L170.09 1421.06ZM110.14 1426.05C107.64 1426.05 107.64 1426.05 110.14 1426.05ZM307.48 1500.99C304.98 1508.48 307.48 1515.98 307.48 1523.47C307.48 1518.48 309.98 1515.98 312.48 1510.98C309.98 1508.48 309.98 1505.99 307.48 1500.99ZM509.82 1528.47C504.82 1525.97 502.33 1530.97 502.33 1533.47C499.83 1538.46 504.82 1540.96 507.32 1543.46C507.32 1538.46 507.32 1533.47 509.82 1528.47ZM314.98 1540.96C314.98 1548.45 307.48 1535.96 314.98 1540.96ZM222.55 1538.46C217.55 1543.46 210.06 1545.96 202.57 1548.45L210.06 1548.45L210.06 1558.45C215.06 1553.45 220.05 1550.95 225.05 1545.96C225.05 1543.46 222.55 1540.96 222.55 1538.46ZM307.48 1558.45C304.98 1558.45 304.98 1558.45 307.48 1558.45ZM502.33 1580.93C502.33 1593.42 497.33 1603.41 499.83 1615.9C502.33 1605.91 507.32 1598.41 507.32 1588.42L502.33 1588.42L502.33 1580.93ZM374.93 1690.84C372.43 1693.34 362.44 1690.84 364.94 1695.83C369.93 1700.83 374.93 1703.33 382.42 1705.83L374.93 1690.84ZM130.12 1870.7C127.63 1870.7 127.63 1870.7 130.12 1870.7ZM132.62 1880.69C130.12 1880.69 130.12 1883.18 132.62 1885.68C135.12 1883.18 135.12 1880.69 132.62 1880.69ZM382.42 1885.68C379.92 1885.68 379.92 1885.68 382.42 1885.68Z" />
	</g>
</svg>