<?xml version="1.0" encoding="utf-8"?>
<!-- Generator: Adobe Illustrator 13.0.2, SVG Export Plug-In . SVG Version: 6.00 Build 14948)  -->
<!DOCTYPE svg PUBLIC "-//W3C//DTD SVG 1.1//EN" "http://www.w3.org/Graphics/SVG/1.1/DTD/svg11.dtd">
<svg version="1.1" id="Layer_1" xmlns="http://www.w3.org/2000/svg" xmlns:xlink="http://www.w3.org/1999/xlink" x="0px" y="0px"
	 width="557px" height="191px" viewBox="0 0 557 191" enable-background="new 0 0 557 191" xml:space="preserve">
<g>
	<text transform="matrix(1 0 0 1 23.3633 143.0547)" font-family="'TrebuchetMS'" font-size="163.1235" letter-spacing="-4">Teluu</text>
</g>
<g>
	<path fill="#EF6324" d="M458.49,17.474l66.548,66.528c4.442,4.464,4.442,11.686,0,16.146l-41.351,41.337
		c-4.449,4.453-11.663,4.453-16.123,0l-3.813-3.822l-12.104-12.099h-24.339V101.22l-26.295-26.284
		c-4.442-4.444-4.442-11.672,0-16.133l41.344-41.329C446.813,13.012,454.031,13.012,458.49,17.474z M446.933,30.653l-31.821,31.825
		c-3.422,3.425-3.422,8.987,0,12.412l20.228,20.225v18.74h18.729l9.33,9.323l2.938,2.94c3.415,3.425,8.975,3.425,12.399,0
		l31.822-31.825c3.435-3.433,3.435-8.995,0-12.421l-51.214-51.206C455.918,27.229,450.36,27.229,446.933,30.653z"/>
	<path fill="#EF6324" d="M438.74,68.676c0,4.581-3.336,8.291-7.424,8.291s-7.413-3.71-7.413-8.291c0-4.575,3.319-8.277,7.413-8.277
		C435.404,60.399,438.74,64.101,438.74,68.676z"/>
	<path fill="#EF6324" d="M458.258,121.719c0,0,7.407-13.573,12.957-12.947c5.557,0.601,5.557,11.714-4.316,21.584
		C457.035,140.212,458.258,121.719,458.258,121.719z"/>
</g>
<text transform="matrix(1 0 0 1 39.2324 176.4707)" font-family="'NexusSans-BoldSC'" font-size="30.7762" letter-spacing="3">COMMUNICATE EVERYWHERE</text>
</svg>
